<?xml version="1.0" encoding="UTF-8"?><svg xmlns="http://www.w3.org/2000/svg" viewBox="0 0 1973.41 2008.52"><g id="Layer_4" style="opacity:.2;"><path d="M11.3,932.57S940.71-13.52,989.95,2.19s342.47,378.1,342.47,378.1c0,0-68.09-238.4-37.6-259.27s415.97-57.02,429.06,17.14-3.2,500.19-3.2,500.19c0,0,234.87,240.85,247.96,277.1s-22.82,169.32-54.23,166.98c-31.42-2.34-222.9,4.43-222.9,4.43,0,0,20.39,842.81-8.41,865.62s-509.17,22.4-509.48,7.49.07-605.69.07-605.69l-382.96-10.84,7.77,598.72c1.5,22.96-15.9,42.78-38.86,44.28l-522.16,1.77-3.48-901.35-160.02,45.62c-36.6,4.61-69.53-22.54-71.98-59.35l9.3-140.55Z" style="fill:currentColor; stroke:currentColor; stroke-miterlimit:10; stroke-width:4px;"/></g><g id="Layer_2"><path d="M756,1357.12c-1.65,2.34-2.96,4.32-4.08,6.98-1.78,4.21-2,8.65-2.46,13.14-.54,5.28-1.11,10.56-1.66,15.84-.99,9.49-.75,19.17-1.02,28.71-.55,19.47-.43,38.94-.56,58.41-.27,38.63-1.36,77.23-2.2,115.85-1.69,77.55-5.56,155.06-11.61,232.39-1.67,21.31-3.52,42.76-3.9,64.13-.1,5.59-.21,11.17-.33,16.76-.06,2.62-.21,5.26-.18,7.88.01,1.07.19,12.74,1.91,12.97v-1.56c-.1-3.81.2-2.1.88,5.15.2,1.22.42,2.44.63,3.66.42,2.44.8,4.87,1.45,7.26,2.3,8.46,7.41,15.67,16.11,18.15l-6.45-3.76c.79.97,1.6,1.91,2.42,2.86,2.68,3.1,9.09,4.19,12.5,1.61,1.94-1.47,3.88-2.94,5.77-4.47-3.45,1.43-6.89,2.86-10.34,4.28,7.55-.67,13.79-3.81,18.11-10.31,3.51-5.27,5.41-11.61,7.75-17.45.56-1.4.2-2.88.22-.45l-.5,1.38c.47-.78.87-1.58,1.22-2.42,1.76-3.72,3.17-7.33,3.88-11.36.85-4.83,1.67-9.66,2.49-14.49,3.6-21.22,6.06-42.6,8.09-64.03,3.67-38.73,5.63-77.73,7.6-116.58,3.97-78.17,5.62-156.31,4.12-234.58-.42-21.77-.6-43.62-2.13-65.35-.89-12.61-1.42-25.36-3.24-37.87-.74-5.1-1.66-10.19-2.52-15.27-.61-3.63-1.05-7.06-2.49-10.48-1.77-4.19-4.8-7.56-7.65-11.08-3.94-4.86-11.19-6.35-17.01-5.57-6.6.89-11.02,4.31-14.79,9.67h0Z" style="fill:currentColor; stroke-width:0px;"/><path d="M220.66,1107.7c-.17,1.66-.41,3.32-.53,4.98-.26,3.74.81-4.59-.18,1.41-.69,4.17-1.37,8.32-1.49,12.55-.2,6.98-.51,13.96-.71,20.94-.35,12.63-.53,25.26-.84,37.89-.63,25.92-.27,51.85-.22,77.78.09,51.2-.36,102.39-.29,153.59.15,103.07-1.07,206.14-3.67,309.17-.72,28.58-1.82,57.16-2.3,85.75-.25,14.62-.52,29.24-.83,43.86-.15,7.31-.35,14.62-.47,21.93-.15,8.63,1.52,18.49,3.45,27.02,2.46,10.93,14.49,20.08,25.71,19.57,11.97-.54,22.19-7.94,25.71-19.57,4.44-14.69,4.98-29.76,5.66-44.97.56-12.63,1.1-25.25,1.62-37.88,1.06-25.91,1.56-51.84,2.04-77.77.96-51.52,1.58-103.05,1.86-154.57.55-103.1-.25-206.13-3.77-309.18-.99-28.9-1.5-57.91-3.65-86.75-1.09-14.63-2.23-29.25-3.36-43.87-.56-7.32-1.31-14.63-1.99-21.93-.78-8.47-2.76-16.64-4.16-25.02-1.56-9.35-12.44-14.85-20.98-13.7-10,1.34-15.6,9.17-16.58,18.78h0Z" style="fill:currentColor; stroke-width:0px;"/><path d="M1170.11,1350.7c-1.27,1.1-1.24,1.26.09.48-7.24,1.38-10.7,8.54-11.44,15.03-1.09,9.57-2.71,19.19-2.73,28.82-.02,9.28-.06,18.56-.12,27.83-.13,18.9.15,37.78.37,56.68.44,38.14.16,76.27.44,114.41.55,75.63-.53,151.27-3.23,226.85-.76,21.21-1.56,42.42-2.29,63.64-.18,5.34-.15,10.57.14,15.9.18,3.38.52,6.71.97,10.07l.42,3.11-.48-2.25c.4.35.25,4.19.3,4.97.39,6.46,1.37,12.81,2.49,19.18,1.01,5.77,4.02,11.24,6.3,16.64,4.17,9.87,19.29,8.22,23.96,0,5.06-8.9,9.08-17.78,10.79-27.95,1.83-10.87,4.13-21.72,5.12-32.71,1.7-18.79,2.02-37.82,2.65-56.67,1.25-37.79,2.09-75.59,2.53-113.4.88-76.35.04-152.58-3.72-228.85-1.05-21.23-2.02-42.47-3.94-63.65-.96-10.61-1.95-21.21-2.98-31.81-1.15-11.89-3.78-23.32-6.38-34.95-1.59-7.09-8.37-10.87-15.03-11.44l1.69-.05,3.52,2.05c-.76-.64-1.51-1.28-2.27-1.92-2.05-1.73-5.14-2.11-7.16,0h0Z" style="fill:currentColor; stroke-width:0px;"/><path d="M1680.84,1083.91c-1.08,3.65-2.35,7.12-2.79,10.9-.39,3.31-.71,6.64-1.1,9.96-.81,6.87-2.04,13.98-2.51,21.9-.84,13.92-2.07,27.87-2.35,41.82-.55,27.21-1.68,54.44-1.71,81.66-.06,55.11-.67,110.22-1.83,165.32-2.33,110.54-4.79,221.02-10.32,331.46-1.54,30.83-3.26,61.66-5.15,92.47-.94,15.25-1.57,30.45-.7,45.72.45,7.94,1.05,15.92,1.7,23.85.81,9.88,4.46,17.37,10.33,25.07,4.01,5.26,10.95,7.15,16.2,2.09,5.4-5.21,10.22-10.84,12.92-17.93,2.51-6.57,3.18-14.1,4.76-20.96,3.49-15.12,5.08-30.47,6.4-45.9,2.35-27.44,3.51-55.02,4.99-82.52,2.97-55.36,5.39-110.75,7.25-166.16,1.85-55.05,3.63-110.19,3.76-165.28.13-55.11-.29-110.22-1.26-165.32-.55-31.26-2.11-62.4-3.92-93.61-.89-15.33-2.47-30.54-4.13-45.8-1.76-16.23-3.67-33.37-9.2-48.74-3.61-10.03-18.09-10.96-21.33,0h0Z" style="fill:currentColor; stroke-width:0px;"/><path d="M1701.52,157.54c1.83-3.37,4-8.92,6.06-11.26-6.42-6.42-12.84-12.84-19.25-19.25-3.27,3.73-7.08,7.8-8.41,12.64.22-.79-.98,7.29-.59,4.42.25-1.83-.18,1.33-.18,1.36-.35,2.57-.7,5.13-1.05,7.7-1.29,9.5-2.15,18.92-2.8,28.48-1.17,17.35-2.25,34.57-2.75,51.95-.97,33.97-1.71,67.92-2.24,101.9-1.06,68.26-2.31,136.53-3.86,204.78-.44,19.27-.52,38.65-.11,57.93.2,9.29,1.34,18.68,1.93,27.96.2,3.08.44,6.1.86,9.16.62,4.62,2.46,8.64,4.44,12.82.42.89,2.11,5.42,1.26,2.76.77,2.43,1.74,4.81,2.6,7.21,2.07,5.73,6.22,9.9,12.47,10.74,5.31.71,12.65-1.75,14.95-7.16,1.38-3.24,2.64-6.57,4.23-9.71,2.56-5.02,5.65-9.82,6.67-15.44.97-5.39,1.4-10.94,2.03-16.38.23-2,.47-3.99.7-5.99.12-1,.23-2,.35-3,.08-.67.16-1.33.23-2,.24-2.02.15-1.33-.28,2.05.35-.34.38-2.39.46-2.89.4-2.69.87-5.44,1.1-8.15.17-1.99.22-4,.32-5.99.22-4.33.45-8.66.67-12.98.44-8.66.88-17.31,1.3-25.97,1.69-34.21,1.39-68.64,1.87-102.88.95-68.57,1.35-137.24-.4-205.79-.49-19.04-1.15-37.95-2.57-56.95-.81-10.91-1.42-21.79-2.96-32.63-.68-4.81-1.39-9.62-2.08-14.43-.91-6.28-4.79-10.93-8.91-15.52-4.91-5.48-14.26-5-19.25,0-5.47,5.47-4.89,13.73,0,19.25,2.02,2.28,4.25,7.93,6.07,11.26,1.46,2.68,5.66,2.68,7.12,0h0Z" style="fill:currentColor; stroke-width:0px;"/><path d="M1295.98,131.56c-.46,1.02-.99,1.99-1.6,2.92,1.79-1.79,3.57-3.57,5.36-5.36-4.18,1.96-8.16,6.08-10.48,10.06-3.51,6.01-3.3,13.49-3.76,20.25-.55,7.99-1.66,16.15-1.53,24.15.27,16.72.98,33.44,2.14,50.13,2.4,34.6,7.59,68.75,15.72,102.47,1.12,4.64,2,9.52,3.51,14.05.77,2.3,1.88,4.84,3.16,6.87.8,1.27,7.11,10.33,2.77,2.87-3.75-6.43-.3.69.43,2.53,3.98,10.14,7.24,22.97,15.75,30.32,9.89,8.54,23.67,4.94,28.03-7.4,2.92-8.25,1.02-17.56.2-26.01-.18-1.88-.36-3.76-.53-5.64-.09-1.03-.18-6.66-.53-3.29-.33,3.23.12.39.26-.25,1.02-4.89.86-8.62,0-13.66-.38-2.23-.83-4.45-1.24-6.67-2.89-15.89-5.35-31.86-7.87-47.8-.61-3.82-1.19-7.65-1.75-11.48-.28-1.91-.55-3.83-.82-5.75-.13-.96-.23-1.93-.4-2.88.29,1.62.68,5.07.2,1.47-1.34-10.04-3.11-20.02-4.56-30.05-.27-1.9-.54-3.81-.81-5.72-.72-5.13.56,4.44-.09-.73-.53-4.17-1.05-8.34-1.54-12.52-.93-8.03-1.77-16.07-2.5-24.11-.58-6.35-1.09-12.65-2.17-18.94-.33-1.92-1.34-4.61-1.12-6.53-.02.21.5,4.09.19,1.32-.15-1.29-.32-2.58-.47-3.87-.67-5.62-.76-11.76-2.17-17.22-1.66-6.43-6.74-13.16-12.94-15.98,1.79,1.79,3.57,3.57,5.36,5.36-.62-.93-1.17-1.9-1.63-2.92-4.29-8.49-18.31-8.57-22.58,0h0Z" style="fill:currentColor; stroke-width:0px;"/><path d="M1163.25,1334.97c-2.27.77-4.42,1.36-5.3,1.32-3.58-.14-6.76.13-10.29.85-2.28.47-4.53,1.02-6.82,1.45-1.15.21-2.3.39-3.45.6-4.3.78,1.82-.1-2.11.3-10.46,1.07-20.99,1.62-31.51,1.61-22.32-.01-44.67-1.48-66.98-2.06-23.15-.6-46.3-1.22-69.46-1.26s-46.05,1.02-69.12,3.95c-7.57.96-15.14,1.98-22.68,3.15-6.19.96-12.76,1.56-18.65,3.72-6.92,2.55-13.69,5.67-20.42,8.69-6.08,2.73-12.44,4.96-17.26,9.72-5.6,5.53-2.51,14.21,4.39,16.61,5.68,1.97,11.76,1.41,17.68,1.7,5.67.28,11.34.67,17,1.16,11.63.99,23.51-.99,35.17-1.58,22.98-1.16,46.07-1.49,69.07-1.98,45.86-.98,91.95,1.81,137.72-1.64,12.83-.97,25.72-2.41,38.22-5.53,5.92-1.48,11.76-3.28,17.45-5.48,4.45-1.72,8.09-3.61,11.71-6.82,1.93-1.71,3.19-2.42,5.94-4.06,12.62-7.55,4.46-29.45-10.31-24.44h0Z" style="fill:currentColor; stroke-width:0px;"/><path d="M784.65,1383.99c9.88-1.13,20.04-1.21,29.78-3.27,4.06-.86,8.1-1.82,12.17-2.62,8.78-1.72,14.66-5.95,19.93-13.34l-12.95,9.96c8.68-2.81,17.16-5.31,25.54-8.98,5.96-2.62,8.73-10.73,7.94-16.58-.87-6.45-5.51-12.1-11.92-13.83-8.94-2.43-18.1-2.82-27.32-3.15l15.32,6.34c-7.15-5.52-13.81-8.67-22.91-7.47-5.92.78-11.91,1.5-17.78,2.61-9.84,1.85-19.39,6.93-28.44,11.04-8.07,3.67-12.33,15.64-9.69,23.81s10.99,16.54,20.33,15.48h0Z" style="fill:currentColor; stroke-width:0px;"/><path d="M739.3,1939.72c-.24.04,4.05-.49,2.13-.28s-3.84.33-5.64.73c-1.38.3-2.09.64-3.58,1.27-6.65,2.8.07-.06.06-.09,0,0-7.76,1.66-8.43,1.83-2.41.61,2.84-.35,2.75-.36-.63-.07-1.42.11-2.05.15-1.4.08-2.81.11-4.21.07-3.13-.1-6.25.15-9.39.16-15.21.07-30.5-1.35-45.7-1.98-32.96-1.37-66.05-1.06-99.03-.68-66.22.77-132.87,2.63-198.81,9.12-10.87,1.07-21.64,2.54-32.43,4.26-4.52.72-9.03,1.45-13.55,2.19-2.22.36-4.59.55-6.75,1.2s-4.29,2.08-6.52,2.8c-2.76.89,3.23-.39.11-.37-4.26.03-9.22,1.92-13.4,2.8-4.48.95-8.94,1.8-13.24,3.44-8.91,3.41-17.42,7.83-26.27,11.4-4.13,1.67-7.3,4.84-7.3,9.58,0,4.01,3.05,8.92,7.3,9.58,7.93,1.24,15.7,2.91,23.55,4.54,9.42,1.96,18.76,1.83,28.32,1.91,1.97.02,3.94.07,5.91.06,4.55-.03-2.67-.61,1.54.33,5.66,1.26,11.46.82,17.2.71,8.54-.17,17.12-.03,25.65-.5,33.94-1.87,67.83-4.62,101.78-6.38s67.95-2.96,101.95-3.6c34.01-.64,68-.19,102-.41,17.02-.11,34.35,1.03,51.32-.43,19.97-1.72,46.31-13.29,45.85-36.97-.22-11.61-10.44-18-21.12-16.09h0Z" style="fill:currentColor; stroke-width:0px;"/><path d="M294.55,2007.39c-2.2.06-4.4.13-6.6.19-.48.01-.48.74,0,.75,2.2.06,4.4.12,6.6.19.72.02.73-1.15,0-1.12h0Z" style="fill:currentColor; stroke-width:0px;"/><path d="M254.18,1980.34c.43-3.83.4-8.06,1.36-11.8l.24,1.44c.43-2.44.78-4.88,1.05-7.34.17-1.63.27-3.28.41-4.92.17-1.97.34-3.94.52-5.9.09-.98.18-1.97.27-2.95l-.1,2.22c1.11-2.55,1.62-5.26,1.52-8.12l.12-1.97c.14-1.97.24-3.94.36-5.9.96-15.08.98-30.17,1.49-45.28.24-7.24.13-14.4-.06-21.65-.1-3.92-.01-7.89-.24-11.8-.2-3.39-.6-7.05-1.64-10.28-1.46-4.56-.16,3.9-.39-1.52-.33-7.9-.31-17.22-2.65-24.74-2.38-7.64-5.59-13.92-10.36-20.29-2.91-3.89-7.97-5.14-11.78-1.52-5.41,5.14-9.54,10.53-12.83,17.24-3.76,7.69-4.77,15.99-6.26,24.34-.83,4.65-2.67,8.75-3.31,13.46-.59,4.37-.98,8.75-1.39,13.14-.73,7.89-1.3,15.68-1.29,23.62.02,15.13.09,30.22,1.63,45.28.7,6.84.93,13.66,4.09,19.93-2.25-4.46-.66.15-.43,1.68.29,1.9.59,3.81.89,5.71s.48,3.85.92,5.71l.47,1.86c2.49,5.12,2.91,6.34,1.26,3.63.84,3.75,1.63,7.52,2.46,11.28,1.85,8.32,10.8,13.35,18.81,12.28,9.02-1.21,13.9-8.22,14.86-16.83h0Z" style="fill:currentColor; stroke-width:0px;"/><path d="M34.18,1101.5c7.77,4.73,16.18,6.86,25.25,7.28,5.44.25,11.02.24,16.46.14,11-.21,21.98-.84,33-.86,10.71-.01,21.34-.64,32.06-.73,5.5-.05,11-.03,16.5.06,4.03.06,7.74,0,11.77-.53,9.63-1.29,17.47-6.87,22.51-15.16l-10.22,10.22,1.32-.92c-4.59,1.24-9.17,2.48-13.76,3.72,8.05-.78,16.13-1.24,24.19-1.98,5.07-.47,10.05-1.49,15.06-2.35,4.69-.81,8.78-2.77,13.11-4.67,8.8-3.86,10.43-18.67,3.18-24.65-7.55-6.22-15.85-10.61-25.21-13.68-7.54-2.48-15.38-4.28-23.08-6.21l12.03,7.01,2.93,3.76-4.72-6.11c-3.81-3.81-9.1-6.75-14.26-7.95-4.5-1.04-9.27-1.31-13.88-1.74-5.49-.52-10.99-.97-16.5-1.36-11.37-.8-22.6-1.57-34-1.16-12.06.43-24.27.86-36.24,2.47-6.46.87-12.97,1.76-19.35,3.09-8.97,1.87-16.68,6.56-23.23,12.86-11.88,11.41-8.46,31.21,5.08,39.46h0Z" style="fill:currentColor; stroke-width:0px;"/><path d="M1693.84,1086.06c15.34,7.97,33.49,4.7,50.12,4.02,14.51-.59,28.97-1.67,43.5-1.87,14.2-.19,28.44.07,42.64.56,7.1.24,14.19.74,21.29.99,3.54.12,7.09.39,10.63.46,5.86.12,11.41-1.37,17.05-2.73l-7.4.99c10.5-.91,21.36-.52,31.07-5.09,13.42-6.32,21.81-24.94,9.17-36.75-6.08-5.68-15.03-7.25-22.78-9.71-1.83-.58-3.65-1.16-5.49-1.72-.4-.12-2.4-1.01-2.74-.84.15-.08,4.91,2.6,2.44,1.09-7.6-4.63-15.61-5.53-24.21-6.52-33.71-3.87-67.96-2.61-101.66.84-11.57,1.19-23.14,2.87-34.54,5.2-12.01,2.45-25.03,5.48-33.78,14.65-9.85,10.32-8.92,29.36,4.69,36.43h0Z" style="fill:currentColor; stroke-width:0px;"/><path d="M1670.75,663.66c4.06,12.65,13.62,21.83,22.77,31,7.51,7.52,14.87,15.19,22.38,22.71,15.02,15.04,31.07,29.12,46.35,43.91,30.35,29.38,60.29,59.27,89.61,89.69,8.26,8.56,16.45,17.18,24.59,25.86,4.07,4.34,8.12,8.69,12.16,13.05,6.35,6.86,12.88,14.81,22.72,16.34,8.39,1.3,15.36.77,22.26-4.57,6.07-4.69,10.47-12.1,10.07-20.06-.58-11.41-5.78-18.9-13.1-27.03-3.56-3.95-7.14-7.9-10.73-11.83-7.18-7.86-14.4-15.68-21.67-23.46-14.54-15.55-29.27-30.93-44.19-46.12-30.04-30.6-61.53-59.84-93.4-88.51-8.88-7.98-18.41-15.23-27.8-22.6-11.09-8.71-23-20.58-37.34-23.07-7.25-1.26-14.09-.27-19.52,5.16-4.9,4.9-7.32,12.78-5.16,19.52h0Z" style="fill:currentColor; stroke-width:0px;"/><path d="M1898.97,911.52c-5.18,10.66-5.57,22.84-6.55,34.48-.06.77-.11,7.04-.29,1.89.13,3.69-.85,8.12-.92,11.97-.09,4.62-.17,9.25-.26,13.87-.17,9.25-.35,18.49-.52,27.74l-.26,13.87c-.22,11.47,3.47,20.04,13.08,26.76-3.6-6.28-7.2-12.56-10.8-18.83,1.03,7.92,2.06,15.85,3.08,23.77.62,4.75.82,9.87,2.36,14.45,1.75,5.17,4.33,7.96,6.32,11.32,4.49,7.61,15.93,7.7,20.4,0,2.03-3.51,4.66-6.04,6.25-11.32,1.4-4.66,1.7-9.64,2.29-14.45l2.92-23.77c-3.6,6.28-7.2,12.56-10.8,18.83,9.07-6.45,13.34-14.67,13.05-25.77-.13-4.95-.26-9.91-.39-14.86-.24-9.25-.48-18.49-.72-27.74-.12-4.62-.24-9.25-.36-13.87-.1-3.73-1.19-8.49-.96-11.97-.26,4.02-.18-.12-.34-1.89-1.06-11.62-1.47-23.85-6.73-34.48-5.56-11.22-24.33-11.35-29.84,0h0Z" style="fill:currentColor; stroke-width:0px;"/><path d="M21.06,907.21c-12.54,20.3-13.85,45.73-14.99,69.03-.58,11.8-1.1,24.64,1.85,36.11,1.25,4.87,1.83,9.94,2.78,14.89.64,3.34,1.37,6.25,2.71,9.41,2.49,5.9,6.84,9.45,11.91,13.09l-7.78-7.78c-.55-2.01-.57-2.29-.06-.83.34.9.68,1.79,1.03,2.68.58,1.49,1.17,2.98,1.77,4.46,1.59,3.93,3.25,7.94,5.4,11.62,3.05,5.23,9.88,12.4,16.65,11.38,6.63-1,10.59-9.35,11.97-15.12.91-3.8,1.28-7.91,1.72-11.77.21-1.9.37-3.82.57-5.72l.21-1.91c.17-2.56.29-2.55.37.03-1.86,3.19-3.72,6.38-5.58,9.57,3.44-3.84,6.52-7.5,7.93-12.63,1.07-3.9,1.03-8.24,1.08-12.28.03-2.56.09-5.12.18-7.68.05-1.64.52-10.59-.22-2.32.4-4.41,1.37-8.62,1.23-13.06-.08-2.57-.19-5.13-.24-7.7-.11-4.81-.08-9.63-.11-14.44-.14-21.43,2.92-42.91-1.96-64.01-1.87-8.08-9.6-14-17.48-15.06-8.4-1.13-16.46,2.78-20.95,10.04h0Z" style="fill:currentColor; stroke-width:0px;"/><path d="M975.31,59.09c1.92,3.25,3.26,6.78,5.3,9.96,2.72,4.24,6.53,8,9.85,11.79,5.52,6.29,11.04,12.57,16.58,18.84,10.44,11.81,20.82,23.66,31.69,35.08,21.92,23.04,44.01,45.93,66.26,68.65,44.06,45,88.86,89.19,134.53,132.56,12.58,11.94,25.21,23.84,37.88,35.68,6.57,6.14,13.15,12.27,19.75,18.39,7.74,7.18,16,13.43,24.75,19.34,6.48,4.38,17.99,4.75,24.42,0,1.33-.87.45-.82-2.62.17-3.65.27-4.11.52-1.38.78,8.8,1.41,16.84-5.11,14.53-14.53-.19-.79-.39-1.59-.58-2.38-.31-1.16-.25-1.06.19.31-.76,2.81-1.52,5.61-2.28,8.42.23-.5.5-.98.82-1.43,6.37-9.71,2.77-21.13-3.78-29.31-4.88-6.1-9.79-11.85-15.51-17.17-6.11-5.69-12.22-11.39-18.31-17.1-11.25-10.55-22.46-21.13-33.63-31.75-22.81-21.69-45.47-43.54-67.98-65.55-45.02-44.03-90.1-87.94-134.23-132.87-12.16-12.38-24.51-24.53-36.94-36.64-6.44-6.27-12.87-12.56-19.28-18.86-3.19-3.14-6.27-6.48-9.61-9.46-4.32-3.85-9.26-6.1-13.97-9.3-6.77-4.6-17.92-2.95-23.4,3.02-5.8,6.32-7.51,15.79-3.02,23.4h0Z" style="fill:currentColor; stroke-width:0px;"/><path d="M1314.92,156.21c1.07.12,2.13.24,3.2.36,6.87.77,13.72-5.52,15.43-11.75,1.83-6.65,1.82-13.83-.25-20.44-5.95,7.81-11.9,15.62-17.84,23.42,13.13.39,26.31-1.33,39.49-1.1,13.22.22,26.43-.89,39.68-.81,12.99.08,25.98.7,38.93,1.73,12.92,1.03,26.33,1.75,39.07,4.19-7.47-1.43,2.1.3,4.08.58,3.33.47,6.67.97,10,1.47,6.98,1.05,13.95,2.16,20.92,3.31,13.07,2.15,26.12,4.43,39.18,6.69,28.21,4.9,56.42,9.68,84.85,13.15,7.32.89,14.66,1.7,22,2.4,1.86.18,3.63.38,5.5.28,2.37-.32,4.74-.64,7.12-.96,2.81-.52,2.27-.4-1.62.37.04-.25,9.67.01,11,0,8.58-.07,18.02.55,26.42-1.36,4.82-1.1,7.84-3.71,11.64-6.55-4.65,3.49-.61.75.62.05,3.21-1.84,6.39-3.74,9.55-5.66,7.58-4.61,7.97-16.21,0-20.72-2.75-1.56-5.48-3.13-8.19-4.75-.34-.2-2.74-1.62-2.73-1.64-.43.86,6.09,3.19-3.85-2.92-7.98-4.91-18.83-4.44-27.96-5.59-1.33-.17-7.64-.68-.67-.07-1.5-.13-3.01-.42-4.5-.64-3.4-.49-6.43-1.26-9.72-2.14-8.08-2.17-17.12-2.09-25.45-3.02-6.51-.73-13.83-.81-20.16-2.47.59.16,6.53.9,1.68.22-3.61-.51-7.23-.99-10.84-1.47-.56-.07-6.63-.94-1.92-.25,4.71.7-2.96-.41-3.76-.53-13.48-1.88-26.93-3.93-40.38-5.99-54.44-8.37-109.25-17.5-164.48-17.5-16.08,0-33.05-.08-48.81,3.32-15.54,3.35-31.7,6.83-46.02,13.9-10.76,5.32-11.77,21.16-3.75,29.06,2.25,2.22-.18-.82-.6-1.76.39,1.65.51,1.87.38.66-.15-2.15.03-.98.53,3.53,1.77,5.47,6.31,10.72,12.23,11.39h0Z" style="fill:currentColor; stroke-width:0px;"/><path d="M968.84,67.44c2.82-1.54,6.4-4.53,9.52-5.18,1.72-.36,4.67.45,6.47.66-2.46-.67-4.93-1.33-7.39-2l.34.22c4.55,2.85,12.16,3.33,16.66,0,1.46-1.08,2.96-2.08,4.47-3.08,7.73-5.13,11.77-15.91,6.37-24.29-5.41-8.39-15.47-10.97-24.29-6.37-10.73,5.61-20.31,12.18-29.89,19.59-4.05,3.13-8.1,6.27-12.15,9.41-2.02,1.57-4.05,3.14-6.07,4.71-.99.77-2.08,1.53-3.03,2.36,4.97-4.33-3.48,2.72-4.51,3.57-16.17,13.44-32.05,27.25-48.03,40.93-32.67,27.98-65,56.27-96.93,85.09-63.32,57.15-126.1,114.91-188.42,173.14-62.56,58.45-124.06,117.97-184.99,178.1-60.7,59.9-120.83,120.37-180.38,181.42-29.77,30.52-59.4,61.18-88.89,91.99s-59.29,62.29-86.83,95.36c-7.65,9.19-12.34,20.36-18.05,30.85-4.04,7.43-3.45,17.87,3.08,23.86s16.28,7.87,23.86,3.08c10.12-6.4,21.49-11.79,30.2-20.04,7.86-7.43,15.69-14.9,23.54-22.34,15.21-14.4,29.3-30.15,43.89-45.18,29.91-30.83,59.53-61.94,89.49-92.72,59.49-61.1,119.55-121.64,180.19-181.6,60.86-60.18,122.46-119.61,183.98-179.13,61.28-59.29,123.18-117.92,185.68-175.92,31.24-28.99,62.67-57.77,93.71-86.98,31.25-29.42,62.93-58.32,93.19-88.76,1.79-1.8,3.64-3.55,5.39-5.39,1.27-1.34,5.93-7.31,3.57-4.4-1.66,2.05.89-1.07,1.27-1.54,4.01-4.95,7.78-9.94,11.43-15.15-10.22-5.97-20.44-11.95-30.65-17.92-.9,1.62-1.78,3.22-2.76,4.79-2.88,4.63-3.27,12.07,0,16.66-1.23-1.73-.29-2.64-.67-.6-.22,1.18.07,1.19-.37,2.56-.92,2.89-2.55,5.7-3.78,8.47-.52,1.16.56,2.47,1.8,1.8h0Z" style="fill:currentColor; stroke-width:0px;"/><path d="M1603.24,168.74c5.2,18.38,19.92,32.25,32.83,45.54,6.54,6.73,13.97,12.2,20.81,18.65,6.7,6.31,13.77,14.27,22.06,18.47,2.04,1.03,5.38-.74,4.34-3.33-3.39-8.45-10.18-15.85-15.77-22.94-2.88-3.65-6.06-7.21-8.7-11.03-1.6-2.31-2.43-4.83-4.23-7.05-1.46-1.81-3.05-3.54-4.56-5.3-12.26-14.24-24.75-30.03-42.8-36.97-2.36-.91-4.6,1.78-3.98,3.98h0Z" style="fill:currentColor; stroke-width:0px;"/><path d="M1432.94,132.61l2.32,1.65c.55-.78,1.21-.94,1.97-.48,1.57,0,3.44,1.2,4.72,2.04,2.26,1.47,4.18,3.5,6.09,5.38,3.95,3.91,8.28,7.31,12.49,10.93,9.18,7.87,17.14,17.16,25.87,25.52,17.1,16.37,35.11,31.78,52.48,47.85,35.04,32.43,69.66,65.26,103.78,98.66,4.68,4.58,9.35,9.19,14,13.81s9.77,8.7,14.64,13.17c5.06,4.64,10.11,9.31,15.13,13.99,5.06,4.72,9.82,9.95,16.19,12.85,4.99,2.28,13.04-1.64,10.54-8.1-2.63-6.79-7-11.68-11.67-17.16s-8.95-10.46-13.46-15.66c-4.55-5.25-8.6-10.63-13.47-15.65-4.78-4.92-9.59-9.83-14.41-14.71-19.32-19.56-39.16-38.48-59.49-57-40.46-36.86-81.7-73.15-127.39-103.43-6.1-4.05-11.49-9.75-18.17-12.86-5.12-2.39-12.05-5.47-17.76-5.71-3.22-.13-6.52,2.1-7.48,5.27-.95,3.15,1.28,5.4,4.44,4.52,3.19-.88,1.81-5.44-1.35-4.88h0Z" style="fill:currentColor; stroke-width:0px;"/><path d="M1333.21,138.67l.87-.86,3.62-.47c-.58-.12-2.54,6.02-2.52,6.12.13.62.83,1.43,1.11,2.01.93,1.89,1.65,3.89,2.56,5.79,2.14,4.49,5.59,7.72,9.1,11.16,6.14,6.01,12.33,11.88,18.77,17.58,12.62,11.18,25.2,22.4,37.94,33.44,25.74,22.31,51.28,44.86,76.61,67.64,50.44,45.37,99.59,92.06,148.89,138.66,13.89,13.13,27.7,26.33,41.45,39.6,14.19,13.69,27.54,29.38,45.55,38.06-.73-5.69-1.47-11.38-2.2-17.07-2.01,2.58-5.31,3.51-8.61,3.05-3.8-.53-9,3.55-5.88,7.64,6.22,8.15,15.37,9.77,25.05,7.47,7.3-1.73,9.39-9.92,6.49-15.96-8.5-17.77-23.94-30.86-37.65-44.61-13.49-13.53-27.05-26.98-40.68-40.37-27.26-26.77-55.29-52.77-83.4-78.65-55.93-51.49-112.4-102.92-171.38-150.91-8.61-7.01-17.1-14.28-26.11-20.77-4.33-3.12-8.58-6.47-13.07-9.37-4.72-3.05-10.23-3.87-15.55-5.34-3.96-1.09-8.24-2.11-11.98.19-2.95,1.81-4.52,5.19-3.33,8.55,1.9,5.33,11.24,8.16,12.57.89.87-4.77-5.57-8.18-8.22-3.47h0Z" style="fill:currentColor; stroke-width:0px;"/><path d="M1326.62,272.72c1.2,4.05,2.55,7.58,5.16,10.98,2.77,3.61,6.78,6.96,10.21,9.96,7.18,6.28,14.61,12.18,22.15,18.01,13.93,10.77,27.68,21.76,41.29,32.93,27.77,22.81,54.86,46.42,81.25,70.81,52.78,48.77,102.82,100.65,149.86,154.98,6.67,7.71,13.95,14.87,20.69,22.58,6.5,7.44,12.61,15.4,19.41,22.56,3.4,3.59,7.43,6.52,10.84,10.12,3.4,3.58,6.79,7.18,10.16,10.78,7.19,7.69,14.63,14.78,22.39,21.89,4.65,4.26,11.45-1.06,8.61-6.65-4.11-8.09-8.16-15.95-13.13-23.55-4.9-7.51-10.18-14.83-14.57-22.65-9.09-16.19-23.02-29.52-34.13-44.32-10.48-13.96-23.28-27.94-35.43-41.29-12.19-13.4-24.56-26.65-37.21-39.62-50.62-51.91-104.27-100.85-160.62-146.48-16.3-13.2-32.84-26.13-49.56-38.79-7.93-6.01-15.84-11.87-24.21-17.24-4.42-2.84-8.96-5.37-13.61-7.82-4.93-2.59-9.6-3.26-15.07-3.07-2.95.1-5.36,2.89-4.47,5.87h0Z" style="fill:currentColor; stroke-width:0px;"/><path d="M913.1,107.04c2.83,3.68,5.46,7.73,8.62,11.13,3.83,4.12,8.28,7.84,12.53,11.51,7.89,6.8,15.77,13.62,23.74,20.34,16.18,13.66,32.3,27.4,48.47,41.07,32.17,27.19,64.58,54.02,97.11,80.78,65.34,53.77,130.04,108.31,194.35,163.3,64.32,55,128.08,110.67,191.25,166.99,63.17,56.32,125.75,113.3,187.74,170.92,31.11,28.92,62.07,58,92.88,87.24,30.64,29.08,60.77,58.65,93.84,84.98,8.17,6.5,16.38,12.92,24.74,19.17,2.46,1.84,6.28.61,7.98-1.59,2.02-2.62,1.46-5.67-.48-8.12-13.19-16.67-26.8-33.22-41.63-48.46s-29.9-30.14-45.29-44.79c-30.53-29.07-61.22-57.98-92.05-86.74-61.9-57.72-124.39-114.8-187.47-171.23-62.85-56.22-126.27-111.78-190.27-166.68-64-54.91-128.71-109-193.94-162.45-33.14-27.16-66.2-54.45-100.24-80.48-33.35-25.5-66.8-50.92-100.85-75.48-4.1-2.96-8.27-5.71-12.5-8.48-4.47-2.93-9.59-4.81-14.48-6.96-2.32-1.02-6.07,1.4-4.04,4.04h0Z" style="fill:currentColor; stroke-width:0px;"/><path d="M829.29,203.74c15.53,9.89,29.69,21.58,44.59,32.32,14.69,10.59,29.14,21.55,43.22,32.94,29.17,23.59,58.29,47.22,87.18,71.15,59.79,49.52,119.46,99.18,178.48,149.62s118.12,101.81,176.63,153.35c58.28,51.34,116.06,103.24,173.33,155.7,28.52,26.12,56.91,52.38,85.18,78.77,28.57,26.68,56.81,54.33,88.45,77.42,3.54,2.58,7.06,5.18,10.6,7.75,4.05,2.94,8.58,5,13.03,7.29,2.94,1.51,6.35-1.58,4.62-4.62-9.62-16.86-22.77-31.07-35.96-45.23-13.3-14.28-27-28.07-41.24-41.44-28.44-26.68-57-53.22-85.7-79.62-57.62-53.02-115.76-105.48-174.41-157.37-58.42-51.69-117.42-102.69-177.05-152.98-59.89-50.5-120.26-100.42-181.12-149.74-29.78-24.14-59.72-48.14-90.03-71.62-14.73-11.41-29.83-22.27-45.38-32.54-7.51-4.96-15.2-9.57-23.04-14-8.12-4.59-16.84-8.05-25.39-11.77-7.95-3.45-16.27-6.18-24.47-8.98-2.18-.74-3.34,2.44-1.52,3.6h0Z" style="fill:currentColor; stroke-width:0px;"/><path d="M1652.06,911.28c21.67,20.07,43.34,40.14,65.01,60.21,10.71,9.92,21.43,19.85,32.14,29.77,5.36,4.96,10.71,9.92,16.07,14.88,5.35,4.95,10.7,10.42,17.13,13.93,3.51,1.92,8.21-2.1,5.77-5.77-3.88-5.85-9.29-10.5-14.45-15.2l-16.21-14.75c-11.05-10.06-22.1-20.11-33.15-30.17-21.85-19.89-43.7-39.78-65.56-59.67-4.54-4.13-11.29,2.56-6.76,6.76h0Z" style="fill:currentColor; stroke-width:0px;"/><path d="M758.31,286.38c31.37,25.89,62.44,52.18,94.28,77.49,31.92,25.38,63.69,50.95,95.29,76.73,62.97,51.36,125.39,103.42,187.2,156.16,62.06,52.96,123.46,106.69,184.18,161.19,60.48,54.29,120.29,109.33,179.39,165.11,29.67,28,59.16,56.18,88.47,84.55,29.32,28.38,57.83,57.72,89.07,83.99,3.85,3.24,7.65,6.58,11.6,9.7,4.08,3.23,8.86,5.26,13.48,7.58,6.12,3.07,12.33-3.1,9.24-9.24-2.33-4.63-4.37-9.38-7.61-13.45-3.33-4.19-6.9-8.19-10.38-12.25-6.55-7.67-13.03-15.31-20.1-22.5-14.31-14.54-28.79-28.89-43.4-43.13-29.23-28.46-58.63-56.74-88.21-84.83-59.16-56.18-119.03-111.62-179.58-166.3-60.55-54.68-121.79-108.6-183.69-161.74-61.91-53.15-124.5-105.5-187.87-156.9-63.72-51.69-127.7-103.12-194.22-151.19-8.11-5.86-16.23-11.7-24.35-17.54-9.64-6.92-22.02,8.94-12.78,16.56h0Z" style="fill:currentColor; stroke-width:0px;"/><path d="M681.27,360.26c13.79,16.6,29.74,31.12,46.02,45.27,16.28,14.16,32.53,28.34,48.76,42.56,32.24,28.23,64.82,56.07,97.2,84.14,65.02,56.37,129.65,113.17,193.89,170.42,64.25,57.25,128.27,114.78,191.98,172.64,63.72,57.87,127.04,116.17,189.96,174.89,62.92,58.73,125.45,117.88,187.57,177.46,8.11,7.78,17.12,13.51,27.05,18.62,8.01,4.12,17.14-4.28,12.51-12.51-5.63-9.98-11.85-18.89-20.17-26.87-7.68-7.36-15.36-14.72-23.05-22.07-15.61-14.92-31.25-29.82-46.92-44.69-31.33-29.74-62.76-59.37-94.29-88.9-62.83-58.83-126.06-117.23-189.68-175.2-63.63-57.98-127.65-115.51-192.29-172.35-64.9-57.06-130.19-113.68-195.86-169.85-32.59-27.88-65.18-55.77-98.06-83.3s-66.73-55.78-101.4-81.88c-8.48-6.38-17.15-11.98-26.38-17.21-5.82-3.29-10.78,4.07-6.82,8.83h0Z" style="fill:currentColor; stroke-width:0px;"/><path d="M597.87,426.93c29.51,35.74,64.13,67.65,98.72,98.42,34.78,30.95,69.34,62.14,104.12,93.08,69.6,61.9,138.87,124.15,207.82,186.77,68.7,62.39,137.07,125.14,205.11,188.24,68.3,63.35,136.65,126.63,204.51,190.46,33.68,31.68,67.27,63.45,100.78,95.3,33.73,32.06,66.63,65.23,101.27,96.29,4.34,3.89,8.6,7.88,13.02,11.68,4.81,4.12,10.73,6.47,16.38,9.25,9.49,4.67,19.88-4.86,14.62-14.62-2.93-5.43-5.5-11.37-9.67-15.96-3.9-4.3-8.12-8.36-12.17-12.53-8.12-8.35-16.56-16.37-24.97-24.43-16.82-16.11-33.66-32.2-50.51-48.27-33.72-32.13-67.52-64.18-101.41-96.14-67.77-63.91-135.88-127.47-204.31-190.68-68.44-63.21-137.62-125.64-206.93-187.9-69.32-62.26-138.96-124.17-208.92-185.7-34.99-30.78-70.25-61.25-105.57-91.65-35.37-30.44-70.87-61.16-109.12-87.97-9.43-6.61-18.85-12.99-28.69-18.96-3.47-2.1-6.42,2.48-4.09,5.3h0Z" style="fill:currentColor; stroke-width:0px;"/><path d="M1162.49,1971.1c4.69,4.76,9.7,7.46,16.52,7.87,3.59.22,7.2-.04,10.79.28,7.86.7,15.64-.68,23.52-1.24,14.63-1.05,29.22-2.6,43.88-3.37,30.31-1.6,60.64-.39,90.93,1.12,61.08,3.05,122.22,9.66,183.44,6.17,17.08-.97,34.05-2.96,51-5.2,19.83-2.62,39.76-4.59,59.57-7.33-2.66.36-5.32.72-7.99,1.07,13.91-1.86,28.46-2.27,41.87-6.7,3.84-1.27,7.45-3.19,11.08-4.95,1.18-.57,2.34-1.11,3.48-1.76.65-.41,1.31-.81,1.97-1.2l-.94.83c-2.02.11,1.58-.18,2.15-.25,3.04-.37,5.51-.58,8.32-2.1s5.53-3.64,6.97-6.53c-2.02,1.55-4.03,3.1-6.05,4.65,1.67-.46,3.19-1.08,4.8-1.71,4.97-1.94,7.08-7.73,3.14-11.91-1.14-1.21-2.17-2.29-3.48-3.31.99,2.39,1.98,4.77,2.97,7.16-.73-7.32-4.98-12.21-11.6-15.05-1.81-.77-3.62-1.64-5.48-2.31-4.56-1.64,1.93.94,1.77,1.15.27-.36-7.31-5.56-8.73-6.48-12.04-7.72-27.72-9.86-41.77-9.82-24.76.08-49.4,4.62-73.87,7.92,2.67-.36,5.33-.72,8-1.07-27.77,3.71-55.52,5.88-83.55,5.99-27.82.11-55.62-1.31-83.39-2.96-54.57-3.24-109.21-7.18-163.79-1.76-17.29,1.72-34,4.38-50.69,9.24-5.01,1.46-10.18,2.81-14.83,5.22-3.13,1.62-6.09,3.6-9.17,5.33-6.51,3.65-11.64,7.53-14.07,14.91-2.09,6.35-1.71,13.05,3.25,18.08h0Z" style="fill:currentColor; stroke-width:0px;"/><path d="M530.49,507.8c8.62,9.63,16.87,19.69,26.15,28.69,9.28,9,18.46,18.11,27.81,27.03,18.7,17.86,37.8,35.33,56.68,53,38.07,35.62,76.96,70.38,115.51,105.47,76.42,69.54,152.71,139.24,229.41,208.48,75.19,67.89,150.5,135.67,225.41,203.87,73.59,67,146.74,134.48,218.73,203.19,71.96,68.68,142.78,138.58,211.63,210.38,8.63,9,17.03,18.11,26.37,26.38,3.8-9.17,7.6-18.34,11.39-27.51-5.62-.18-10.48.62-15.63,2.93-3.14,1.41-6.25,2.86-9.38,4.29-3.98,1.82-4.98,8.72-1.48,11.48,2.67,2.11,5.34,4.22,8.01,6.32,4.49,3.53,8.68,5.45,14.19,6.62,7.05,1.49,14.44-.99,18.2-7.4s1.98-13.84-2.52-19.53c-15.37-19.43-33.75-36.74-51.01-54.49-17.59-18.09-35.3-36.07-53.11-53.95-35.11-35.23-70.63-70.05-106.47-104.54-71.96-69.26-145.18-137.21-218.92-204.57-74.46-68.03-149.43-135.51-224.29-203.1-76.98-69.51-154.28-138.67-231.53-207.88-77.19-69.15-153.97-138.75-233.3-205.43-9.96-8.37-20.95-15.58-31.47-23.22-8.24-5.98-16.56,6.58-10.4,13.47h0Z" style="fill:currentColor; stroke-width:0px;"/><path d="M460.68,587.03c9.18,10.79,18.2,21.7,27.86,32.04s20.05,19.88,30.26,29.65c20.42,19.52,40.8,39.09,61.13,58.7,40.68,39.24,81.63,78.18,122.41,117.31,81.28,78,161.84,156.75,241.68,236.23,79.84,79.48,158.84,159.79,237.41,240.53,78.84,81.02,156.93,162.76,234.27,245.21,38.4,40.94,76.62,82.05,114.64,123.34,38.01,41.26,75.13,83.42,114.73,123.16,5.02,5.03,10.31,9.64,15.86,14.07s10.07,9.96,14.88,15.05c10.56,11.18,26.49-5.29,16.71-16.71-4.41-5.15-9.08-10.1-12.77-15.78-4.1-6.3-8.5-12.24-13.27-18.06-8.99-10.97-18-21.86-27.4-32.48-18.75-21.15-37.87-41.97-56.97-62.81-38.18-41.68-76.56-83.18-115.12-124.51-77.13-82.65-155.01-164.6-233.64-245.82-78.35-80.94-157.67-160.94-237.67-240.26-80.28-79.6-161.29-158.46-243.01-236.57-40.57-38.78-81.02-77.75-122.39-115.67-20.84-19.11-41.73-38.17-62.66-57.18s-41.36-38.77-63.43-56.4c-11.05-8.83-22.64-16.95-34.14-25.21-7.57-5.44-14.69,5.89-9.37,12.15h0Z" style="fill:currentColor; stroke-width:0px;"/><path d="M363.94,659.49c8.68,13.08,18.9,25.21,28.87,37.32,10.17,12.35,21.04,24.18,32.36,35.5,22.62,22.62,45.24,45.24,67.86,67.85,44.78,44.77,90.48,88.59,135.97,132.63,91.46,88.56,183.06,176.97,274.71,265.32,25.43,24.52,50.87,49.03,76.3,73.55,12.96,12.49,25.91,24.98,38.87,37.47,13.41,12.92,26.78,25.5,42.44,35.72,10.51,6.86,25.21-7.08,17.7-17.7-18.73-26.48-44.05-47.82-67.3-70.23-23.03-22.2-46.07-44.41-69.1-66.61-45.59-43.95-91.18-87.89-136.77-131.84-45.59-43.95-91.3-87.77-136.99-131.61-46.16-44.3-91.89-89.12-138.76-132.67-25.89-24.06-51.78-48.12-77.67-72.18-13.35-12.4-26.76-25.12-41.33-36.09-14.01-10.55-27.75-21.71-42.73-30.87-2.69-1.64-6.24,1.7-4.43,4.43h0Z" style="fill:currentColor; stroke-width:0px;"/><path d="M1177.11,1444.39c.27,2.02.02,4.37.55,6.3.6,2.18,2.16,4.08,3.25,6.05,2.71,4.9,5.48,9.21,9.08,13.54,6.36,7.65,13.42,14.66,20.31,21.84,13.77,14.34,28.07,28.13,42.2,42.11,28.26,27.96,56.19,56.22,84.14,84.49,55.89,56.53,110.99,113.83,165.18,172,30.58,32.83,60.2,66.59,90.95,99.25-1.36-5.14-2.72-10.28-4.07-15.42-.51,1.81-.17,1.42,1.01-1.15,2-3.28,1.6-2.94-1.22,1.01-1.54,2.92-1.87,5.77-2.29,9.03,2.69-1.55,5.39-3.09,8.08-4.64l-.93-.45c-4.38-2.11-9.62,2.29-6.93,6.93l.47,1.26c3.31,10.88,18.05,15.96,26.32,6.95,4.47-4.87,8.22-12.16,6.03-18.95-1.97-6.07-7.56-10.93-11.76-15.6-6.87-7.62-13.75-15.22-20.65-22.82-13.8-15.18-27.65-30.31-41.56-45.39-27.83-30.15-55.89-60.08-84.19-89.8-56.6-59.43-114.16-117.9-172.86-175.25-16.48-16.11-32.71-32.65-49.86-48.05-8.52-7.65-16.83-15.8-25.81-22.92-4.63-3.67-9.26-7.47-14.6-10.02-2.54-1.21-4.97-2.65-7.5-3.86-2.81-1.35-5.57-1-8.58-1.23-2.34-.19-5.1,2.35-4.78,4.78h0Z" style="fill:currentColor; stroke-width:0px;"/><path d="M294.88,725.02c3.53,6.15,5.96,13.36,10.48,18.78s9.47,11.1,14.33,16.52c9.74,10.86,19.42,21.65,29.82,31.89,20.48,20.19,40.92,40.42,61.49,60.52,41.39,40.43,82.68,80.95,124.45,121,83.06,79.64,165.91,159.5,248.56,239.57,23.27,22.55,46.53,45.11,69.77,67.7,11.38,11.06,22.63,22.27,34.21,33.12,12.35,11.56,24.16,25.18,39.22,33.06,12.12,6.34,25.72-6.51,18.86-18.86-7.41-13.32-19.12-23.32-29.77-34.09-10.23-10.35-20.7-20.44-31.14-30.58-20.63-20.05-41.27-40.09-61.93-60.11-41.55-40.28-83.15-80.5-124.8-120.67-82.84-79.89-165.74-159.7-249.94-238.16-23.72-22.1-47.54-44.09-71.42-66.03-11.76-10.81-23.69-21.16-36.11-31.21-6.37-5.16-12.79-10.24-19.29-15.25-3.28-2.53-6.17-4.86-10.06-6.37-4.18-1.63-8.12-3.41-12.12-5.44-2.94-1.49-6.37,1.57-4.62,4.62h0Z" style="fill:currentColor; stroke-width:0px;"/><path d="M1187.56,1606.01c-.67,2.55-1.6,5.11-1.24,7.76.32,2.39,1.65,4.64,2.64,6.82,1.81,3.98,3.95,7.74,6.41,11.37,5.38,7.95,12.2,15.14,18.32,22.53,12.09,14.61,24.29,29.11,36.51,43.61,24.21,28.74,48.42,57.47,72.63,86.21,6.66,7.9,13.65,15.33,20.72,22.85,7.51,7.99,15.02,19.08,25.58,22.84l-4.84-2.82c10.03,9.71,20.14,19.21,30.68,28.36,4.94,4.29,13.33-1.19,9.5-7.33-5.56-8.92-11.3-17.63-17.31-26.25-1.47-2.11-3.22-4.23-4.5-6.46-1.68-2.93-2.22-5.28-4.31-7.99-3.27-4.22-6.55-8.45-9.82-12.67-6.54-8.44-12.74-17.18-19.73-25.25-6.96-8.03-13.92-16.07-20.88-24.1-27.83-32.14-55.44-64.48-83.52-96.4-7.67-8.72-15.37-17.43-23.05-26.15-3.98-4.51-8.07-8.61-12.78-12.36-2.24-1.79-4.63-3.5-7.1-4.97-3.99-2.37-6.46-2.2-11.05-1.78-1.3.12-2.5.83-2.85,2.17h0Z" style="fill:currentColor; stroke-width:0px;"/><path d="M217.09,817.36c-.04.4-.24.21-.58-.55-.87,1.36-2.19,1.96-3.97,1.8l-4.09-3.15c2.02,4.22,4.89,3.82,8.48,5.21-2.87-1.11,1.92,2.46,2.41,2.96,4.52,4.63,8.93,9.39,13.48,14,9.11,9.24,18.21,18.46,27.6,27.41,19.02,18.13,37.96,36.34,57.28,54.14,38.16,35.18,76.33,70.36,114.49,105.54,76.83,70.83,154.56,140.7,231.93,210.95,21.68,19.69,43.37,39.38,65.05,59.07,10.59,9.62,21.04,19.44,31.98,28.67,5.61,4.73,11.19,9.5,16.83,14.2,6.7,5.58,13.58,8.35,22.09,9.82,5.37.93,10.52-3.22,9-9-1.81-6.83-4.19-13.31-8.93-18.74-4.34-4.97-9.47-9.41-14.17-14.04-9.47-9.36-19.28-18.32-29.09-27.33-19.12-17.55-38.23-35.11-57.35-52.66-38.72-35.56-77.45-71.12-116.17-106.68-76.98-70.69-154.29-140.98-231.79-211.09-21.99-19.89-44.22-39.47-66.54-58.99-11.06-9.68-22.29-19.09-33.64-28.41-11.04-9.07-21.55-20.72-36.98-18.6-5.14.7-7.9,7.31-6.68,11.76-.86-3.15.55,1.86.78,2.26.62,1.07,1.4,1.51,2.24,2.33.22.21,1.54,1.31.72.5.73.71,1.24,1.52,2.09,2.13,2.81,2.03,6.05,1.5,7.16-1.99.68-2.14-2.5-3.45-3.6-1.52h0Z" style="fill:currentColor; stroke-width:0px;"/><path d="M1199.62,1786.15c8.86,16.41,23.05,29.87,35.72,43.37,12.03,12.81,24.09,25.59,36.03,38.48,11.67,12.6,22.72,25.83,34.6,38.22,3.02,3.15,6.01,6.32,8.98,9.51,3.17,3.41,6.31,5.66,9.97,8.5,6.44,4.99,12.69,14.39,21.14,15.84,5.26.9,9.3-2.11,9.79-7.46.77-8.43-6.67-17.12-10.5-24.14-1.06-1.94-1.79-4.64-3.12-6.73s-3.14-4.06-4.65-5.99c-2.71-3.45-5.45-6.87-8.22-10.27-11-13.53-23.72-25.78-35.99-38.15-12.59-12.69-25.3-25.25-37.98-37.85-13.12-13.04-26.14-27.47-42.29-36.79-8.71-5.03-18.09,4.9-13.47,13.47h0Z" style="fill:currentColor; stroke-width:0px;"/><path d="M108.2,887.23c17.3,23.37,38.78,42.56,60.22,62.1,20.83,18.98,41.51,38.14,62.43,57.03,42.35,38.23,84.46,76.72,126.68,115.09,83.97,76.32,167.82,152.77,251.04,229.92,23.57,21.85,47.1,43.74,70.59,65.67,11.51,10.74,22.97,21.53,34.57,32.18,5.84,5.36,12.16,10.08,18.3,15.08,7.09,5.78,13.67,11.23,21.9,15.31,9.3,4.62,20.2-4.92,14.62-14.62-7.34-12.77-18.31-23.18-28.34-33.9-9.82-10.49-20.87-20-31.37-29.82-20.6-19.27-41.22-38.5-61.88-57.7-41.79-38.85-83.7-77.58-125.73-116.18-83.59-76.77-167.75-152.87-252.66-228.18-24.06-21.34-48.35-42.42-72.64-63.49-24.43-21.19-48.46-43.55-76.75-59.46-6.47-3.64-15.99,4.18-10.97,10.97h0Z" style="fill:currentColor; stroke-width:0px;"/><path d="M245.02,1189.18c.19,0,.19-.3,0-.3s-.19.3,0,.3h0Z" style="fill:currentColor; stroke-width:0px;"/><path d="M230.07,1175.04c-1.47,6.21-.47,10.46,3.7,15.31s8.17,9.57,12.5,14.09c8.41,8.8,17.62,16.95,26.41,25.38,17.63,16.91,35.3,33.75,53.21,50.37,35.33,32.79,70.48,65.79,106,98.38,71.54,65.66,142.79,131.63,213.76,197.9,19.04,17.77,38.46,35.15,57.41,53,8.85,8.34,18.19,16.13,26.81,24.73,4.04,4.03,7.95,8.19,11.62,12.56,1.77,2.11,3.35,4.69,5.38,6.55,2.36,2.17,5.67,2.82,8.62,3.88,2.14.77,4.88-.88,5.36-3.04s1.29-4.87,1.29-7.17c0-2.75-1.43-5.31-2.61-7.71-2.52-5.14-5.41-10.13-8.43-14.99-5.91-9.51-12.73-18.36-19.88-26.96-14.75-17.72-32.61-33.28-49.36-49.06-35.81-33.74-71.7-67.41-107.66-100.99-72.18-67.42-144.65-134.47-218.05-200.55-20.65-18.59-41.46-36.94-62.49-55.08-10.39-8.96-20.51-18.52-31.42-26.83-5.43-4.13-11.11-9.09-17.06-12.42-3.33-1.86-13.8-2.81-15.1,2.65h0Z" style="fill:currentColor; stroke-width:0px;"/><path d="M266.79,1375.29c32.82,33.81,68.74,64.41,103.56,96.13,34.86,31.76,69.34,63.92,103.45,96.49,68.47,65.38,136.09,131.54,201.84,199.67,18.34,19,36.83,37.85,55.21,56.82,9.19,9.48,18.57,18.75,28.09,27.91,4.73,4.55,10.21,8.48,15.12,12.87,5.32,4.75,10.57,9.24,16.49,13.24,7.41,5.01,15.68-4.63,11.74-11.74-5.66-10.2-13.29-19.33-19.97-28.88-7.06-10.09-15.91-19.58-24.19-28.68-15.87-17.45-31.71-34.96-48.04-51.98-32.87-34.26-66.15-68.13-99.83-101.6-66.93-66.53-135.54-131.25-205.89-194.15-40.13-35.89-80.05-72.48-123.94-103.77-10.65-7.59-22.28,8.76-13.63,17.67h0Z" style="fill:currentColor; stroke-width:0px;"/><path d="M262.63,1593.04c3.38-3.87,5.47-7.87,5.01-13.14-.53-6.03-3.01-10.7-7.17-15.08-5.24,5.24-10.47,10.47-15.71,15.71,5.76,7.41,11.78,14.15,18.45,20.76,6.79,6.74,14.01,13.08,21.03,19.58,13.81,12.8,27.55,25.69,41.54,38.28,27.76,24.99,55.45,50.07,82.97,75.33,54.7,50.2,108.55,101.29,162.1,152.7,15.09,14.49,30.13,29.03,45.11,43.63,7.24,7.05,14.24,14.48,21.76,21.23,4.34,3.89,9.43,7.12,14.15,10.55,2.75,2,5.69,3.67,9.11,4.13,1.93.26,3.52.04,5.44-.24,2.03-.3-.09.14-.73-.4,3.45,2.87,8.75,1.98,10.11-2.67.39-1.35.59-2.73.54-4.13-.03-.83-.18-1.73-.33-2.54.29,1.57-.17,1.29-.06.21.76-7.63-1.89-11.78-6.21-17.56-3.13-4.19-6.1-8.64-9.78-12.36-3.44-3.49-6.99-6.88-10.48-10.32-13.52-13.29-27.09-26.53-40.7-39.73-26.99-26.17-54.27-52.03-81.72-77.72-55.45-51.88-111.68-102.9-168.38-153.41-15.82-14.09-31.82-27.94-47.92-41.72-16.93-14.49-33.41-29.55-52.54-41.07-10.56-6.36-23.2,9.05-13.46,17.45,3.29,2.84,6.08,7.31,7.93,11.23,1.68,3.56,7.41,4.18,9.94,1.28h0Z" style="fill:currentColor; stroke-width:0px;"/><path d="M244.11,1737.53h-.48c1.33.54,2.66,1.09,3.99,1.64l-.28-.33,1.76,4.25-2.91,4.34-4.02,1.09.52-.03-4.27-1.15.87.51-3.36-3.36c-.79-1.47-.13.44-.08.69.23,1.12,1.37,3.44,2.14,4.66,1.65,2.62,3.92,4.88,6.05,7.1,4.15,4.31,8.3,8.59,12.61,12.73,7.9,7.59,15.79,15.18,23.69,22.77,16.04,15.42,32.23,30.65,48.53,45.79,16.06,14.91,32.11,29.83,48.17,44.74,8.03,7.46,16.03,14.94,24.09,22.37,7.99,7.37,16.81,13.98,24.55,20.49,8.71,7.33,17.06,15.06,25.7,22.46,2.04,1.75,4.05,3.52,6.04,5.33,2.64,2.4,5.27,3.96,8.25,5.8,3.71,2.3,7.63,7.34,11.88,10.09,4.68,3.02,9.96-1.95,8.88-6.83-1.25-5.63-4.52-10.12-6.75-15.33-1.07-2.5-1.81-4.89-3.37-7.2-1.96-2.91-4.09-5.72-6.21-8.52-7.15-9.44-15.58-17.91-23.83-26.39-4.17-4.29-7.92-8.97-12.12-13.21-4.89-4.95-10.17-9.57-15.3-14.27-9.3-8.53-18.6-17.06-27.9-25.6-38.2-35.05-76.53-69.9-115.33-104.29-5.73-5.08-11.67-10.69-18.07-14.91s-16.69-5.53-21.63,2.05c-7.5,11.52,12.04,20.17,13.39,7.71.31-2.83-2.63-5.16-5.2-5.2h0Z" style="fill:currentColor; stroke-width:0px;"/><path d="M1220.62,1690.13c5.24,10.2,14.52,18.33,23.08,25.87s16.25,14.45,24.27,21.8c16.5,15.12,33.09,30.14,49.26,45.62,32.33,30.97,63.47,63.28,93.52,96.47,4.27,4.71,8.54,9.41,12.83,14.1,4.9,5.36,8.72,8.55,13.45,13.46,8.93,9.26,18.53,17.92,30.2,23.65,5.67,2.79,12.75-1.82,10.95-8.42-3.02-11.09-8.62-21.38-15.57-30.42-7.39-9.6-13.82-18.56-22.11-28.01-14.96-17.04-30.53-33.65-46.52-49.73-31.94-32.13-64.98-63.73-100.05-92.45-9.63-7.89-19.35-15.66-29.15-23.32-10.5-8.21-21.71-17.51-34.79-20.82-7.25-1.83-12.66,5.79-9.37,12.19h0Z" style="fill:currentColor; stroke-width:0px;"/><path d="M1685.36,1735.26c-3.92,2.62-8.17,4.99-11.65,8.19-3.62,3.32-6.83,7.18-10.24,10.71-6.7,6.92-12.96,14.11-19.25,21.4-12.78,14.8-25.66,29.52-38.57,44.2s-25.64,28.75-38.76,42.86c-13.25,14.24-25.63,28.44-38.83,42.87-3.8,4.15-6.89,8.9-10.52,13.21-3.41,4.05-6.84,8.09-10.29,12.12-3.66,4.28-7.29,8.54-10.76,12.97s-6.94,8.2-7.72,14.14c-.4,3.05,3.1,6.31,6.05,6.05,4.89-.44,7.98-2.66,11.85-5.52,4.4-3.25,8.68-6.58,12.88-10.08,7.03-5.85,13.82-12.09,21.11-17.61,8.09-6.13,15.09-13.57,22.3-20.7,7.29-7.21,14.12-13.49,21.12-21.05,26.4-28.5,52.22-57.6,76.36-88.05,7.09-8.95,14.47-17.78,20.74-27.33,3.04-4.63,6.15-9.22,9.16-13.88,3.09-4.79,4.69-10.26,6.6-15.6,2.28-6.37-6.01-12.61-11.57-8.89h0Z" style="fill:currentColor; stroke-width:0px;"/><path d="M1681.79,1583.17c-3.31.58-7.24,1.1-10.17,2.82-3.43,2.01-7.3,5.54-10.13,8.32-5.58,5.49-10.63,11.66-15.94,17.42-10.89,11.82-21.63,23.75-32.41,35.68-21.34,23.62-42.94,47.01-64.8,70.15-43.74,46.29-88.53,91.56-134.38,135.75-6.36,6.13-12.73,12.23-19.13,18.32-3.2,3.04-6.43,6.05-9.61,9.11-3.22,3.1-5.64,6.8-8.61,10.11-6.1,6.79-12.62,13.35-18.22,20.55-2.79,3.58-6.18,7.13-8.43,11.07s-3.58,8.21-6.31,12.05c-2.93,4.12,2.72,9.16,6.73,6.73,3.15-1.91,6.27-2.98,9.68-4.29,3.99-1.53,7.29-3.99,10.79-6.38,7.09-4.84,13.66-10.39,20.32-15.81,6.18-5.03,12.68-9.45,18.41-15.02,5.65-5.5,11.28-11.01,16.9-16.54,22.92-22.56,45.55-45.4,67.98-68.44,44.43-45.64,87.88-92.22,130.24-139.79,11.96-13.43,23.9-26.87,35.4-40.7,5.86-7.04,11.68-14.12,17.51-21.18,3.06-3.7,5.65-7.67,7.95-11.89,2.2-4.03,2.4-8.76,2.47-13.29.05-3.45-3.17-5.28-6.23-4.75h0Z" style="fill:currentColor; stroke-width:0px;"/><path d="M1672.73,1387.34c-18.53,16.36-34.38,35.78-50.29,54.68-16,19-32.07,37.94-48.22,56.82-31.88,37.27-64.06,74.29-96.27,111.27-64.71,74.3-131.22,146.95-197.03,220.26-16.67,18.57-33.69,36.86-50.81,55-4.14,4.39-7.89,9.28-12.26,13.43s-8.83,8.2-13.39,12.13c-9.44,8.13-18.31,16.88-27.78,24.97-2.42,2.07.15,6.48,3.15,5.41,10.2-3.67,20.92-7.62,30.11-13.46s18.38-12.62,27.67-18.75c18.71-12.35,34.73-28.71,50.3-44.67,34.02-34.88,66.71-71,99.31-107.2,66.53-73.9,131.99-148.76,195.76-225.06,17.81-21.31,35.53-42.7,53.16-64.16,18.15-22.09,37.29-44.27,51.6-69.06,5.59-9.69-7.03-18.65-15.02-11.59h0Z" style="fill:currentColor; stroke-width:0px;"/><path d="M1693.12,1178.98c-2.6.97-5.61,1.77-7.97,3.25-2.32,1.45-3.95,3.77-5.73,5.8-4.14,4.72-8.1,9.54-12.02,14.46-7.43,9.34-14.89,18.66-22.38,27.95-14.61,18.13-29,36.42-43.46,54.67-29.34,37.02-59.26,73.57-89.21,110.1-60.14,73.35-121.95,145.33-185.36,215.87-17.71,19.7-35.38,39.41-52.97,59.22-8.82,9.93-17.11,20.27-25.77,30.35-4.54,5.28-9.61,10.41-13.55,16.17-3.81,5.58-7.16,11.49-10.86,17.14-4.28,6.54,4.54,16.1,11.16,11.16,4.39-3.27,8.81-6.47,13.25-9.67,5.48-3.94,10.11-8.48,14.89-13.23,8.48-8.42,17.4-16.51,25.62-25.15,16.3-17.12,32.46-34.34,48.24-51.94,31.77-35.44,63.13-71.25,94.09-107.41,61.88-72.28,121.94-146.02,180.06-221.36,16.15-20.93,32.32-41.85,47.79-63.28,7.91-10.96,15.79-21.94,23.62-32.94,3.83-5.37,7.73-10.69,11.26-16.27,1.66-2.62,3.62-5.19,5.03-7.94,1.74-3.39,1.68-7.39,1.92-11.12.24-3.7-4.09-7.16-7.65-5.83h0Z" style="fill:currentColor; stroke-width:0px;"/><path d="M1289.8,1663.53c-6.56-.04-12.68,6.98-17.02,11.35-5.16,5.2-10.14,10.49-15.08,15.9-9.64,10.58-19.4,21.04-29.28,31.39-9.89,10.36-19.58,20.9-29.43,31.3-4.86,5.13-8.34,11.39-12.78,16.92-4.77,5.94-9.33,11.71-13.31,18.21-2.65,4.32,2.62,9.52,6.93,6.93,6.28-3.78,11.79-8.08,17.44-12.73,5.66-4.66,12.18-8.55,17.29-13.77,10.26-10.46,20.4-21,30.1-31.98,9.71-10.98,19.28-22.08,28.73-33.29,4.64-5.51,9.06-11.13,13.33-16.94,3.99-5.42,9.62-12.21,8.39-19.25-.41-2.35-3.05-4.01-5.29-4.03h0Z" style="fill:currentColor; stroke-width:0px;"/><path d="M1861.05,816.11c-5.72,7.07-12.75,12.55-17.82,20.2-4.99,7.54-10.05,15.02-14.89,22.67-9.49,15.01-19.2,29.87-29.12,44.6-20,29.67-40.8,58.88-61.9,87.77-1.47,2.01-2.94,4.01-4.41,6.02-1.9,2.58-2.75,4.85-4.24,7.69-2.19,4.19-5.33,8.08-8.01,11.99-5.77,8.42-11.79,16.63-16.66,25.61-3.28,6.05,4.25,11.51,9.28,7.16,6.82-5.91,12.72-12.61,18.68-19.37,2.87-3.25,5.72-6.51,8.56-9.79,3.09-3.55,6.83-6.22,9.71-9.93,11.28-14.51,22.64-29.05,33.22-44.08,20.78-29.51,40.48-59.81,59.35-90.57,5.22-8.51,10.21-17.09,14.98-25.86,2.61-4.8,5.07-9.59,6.84-14.77,1.66-4.85,2.53-9.85,4.42-14.69,1.71-4.36-5.05-8.3-7.99-4.65h0Z" style="fill:currentColor; stroke-width:0px;"/><path d="M1769.41,772.9c-18.32,24-38.02,46.88-55.76,71.31-17.63,24.29-34.98,48.75-52.32,73.25-34.26,48.43-68.97,96.55-104.1,144.34-69.99,95.21-141.65,189.19-215.01,281.82-20.88,26.36-42.2,52.38-62.6,79.11-10.02,13.13-20.07,26.24-30.16,39.32-2.71,3.51-5.56,6.96-8.15,10.56-2.22,3.08-3.76,6.55-5.71,9.8-4.55,7.55-9.55,14.85-14.28,22.29-3.76,5.93,4.61,11.96,9.5,7.33,10.99-10.41,22.91-20.41,32.78-31.85s19.09-22.18,28.6-33.31c19.47-22.78,38.14-46.17,56.75-69.66,37.13-46.87,73.82-94.08,110.1-141.61,72.35-94.79,142.89-190.97,211.68-288.38,19.12-27.08,38.22-54.17,56.47-81.85,9.14-13.85,18.05-27.68,26.22-42.14,8.46-14.97,17.11-29.78,25.95-44.53,3.93-6.56-5.59-11.54-9.96-5.82h0Z" style="fill:currentColor; stroke-width:0px;"/><path d="M1325.57,1359.7c-5.73,5.64-12.63,9.79-18.41,15.44-5.26,5.14-10.41,10.41-15.39,15.82-10.59,11.52-20.85,23.27-30.71,35.43-9.88,12.17-19.51,24.53-28.67,37.26-4.55,6.32-8.59,12.6-12.45,19.32-3.89,6.78-9.6,13.67-10.79,21.49-.91,6.01,4.88,12.12,10.95,8.42,6.85-4.18,10.75-11.49,15.8-17.59,4.93-5.95,9.56-11.88,14.06-18.18,8.92-12.48,17.9-24.94,27.08-37.23s18.19-24.22,27.5-36.15c4.56-5.85,9.01-11.79,13.54-17.66,5-6.46,8.48-13.95,13.65-20.2,3.52-4.25-2.09-10.17-6.17-6.17h0Z" style="fill:currentColor; stroke-width:0px;"/><path d="M1709.65,672.28c-.2-.54-.27-.69-.2-.43-.05-.62-.08-.79-.08-.52,0-.48.05-.66.28-1.08-.19.34.57-.63.23-.31-.16.15.73-.47.28-.23-.43.24.34-.17.37-.14,0,0-.33.09-.33.09l.58-.07c-.51,0-.98.13-1.42.38-.49.28-.92.68-1.14,1.2l1.81-.74c-.14-.04-.07-.01.21.09.19.16.23.19.13.1-.46-.42-1.35-.56-1.79,0-.27.34-.41.63-.56,1.04-.22.62-.07,1.6.28,2.14.4.62.95,1.06,1.66,1.28,1.35.42,2.96-.26,3.93-1.2.48-.46.81-1.08.99-1.71.27-.97.02-1.87-.37-2.75-.27-.6-1.07-1.12-1.68-1.29-.67-.19-1.57-.1-2.17.28-1.39.9-1.66,2.41-1.01,3.85h0Z" style="fill:currentColor; stroke-width:0px;"/><path d="M1718.98,635.43c-3.46,1.79-6.4,2.71-9.14,5.53-2.21,2.28-4.33,4.65-6.38,7.08-4.52,5.36-8.92,10.83-13.35,16.26-9.17,11.24-16.83,23.94-25.05,35.89-15.97,23.23-31.79,46.55-47.66,69.84-31.92,46.84-64.13,93.48-96.62,139.93-64.6,92.34-130.07,184.1-196.59,275.07-18.73,25.62-37.55,51.17-56.46,76.65-9.14,12.32-19.74,24.37-27.27,37.74-3.79,6.72-8.07,13.18-12.17,19.72-4.53,7.21-7.06,14.82-9.38,22.97-1.29,4.51,3.98,8.75,8.06,6.19,5.85-3.66,11.96-7.41,16.78-12.39s9.33-10.63,14.04-15.88c5.17-5.77,10.13-11.28,14.77-17.52,4.25-5.71,8.5-11.43,12.75-17.15,16.98-22.88,33.89-45.82,50.72-68.81,33.29-45.45,66.3-91.11,99.03-136.97,65.82-92.22,130.03-185.6,193.23-279.63,17.69-26.33,35.39-52.66,52.63-79.29,8.43-13.02,17.22-25.89,25.26-39.16,4.01-6.62,7.33-13.72,10.91-20.59,1.81-3.47,3.35-7.02,4.99-10.56.87-1.89,1.95-3.36,1.95-5.54s-.11-4.25.06-6.49c.2-2.7-2.97-4.01-5.08-2.91h0Z" style="fill:currentColor; stroke-width:0px;"/><path d="M1236.42,1291.19l-1.37,1.23,4.22-2.46c-10.56,1.75-14.94,14.55-19.91,22.93-4.61,7.77-8.87,15.69-13.07,23.69-4.19,7.98-7.66,16.43-11.51,24.62-2.07,4.41-2.91,9.02-4.72,13.57-1.76,4.42-3.63,7.98-2.43,12.83.93,3.78,5.15,6,8.82,5.01,4.73-1.27,6.94-4.75,9.85-8.38s6.63-6.85,9.36-10.82c5.25-7.62,10.83-15.44,15.37-23.48s8.65-15.83,12.42-24.07c1.88-4.12,3.75-8.25,5.6-12.38,1.07-2.39,2.56-4.96,3.25-7.47,1.19-4.33-.3-7.88-2.24-11.65.44,1.61.87,3.22,1.31,4.83l.17-1.73c.79-8.19-9.93-10.94-15.12-6.26h0Z" style="fill:currentColor; stroke-width:0px;"/><path d="M1678.87,483.84c-23.28,27.82-44.72,56.87-66.07,86.18-21.4,29.39-42.8,58.78-64.2,88.17-42.38,58.19-83.9,117.02-125.82,175.54s-84.24,117.59-126.36,176.38c-41.93,58.52-83.85,117.05-125.78,175.57-21.16,29.53-42.31,59.07-63.47,88.6l-31.44,43.89c-5.24,7.32-10.48,14.63-15.72,21.95-2.52,3.52-5.05,7.04-7.57,10.57-1.16,1.63-2.33,3.25-3.49,4.88-.72,1-1.42,2.02-2.16,3.01-1.38,1.85,1.08-1.19-.46.58-.43.49-3.01,3.47-1.8,2.1-.36.41-1.74.54-.75.51,1.11-.03,2.83.07,3.99-.07.1-.01,4.01,1.37-.56-.22-1.7-.59-3.39-1.2-5.26-1.17-2.52.04.18.02.42.25,1.62,1.57,3.32-2.66,3.45,4.05-.09-4.47-4.05-7.01-8.19-6.24-6.91,1.3-9.86,8.55-9.57,14.88.61,13.39,15.41,18.12,26.33,13.7,8.34-3.38,13.28-10.39,18.34-17.47,5.42-7.59,10.85-15.18,16.27-22.78,21.89-30.64,43.78-61.28,65.67-91.92,43.78-61.28,87.56-122.56,131.34-183.85,43.78-61.28,87.56-122.56,131.34-183.85,43.78-61.28,87.56-122.56,131.34-183.85,21.88-30.63,43.49-61.45,65.13-92.24,21.63-30.78,43.53-61.34,64.11-92.84,5.08-7.78,9.8-15.8,14.62-23.74,5.01-8.26-7.22-18.3-13.69-10.57h0Z" style="fill:currentColor; stroke-width:0px;"/><path d="M1666.78,277.85c-3.84,3.49-7.97,6.79-11.33,10.73-3.85,4.51-7.7,8.96-11.45,13.55-6.83,8.37-13.65,16.74-20.48,25.11-13.94,17.09-26.78,35.04-39.93,52.74-26.22,35.3-51.47,71.33-77.11,107.05-51.26,71.45-102.68,142.79-153.79,214.35-50.63,70.89-100.85,142.07-151.38,213.03-47.76,67.07-95.87,133.92-145.9,199.32s-101.26,128.2-156.13,188.68c-6.9,7.6-13.6,15.21-20.02,23.22-4.6,5.75-5.61,13.68,0,19.29,5.39,5.39,13.86,5.01,19.29,0,15.22-14.07,28.75-29.85,42.46-45.38,13.71-15.54,27.22-31.25,40.55-47.11,26.46-31.48,52.22-63.54,77.45-96.01,50.88-65.48,99.7-132.52,147.89-199.99,50.19-70.27,100.05-140.78,150.04-211.19,50.87-71.65,101.21-143.66,151.75-215.54,25.47-36.23,50.94-72.45,76.41-108.68,12.52-17.81,24.72-35.84,36.95-53.86,12.41-18.29,23.87-37.11,35.44-55.95,2.76-4.49,5.36-9.02,8.01-13.57,2.84-4.89,4.81-10.15,7.03-15.36,1.57-3.68-2.48-7.4-5.74-4.43h0Z" style="fill:currentColor; stroke-width:0px;"/><path d="M1582.88,158.47c-21.67,28.68-42.49,57.43-62.14,87.56-19.5,29.89-39.1,59.72-58.8,89.47-39.41,59.49-78.97,118.89-118.85,178.08-79.13,117.44-159.91,233.77-242.32,348.93-83.05,116.06-167.74,230.94-254.04,344.6-85.83,113.04-173.3,224.84-262.32,335.39-44.41,55.15-89.12,110.05-134.24,164.61-22.74,27.49-45.57,54.9-68.5,82.23-22.93,27.33-46.68,54.1-68.58,82.26-5.45,7.01-11.1,13.9-16.37,21.04-5.13,6.95-8.5,15.1-12.34,22.81-3.31,6.64,3.95,16.26,11.16,11.16,6.83-4.83,14.25-9.32,20.42-15.01,6.79-6.25,12.8-13.62,19.1-20.36,11.98-12.85,23.22-26.29,34.57-39.7,23.05-27.23,46-54.54,68.85-81.94,45.7-54.79,91.02-109.9,135.94-165.33,89.98-111.04,178.16-223.55,264.85-337.16,86.56-113.44,171.51-228.1,254.82-343.95,83.31-115.85,164.97-232.88,244.96-351.05,39.99-59.08,79.73-118.34,118.5-178.23,19.38-29.94,38.65-59.95,57.82-90.02,19.12-30,39.4-59.64,56.54-90.81,8.47-15.4,16.46-31.04,24.58-46.62,4.8-9.21-7.61-15.88-13.6-7.95h0Z" style="fill:currentColor; stroke-width:0px;"/><path d="M734.33,1468.63c-24.32,24.63-44.19,53.69-64.99,81.31-20.83,27.64-41.74,55.22-62.49,82.92-41.39,55.24-83.21,110.19-125.67,164.61-11.93,15.29-23.91,30.54-35.95,45.75-6.02,7.6-12.05,15.2-18.09,22.78-3.24,4.07-6.78,8.03-9.75,12.3-3.29,4.73-4.52,9.5-5.01,15.16-.46,5.25,5.58,9.32,10.32,7.86,4.47-1.37,8.14-3.17,11.62-6.35,3.32-3.03,5.95-6.82,8.77-10.31,5.48-6.78,10.96-13.57,16.42-20.37,10.72-13.34,21.41-26.72,32.05-40.12,21.49-27.06,42.81-54.26,63.97-81.58,42.79-55.25,84.9-111.05,125.27-168.1,22.38-31.63,46.75-63.06,63.91-97.87,3.2-6.49-4.86-13.6-10.38-8.01h0Z" style="fill:currentColor; stroke-width:0px;"/><path d="M467.5,1802.1c-3.42.67-4.75,2.46-6.99,5s-4.63,4.28-7.14,6.3c-5.22,4.19-9.38,9.44-13.84,14.42-8.71,9.73-16.88,19.96-25.38,29.88-17.11,19.96-33.88,40.02-50.05,60.74-2.23,2.86-4.42,6.88-2.82,10.67l.41.98.93-7.11c-1.74,3.93-3.75,7.68-4.4,11.96-.55,3.59,2.11,7.12,6.05,6.05,4.09-1.11,7.37-3.23,10.98-5.39l-7.11.93.8.24c3.71,1.1,7.97-.09,10.67-2.82,9.43-9.54,18.86-19.04,27.43-29.36,8.38-10.09,16.72-20.22,24.77-30.58s16.76-21.09,24.39-32.12c3.58-5.17,7.65-10.28,10.35-15.96,1.5-3.16,2.62-6.53,4.5-9.49,1.98-3.11,3.86-4.99,3.56-8.92s-3.35-6.16-7.12-5.42h0Z" style="fill:currentColor; stroke-width:0px;"/><path d="M730.73,1611.1c-2.58,2.69-5.77,4.37-8.43,6.98-2.25,2.22-4.24,4.57-6.15,7.08-4.48,5.92-8.97,11.83-13.51,17.7-8.69,11.21-16.9,22.8-25.43,34.14-16.48,21.92-33.27,43.61-50.7,64.78-35.58,43.22-71.58,86.15-109.14,127.66-10.31,11.39-21.17,22.5-30.77,34.49-5.03,6.28-10.1,12.53-15.18,18.77-2.49,3.06-4.85,6.09-6.78,9.55-2.23,4.01-2.8,6.77-2.12,11.28.35,2.34,2.84,3.49,4.88,3.72,6.89.76,12.61-4.06,17.58-8.38,5.57-4.85,10.94-9.96,16.37-14.97,10.41-9.6,19.84-20.2,29.34-30.7,18.59-20.56,36.64-41.62,54.43-62.87,36.21-43.25,69.98-88.44,102.81-134.3,8.95-12.5,17.9-25.01,26.51-37.75,4.47-6.61,8.68-13.41,12.95-20.15,2-3.15,3.91-6.21,5.53-9.57,1.95-4.06,2.57-8.34,4.42-12.36s-3.08-8.8-6.63-5.11h0Z" style="fill:currentColor; stroke-width:0px;"/><path d="M739.51,1707.65c-11.45-1.27-17.73,12.51-23.31,20.33s-11.71,16.32-17.65,24.43c-12.05,16.46-24.34,32.75-36.75,48.95-24.13,31.52-49.75,61.8-74.33,92.95-7.01,8.89-14.09,17.73-21.23,26.52-1.94,2.39-4.42,4.8-5.98,7.46s-2.29,4.87-3.99,7.3c-3.32,4.74-7.44,9.34-8.85,15.06-1.15,4.69,3.32,10.42,8.48,8.48,4.96-1.87,8.29-5.07,12.16-8.59,4.21-3.84,9.05-6.86,12.89-11.01,7.02-7.58,13.99-15.2,20.91-22.87,14.09-15.62,27.35-31.83,40.43-48.3,26.04-32.79,51.25-66.22,75.44-100.39,6.88-9.72,13.69-19.49,20.43-29.31,3.18-4.64,8-9.83,9.51-15.33,1.83-6.65-.52-14.81-8.16-15.66h0Z" style="fill:currentColor; stroke-width:0px;"/><path d="M1474.83,125.02c-3.72,2.63-7.28,4.77-10.42,8.21-3.39,3.72-6.38,7.91-9.51,11.85-6.35,7.98-12.16,16.28-17.98,24.65-11.57,16.64-22,34.16-32.66,51.4-21.02,33.98-41.45,68.27-61.02,103.11-2.9,5.17-6.21,10.36-8.55,15.81-2.11,4.92-3.97,9.84-6.25,14.71-4.8,10.22-10.39,20.79-11.78,32.12-.64,5.25,6.17,6.51,9.36,3.88,7.51-6.18,12.9-15.37,18.17-23.44,5.49-8.42,11.56-16.31,16.6-24.99,9.87-16.99,19.86-33.91,29.65-50.94,19.76-34.35,40.25-68.23,60.74-102.14,5.63-9.31,11.24-18.88,16.12-28.61,2.6-5.19,5.22-10.37,7.79-15.58,2.67-5.4,3.77-10.26,4.9-16.07.53-2.71-2.45-5.89-5.16-3.97h0Z" style="fill:currentColor; stroke-width:0px;"/><path d="M1456.41,125.27c-8.28,4.53-14.13,13.23-20.22,20.3-6.06,7.04-11.84,14.24-17.51,21.59-11.24,14.55-22.3,29.24-33.17,44.07-10.87,14.82-21.42,29.85-31.74,45.05-10.34,15.23-16.96,32.64-25.39,48.87-1.76,3.38-1.12,7.42,1.96,9.8,2.7,2.08,7.64,2.39,9.97-.59,3.02-3.86,5.85-8.24,9.26-11.76s6.58-6.38,9.54-10.25c5.44-7.09,11.61-13.67,16.67-21.01,10.43-15.11,20.76-30.28,31.28-45.33,10.51-15.03,21.21-29.93,32.1-44.7,5.25-7.12,10.41-14.27,15.45-21.54,5.35-7.73,12.3-15.36,14.82-24.5,2.11-7.61-6.32-13.67-13.01-10h0Z" style="fill:currentColor; stroke-width:0px;"/><path d="M1305.78,373.62c-18.89,21.18-37.68,42.26-55.21,64.59s-34.61,45.38-51.9,68.06c-34.27,44.94-68.54,89.88-102.81,134.82-68.52,89.85-136.55,180.07-204.8,270.12-68.52,90.4-137.01,180.82-205.31,271.38-67.79,89.87-135.55,179.76-203.37,269.61-31.98,42.37-64.07,84.66-97.25,126.1-16.42,20.51-33.11,40.81-50.15,60.81-17.33,20.32-35.47,39.92-52.66,60.35-8.64,10.27-16.43,20.33-23.62,31.68-4.63,7.31,4.74,17.1,12.12,12.12,11.5-7.75,21.37-16.13,31.28-25.81,9.41-9.19,18.2-18.88,26.93-28.71,17.72-19.96,35.01-40.3,51.98-60.89,33.93-41.19,66.58-83.41,98.88-125.89,67.82-89.2,135.08-178.83,202.59-268.26,68.32-90.51,136.55-181.1,204.66-271.77,68.11-90.66,136.21-181.31,204.32-271.97,34.18-45.49,68.14-91.15,102.18-136.75,16.75-22.44,33.5-44.87,50.25-67.31,16.96-22.72,34.57-45.19,49.74-69.16,7.44-11.76,14.89-23.52,22.33-35.29,3.88-6.14-5.23-13.37-10.16-7.84h0Z" style="fill:currentColor; stroke-width:0px;"/><path d="M1234.82,282.14c-37.9,35.98-68.98,78.99-100.63,120.41-31.95,41.83-63.15,84.19-94.38,126.56-62.41,84.67-124.81,169.35-187.22,254.02-62.65,85-125.05,170.18-187.56,255.27-60.33,82.13-120.26,164.6-182.07,245.63-30.34,39.77-61.21,79.13-92.89,117.84-15.81,19.32-31.63,38.64-47.68,57.76-16.06,19.13-31.52,38.82-47.84,57.72-3.73,4.32-7.63,8.44-11.47,12.66-4.08,4.47-7.39,9.61-11.3,14.26-2.76,3.29-.24,10.31,4.79,8.23,4.87-2.02,9.95-3.97,14.49-6.66,5.43-3.21,10.29-7.94,14.96-12.17,8.85-8.03,17.28-16.6,25.53-25.24,17.49-18.31,34.01-37.56,50.5-56.77,33.01-38.46,64.41-78.37,95.46-118.42,62.47-80.6,122.6-162.97,182.97-245.14,62.51-85.1,125.02-170.19,187.53-255.29,62.75-85.42,125.26-171.02,187.88-256.54,31.04-42.4,62.75-84.41,93.05-127.34,30.49-43.2,61.71-85.84,89.13-131.08,6.79-11.19,13.19-22.23,18.96-33.99.69-1.41-1.01-2.84-2.21-1.7h0Z" style="fill:currentColor; stroke-width:0px;"/><path d="M1154.52,192.91c-15.78,18.6-29.44,38.89-43.79,58.64-14.44,19.87-28.41,40.08-42.55,60.17-28.23,40.13-55.7,80.78-83.8,121-55.97,80.12-112.93,159.55-170.86,238.27-58.15,79-117.18,157.38-177.04,235.09-59.36,77.06-119.71,153.36-180.98,228.92-61.77,76.19-124.49,151.61-188.14,226.24-8.11,9.51-15.89,19.12-23.4,29.12-3.82,5.09-1.32,13.21,3.33,16.69,5.07,3.79,12.39,3.69,16.99-1.01,17.13-17.51,32.59-36.6,48.42-55.29s31.64-37.47,47.37-56.28c31.47-37.62,62.7-75.43,93.69-113.44,61.75-75.72,122.57-152.2,182.43-229.43,60.35-77.86,119.73-156.45,177.92-235.94,57.69-78.82,114.41-158.36,170.14-238.59,55.96-80.56,110.98-161.55,162.06-245.29,6.34-10.39,12.29-20.65,17.69-31.54,2.86-5.77-4.78-12.88-9.5-7.33h0Z" style="fill:currentColor; stroke-width:0px;"/><path d="M1060.93,123.92c-7.26,8.32-15.1,16.29-21.54,25.27-6.49,9.05-13.05,18.05-19.52,27.12-12.89,18.06-24.75,36.93-37.13,55.34-24.59,36.58-49.39,73.03-74.37,109.34-50.15,72.88-99.74,146.1-150.77,218.37-51.02,72.26-102.83,143.96-155.4,215.1-52.27,70.73-105.28,140.91-159.08,210.48-26.74,34.58-53.61,69.08-80.79,103.31-26.12,32.88-52.89,65.37-82.7,95.01-7.5,7.46-14.49,15.4-21.67,23.16-4.12,4.45-4.82,11.21-.96,16.06,3.46,4.34,10.81,6.83,15.78,3.15,34.36-25.42,62.1-58.88,89.04-91.8,27.57-33.7,54.19-68.2,80.9-102.58,54.79-70.53,108.84-141.63,162.09-213.33,52.74-71,104.72-142.58,155.92-214.71,51.4-72.41,102.01-145.38,151.83-218.89,24.7-36.45,48.74-73.35,72.7-110.29,24.16-37.24,48.42-74.36,70.69-112.77,5.58-9.63,9.67-20.07,14.27-30.2,2.55-5.62-4.51-12.62-9.28-7.16h0Z" style="fill:currentColor; stroke-width:0px;"/><path d="M941.22,112.94l2.9-1c1.11-.38,1.97-1.56,1.58-2.78s-1.55-1.88-2.78-1.58c-.99.25-1.98.49-2.98.74-1.21.3-2.06,1.73-1.67,2.94s1.67,2.11,2.94,1.67h0Z" style="fill:currentColor; stroke-width:0px;"/><path d="M991.57,57.44c-7.72,7.38-16.5,13.83-23.6,21.77-7.15,7.99-14.22,16-21.12,24.2-13.4,15.91-26.68,31.93-39.9,47.99-27.17,33.02-52.68,67.57-78.48,101.67-51.15,67.61-100.85,136.3-150.37,205.11-49.52,68.82-98.78,137.82-148.66,206.37-49.7,68.29-99.86,136.27-151.53,203.08-51.78,66.96-105.08,132.76-160.61,196.65-7.16,8.23-13.72,16.74-20.03,25.63-3.33,4.69-1.29,11.85,3.01,15.06,4.77,3.57,10.92,3.09,15.33-.91,15.92-14.46,29.57-31.08,43.55-47.39s27.01-31.75,40.33-47.78c27.04-32.54,53.58-65.48,79.73-98.74,52.68-66.99,103.84-135.15,154.03-204.02,49.92-68.5,99.09-137.54,148.4-206.47,49.49-69.2,99.29-138.16,149.71-206.69,50.11-68.11,102.2-134.74,152.24-202.9,3.01-4.1,5.26-8.41,7.6-12.92,2.44-4.71,5.48-9.1,8.34-13.57,3.16-4.94-3.87-10.03-7.95-6.13h0Z" style="fill:currentColor; stroke-width:0px;"/><path d="M546.39,468.74c-2.3,1.45-5.08,2.81-7.07,4.68s-3.72,4.42-5.49,6.53c-4.07,4.84-8.3,9.52-12.49,14.24-8.22,9.25-15.79,19.01-23.46,28.71-15.35,19.42-29.63,39.61-44.21,59.61-29.07,39.85-58.27,79.62-87.68,119.22-58.29,78.46-117.89,155.93-178.79,232.37-17.16,21.53-34.41,42.98-51.77,64.35-8.69,10.7-17.39,21.37-25.88,32.23-4.35,5.56-8.72,11.11-13.07,16.67-2.27,2.9-4.64,5.79-6.7,8.85-2.4,3.57-3.18,7.34-4.21,11.45-2.21,8.84,6.83,14.68,14.46,11.12,3.19-1.49,6.54-2.75,9.17-5.18,2.08-1.92,3.95-4.24,5.81-6.36,4.21-4.8,8.34-9.69,12.49-14.54,8.12-9.48,16.07-19.08,23.92-28.78,15.32-18.91,30.55-37.89,45.71-56.93,31.06-39.02,61.78-78.31,92.19-117.84,59.9-77.88,118.88-156.55,175.48-236.87,15.81-22.43,32.36-44.61,46.88-67.89,7.27-11.65,14.57-23.25,21.31-35.22,3.45-6.12,6.56-12.43,10-18.56,1.56-2.78,3.19-5.53,4.7-8.35,1.76-3.3,2.29-6.54,3.04-10.2.49-2.39-2.02-4.79-4.34-3.33h0Z" style="fill:currentColor; stroke-width:0px;"/></g></svg>