<?xml version="1.0" encoding="UTF-8"?><svg xmlns="http://www.w3.org/2000/svg" viewBox="0 0 2051.72 2048.9"><g id="Layer_3" style="opacity:.2;"><path d="M461.99,197.45c39.15,1.47,72.41,22.46,94.91,36.65,61.14,38.58,78.31,84.82,116.51,80.51,15.25-1.72,14.75-9.35,51.05-20.95,35.27-11.27,43.14-6.43,54.33-15.05,22.33-17.21,12.35-52.93,14.4-100.15.88-20.28,4.57-105.22,48.44-148.58,21.97-21.72,76.83-23.74,186.55-27.76,49.14-1.8,127.12-2.16,182.62,35.62,3.47,2.36,6.17,4.21,9.67,7.29,28.6,25.15,28.51,60.09,37.46,138.68,7.92,69.52,12.89,85.21,27.06,95.47,10.19,7.38,13.77,3.71,47.56,17.11,36.01,14.27,39.8,21.55,53.67,21.6,24.58.09,40.08-22.63,59.56-43.2,33-34.85,85.27-71.81,125.88-78.63,57.78-9.7,108.7,38.82,175.22,102.19,63.62,60.62,118.15,112.57,110.62,174.11-5.8,47.43-47.71,94.34-62.84,111.27-32.05,35.88-60.23,49.77-60.22,79.85,0,8.54,6.77,24.14,20.29,54.98,14.51,33.1,21.77,49.65,24.22,52.36,32.68,36.26,89.87,5.99,196.36,41.89,5.77,1.94,8.7,2.94,11.2,4.11,63.76,30.02,63.74,150.25,63.73,194.87-.02,97.73-.03,176.73-52.02,214.69-69.76,50.93-184.5-7.51-216,46.47-5.92,10.15-5.38,18.23-22.91,56.95-16,35.32-21.51,39.76-22.25,52.36-1.76,29.65,26.23,47.25,52.36,76.58,3.64,4.08,70.19,80.32,66.11,151.2-2.42,41.95-37.61,75.75-108,143.35-74.65,71.7-111.98,107.54-158.4,106.69-64.51-1.18-126.07-60.66-128.95-63.49-31-30.58-41.81-60.13-70.69-61.53-14.09-.68-16.34,7.4-58.91,20.95-43.87,13.96-47.35,11.44-55.64,18.33-25.89,21.5-8.46,59.72-17.02,121.75-3.26,23.63-11.76,85.26-51.05,121.75-32.4,30.08-79.42,30.28-172.15,29.45-113.23-1.01-169.85-1.52-204.87-41.89-33.41-38.52-36.9-99.81-37.96-118.47-3.16-55.48,14.21-89.67-7.85-110.62-9.82-9.33-14.91-4.23-56.29-18.33-42.22-14.38-46.51-22.94-63.49-22.25-25.89,1.05-37.03,24.2-65.45,47.13-51.62,41.65-88.97,71.78-128.29,75.93-44.86,4.73-79.09-25.75-142.04-81.82-69.63-62.02-139.55-124.3-130.91-197.02,5.21-43.83,38.11-84.36,50.4-99.49,34.43-42.4,67.9-55.63,68.73-89.67.13-5.38-.66-6.72-17.67-51.71-23.01-60.86-23.39-63.27-28.15-68.07-23.15-23.41-53.42-6.14-113.15-12.34-19.93-2.07-97.52-10.12-135.77-57.89-13.53-16.89-23.22-40.1-19.71-137.26,5.09-141.1,7.64-211.65,42.82-238.25,47.53-35.95,161.1-44.12,202.91-39.93,5.62.56,18.13,2.17,28.44-5.12,16.2-11.46,7.47-31.06,21.22-64.87,11.52-28.32,25.61-34.16,22.93-51.32-2.37-15.12-15.49-24.49-20.89-28.58-34.78-26.32-83.8-86.41-95.56-132.87-15.54-61.4,29.29-117.59,81.16-182.62,41.17-51.6,99.95-125.29,176.73-122.4Z" style="fill:#000; stroke:#000; stroke-miterlimit:10; stroke-width:3px;"/></g><g id="Layer_2"><path d="M375.59,264.07c.39,0,.39-.6,0-.6s-.39.6,0,.6h0Z" style="fill:#000; stroke-width:0px;"/><path d="M422.82,231.12c3.58-1.89,7.15-3.79,10.77-5.61l-13.19-22.56c-4.49,3.29-9.45,5.82-13.81,9.29-3.9,3.11-7.73,6.31-11.61,9.44-7.53,6.08-15.78,12.65-22.24,19.87,1.93-2.16.44-.26-.26.33-1.79,1.52-3.86,2.81-5.64,4.3-1.91,1.59-3.71,3.3-5.53,4.99-3.63,3.39-7.28,6.76-10.94,10.12-7.32,6.72-14.68,13.39-22.1,20-14.84,13.24-29.87,26.27-45.2,38.94s-29.92,26.09-44.98,39.02c-8.55,7.34-18.48,14.31-25.37,23.24-.95,1.23-2.57,2.97-3,4.6-.73,1.22-.49,1.06.71-.49l-1.21,1.4c-1.81,2.11-3.64,4.2-5.47,6.3-4.38,5.02-8.48,9.77-11.53,15.74-5.61,10.96,3.62,23.59,15.88,20.66,5.58-1.34,10.47-3.48,15.51-6.19,2.17-1.16,4.33-2.33,6.49-3.5.81-.44,1.62-.88,2.43-1.32,1.61-.87,3.58-1.58.75-.66,6.33-2.05,11.07-4.58,16.25-8.53s10.08-7.71,15.01-11.71c15.6-12.65,31.76-25.11,46.35-38.93s28.68-27.41,42.8-41.33c14.06-13.86,28.78-27.56,41.76-42.45,1.55-1.78,3.15-3.61,4.37-5.62.84-1.11.72-.97-.37.41l1.26-1.37c1.93-2.02,3.77-4.13,5.65-6.19,4.08-4.49,8.28-8.91,11.99-13.71s7.25-9.44,10.85-14.18,5.92-9.78,9.08-14.61c8.1-12.38-10.45-26.73-20.52-15.83-2.74,2.96-5.55,5.85-8.35,8.75-8.83,9.17,2.3,23.22,13.41,17.37h0Z" style="fill:#000; stroke-width:0px;"/><path d="M204.53,435.03c.26,0,.26-.4,0-.4s-.26.4,0,.4h0Z" style="fill:#000; stroke-width:0px;"/><path d="M180.73,449.02c1.2,6.91,6.54,12.09,10.83,17.36l9.49,11.63c6.11,7.49,12.24,14.97,18.44,22.4,12.38,14.83,24.64,29.78,37.32,44.35,12.45,14.3,24.9,28.61,37.35,42.91,6.28,7.22,12.56,14.43,18.84,21.65,2.68,3.08,5.36,6.17,8,9.28,1.91,2.24,3.6,4.18,5.97,6.02,1.29,1,2.63,1.97,3.91,2.99,4.05,3.2-2.07-2.51-.38,0,2.14,3.18,5.75,5.97,8.33,8.85,2.87,3.2,5.64,6.49,8.32,9.86,4.06,5.13,8.59,8.24,14.83,10.29,3.55,1.16,7.64,2.76,11.37,2.23,9.1-1.31,12.77-13.84,12.84-21.92.09-10.38-6.62-20.29-11.91-28.9s-10.17-17.31-16.7-24.75c-5.89-6.72-11.91-13.34-17.89-19.99-12.89-14.33-25.78-28.66-38.67-43-14.22-15.81-28.7-31.36-43.24-46.88-7.49-7.99-15.01-15.97-22.59-23.87-8.53-8.89-17.54-21.72-29.6-25.35-6.86-2.06-14.65.19-19.66,5.2-5.47,5.47-6.47,12.36-5.2,19.66h0Z" style="fill:#000; stroke-width:0px;"/><path d="M367.42,651.58c-5.37,3.53-7.82,7.77-10.54,13.22-2.26,4.53-4.77,8.69-6.71,13.41-.81,1.97-1.61,3.93-2.42,5.9-1.72,4.21,1.27-2.88-.69,1.64-2.18,5.03-4.45,10.03-6.52,15.1-1.38,3.36-2.72,6.73-4.1,10.09-.98,2.34-.93,2.23.13-.31-.35.83-.71,1.66-1.07,2.49-.83,1.93-1.67,3.87-2.52,5.79-3.16,7.16-6.45,14.27-9.85,21.31-2.01,4.16-4.17,8.25-5.97,12.5-1.46,2.77-2.12,5.75-2,8.95.54-3.18.39-3.51-.46-.99-.83,1.97-.92,2.21-.29.7.64-1.51.54-1.27-.31.72-1.68,3.9-3.37,7.79-5.11,11.67-2.38,5.3-5.68,10.93-4.83,16.97.07,2.05.2,2.13.38.21-.3.83-.6,1.66-.9,2.49-.7,1.93-1.42,3.87-2.14,5.79-1.24,3.3-2.41,6.59-3.44,9.96-2.38,7.82-5.08,15.45-4.45,23.75.24,3.17,3.34,6.62,6.88,5.24,15.84-6.16,26.65-22.39,36.54-35.46l-6.26,6.26c4.71-2.27,8.42-5.12,11.51-9.47,1.74-2.45,3.2-5.12,4.74-7.71,1.69-2.85,3.36-5.71,5.02-8.58.75-1.3,1.5-2.61,2.24-3.92.31-.56,2.92-4.92,1.17-2.18-2.46,3.84,2.91-3.69,3.77-5.39.68-1.34,1.23-2.77,1.84-4.15,1.22-2.77,2.41-5.55,3.59-8.33,3.01-7.09,5.97-14.19,8.79-21.35,4.41-11.21,8.64-22.48,11.97-34.07.83-2.89,1.64-5.79,2.43-8.7.72-2.63,4-11.44,2.68-13.25.16-1.13.12-1.15-.1-.04-.32,1.41-.29,1.08.08-.98.19-1.51.46-3,.68-4.51.75-5.09,2.01-10.2-.06-15.16s-4.34-8.34-9.34-10.45c-4.51-1.91-10.09-1.99-14.35.81h0Z" style="fill:#000; stroke-width:0px;"/><path d="M294.58,798.21c-1.2.11-11.42,1.25-8.23.9,1.4-.2,1.04-.17-1.08.1-2.56.29-5.11.62-7.66,1-3.9.73-7.76,1.77-11.62,2.67-8.42,1.98-16.57,4.52-24.81,7.15-16.75,5.33-33.29,11.27-49.89,17.07s-34.32,11.99-51.05,19.05c-4.61,1.95-7.99,5.24-12,8.11s4.29-2.07-1.06.16c-3.83,1.6-7.54,4.25-11.15,6.28-8.17,4.6-17.64,9.63-24.04,16.59-4.92,5.34-6.54,12.66-3.68,19.44s9,10.27,16.27,10.94c9.27.86,19.56-1.91,28.55-3.92,4.51-1.01,9.13-1.82,13.58-3.04,5.3-1.45-4.96.13.72-.17,3.54-.19,8.17-.39,11.25-1.27,8.2-2.35,16.26-6.19,24.23-9.27s16.04-6.61,24.04-9.95c17.46-7.31,35.02-14.41,52.27-22.2,7.82-3.53,15.65-6.94,23.17-11.08,3.45-1.89,6.97-3.7,10.36-5.69,1.71-1.01,3.3-2.14,4.92-3.28.9-.63,9.78-7.16,6.4-4.65,6.51-4.84,11.36-12.71,8.62-21.17-2.38-7.36-9.73-14.55-18.08-13.77h0Z" style="fill:#000; stroke-width:0px;"/><path d="M71.88,930.74c.26,0,.26-.4,0-.4s-.26.4,0,.4h0Z" style="fill:#000; stroke-width:0px;"/><path d="M74.89,925.19l5.1-7.39c.22-.32,2.4-2.74,2.3-2.37,1.08.18.81.13-.83-.15-1.52-.36-1.9-.4-1.14-.14-2.8-10.62-5.61-21.23-8.41-31.85-8.84,6.92-9.25,20.57-11.5,30.68-1.98,8.89-3.24,17.84-4.58,26.88-1.59,10.72-3.04,21.45-4.45,32.19-.3,2.28-.6,4.56-.9,6.84-.13.98-.27,1.95-.39,2.93.09-.76.83-6.08.16-1.21-.62,4.53-1.24,9.06-1.87,13.6-5.07,36.28-10.36,72.56-16.06,108.75-1.63,10.35-3.38,20.68-5.03,31.03-.77,4.86-1.5,9.72-2.27,14.58-.85,5.35-2,10.6-1.27,16,.96,7.11,4.15,12.7,8.76,18.19-2.49-6.01-4.98-12.02-7.47-18.03-.63,9.03-1.14,18.08-1.76,27.11-.31,4.53-.61,9.01-.25,13.54.78,9.82,7.1,19.24,17.38,20.63,9.1,1.22,18.05-4.44,21.57-12.78,2.02-4.78,3.84-9.47,5.3-14.45,2.66-9.07,5.35-18.15,7.85-27.27l-11.72,15.24c8.29-4.89,13.75-12.91,15.42-22.33.8-4.51,1.59-9.03,2.37-13.54,1.55-9.04,2.88-18.13,4.25-27.2,2.79-18.47,5.43-36.97,7.93-55.49,5.17-38.34,9.81-77.06,12.24-115.67.63-9.98,2.01-20.34,1.36-30.31-.91-13.94,2.12-28.57-8.1-39.9-7.69-8.52-21.84-6.61-28.44,1.93-6.54,8.46-4.97,22.82,5.35,28l.36.18-5.4-5.4c2.2,3.07,3.2,3.17,2.26,6.85l-2.21,8.61c-.65,2.55,2.69,3.79,4.11,1.73h0Z" style="fill:#000; stroke-width:0px;"/><path d="M46.85,1236.17c19.87,6.55,41.06,8.09,61.81,10.17,18.89,1.89,37.79,3.3,56.73,4.64,9.62.68,19.24,1.36,28.86,2.04,9.35.66,18.52.63,27.87.76,9.29.13,18.58.26,27.87.39,4.64.07,9.29.13,13.93.2,4.61.07,8.79.15,13.43-.95,6.63-1.56,10.96-4.88,16.1-9.13-3.66,2.13-7.32,4.26-10.98,6.4,6.24-1.21,12.19-2,17.84-5.2,6.37-3.6,10.32-10.74,10.32-18,0-7.9-4.2-13.58-10.32-18-4.98-3.59-12-4.93-17.84-6.77,3.66,2.13,7.32,4.26,10.98,6.4-8.54-8.93-17.93-10.28-29.53-11.43-5.31-.52-10.62-1.05-15.92-1.57-10.62-1.05-21.23-2.1-31.85-3.15l8.07,1.08c-29.52-4.4-59.87-4.14-89.68-5.4-28.96-1.22-59.22-2.52-87.69,3.41-9.39,1.95-17.21,12.54-16.79,22.05.47,10.45,6.85,18.78,16.79,22.05h0Z" style="fill:#000; stroke-width:0px;"/><path d="M266.4,1203.93c.37,1.24.71,2.48,1.02,3.74l1.47-11.27c-3.14,6.9-2.79,12.21-.13,18.94.71,1.8,1.33,3.68,2.15,5.44.26-1.87.41-1.72.46.45.01,3.57.91,6.9,2.7,9.98,3.39,8.02,7.09,15.79,11.01,23.56,3.89,7.72,7.78,15.45,11.68,23.17l3.14,6.24c.47.93,3.93,7.22,1.48,2.56,2.62,4.99,4.49,10.42,7.22,15.43,8.41,15.46,16.59,31.06,25.31,46.35,4.77,8.36,9.01,18.48,16.07,25.07,5.18,4.05,6.21,4.83,3.08,2.33.65.7,1.3,1.41,1.95,2.11,1.52,1.64,3,3.32,4.55,4.93,4.55,4.73,9.15,8.38,15.69,9.94-1.98-1.15-3.95-2.3-5.93-3.45l2.94,2.48c9.66,8.15,21.74.2,20.06-11.68l-.55-3.87v7.14c2.21-6.53,1.28-12.6-.35-19.1-.47-1.88-1.01-3.74-1.51-5.61l-1.01-3.74c.47,2.51.59,2.96.36,1.34-.3-2.4-.62-4.81-.96-7.2-.89-2.59-2-5.07-3.34-7.45-.9-1.78-1.88-3.52-2.82-5.27-2.19-4.1-4.39-8.2-6.58-12.31-8.14-15.22-16.82-30.17-25.26-45.22-.97-1.74-1.94-3.48-2.92-5.21-1.38-2.4-6.31-7.22-6.34-8.98-1.05-1.24-.79-1.01.78.69l-2.06-3.41c-1.03-1.71-2.06-3.41-3.09-5.12l-13.37-22.18c-4.47-7.42-8.89-14.8-13.93-21.85-1.32-1.95-2.73-3.83-4.24-5.64-1.37-1.61-1.82-1.72-1.34-.33-1.4-1.22-2.47-3.37-3.55-4.85-3.91-5.33-7.68-11.38-14.84-12.38,2.15,1.25,4.3,2.51,6.45,3.76-.89-.92-1.75-1.86-2.59-2.83-9.26-10.34-26.53.57-22.88,13.32h0Z" style="fill:#000; stroke-width:0px;"/><path d="M372.01,1388.74c-4.09-.04.99.21-.91.12-2.14-.1-3.79-.62-5.9-.34-3.3.45-6.29,2.13-9.2,3.71-3.91,2.12-7.74,4.59-11.44,7.04-5.67,3.76-9.8,10.12-13.82,15.48-2.85,3.8-5.87,7.72-8.26,11.83-2.58,4.44,1.97-2.18.03.26-.64.8-1.3,1.59-1.94,2.4-2.4,3-4.42,5.89-6.36,9.13-2.81,4.69-5.65,9.36-8.52,14.01-5.75,9.31-11.63,18.54-17.63,27.69-1.5,2.29-3.01,4.57-4.53,6.85-.84,1.26-3.48,4.42.14.23-.78.9-1.49,1.87-2.24,2.79-4.45,5.52-8.33,11.2-12.22,17.09-6.03,9.13-12.19,18.17-18.48,27.13-12.54,17.88-25.23,35.66-37.83,53.49-6.98,9.88-14.23,19.54-21.39,29.29-2.77,3.77-5.02,7.77-5.9,12.47-.15.79.21,3.75.14,1.8.78-1.21.71-.88-.22.98-.35.83-.71,1.66-1.07,2.5-2.89,6.78-4.68,13.32-5.29,20.69s7.16,11.51,13.29,10.12c5.28-1.19,10.85-3.44,15.51-6.12,1.09-.63,6.52-4.21,2.52-2.26,5.3-2.58,9.81-3.6,14.44-7.59,8.1-6.98,14.82-16.24,21.73-24.38,15.01-17.69,29.32-35.74,42.39-54.92,12.13-17.81,24.28-35.72,34.08-54.89,9.76-19.1,20.7-37.59,30.34-56.78,1.76-3.51,3.55-7.22,4.54-11.06.77-3-2.3,4.41.05-.13.61-1.19,1.17-2.4,1.77-3.6,2.38-4.75,4.88-9.44,7.66-13.97.99-1.63,6.11-8.52,5.08-9.86l.19-.7c-.9,1.93-.9,1.95,0,.07.59-1.13,1.15-2.28,1.76-3.41,1.21-2.22,2.62-4.27,3.91-6.43,1.63-2.74,1.72-4.46,2.29-7.52.44-2.39-.64,1.67.34-1.36,1.91-5.89-3.19-11.8-9.04-11.87h0Z" style="fill:#000; stroke-width:0px;"/><path d="M183.9,1654.29c1.4,4.39,3.14,8.38,6.29,11.82,2.46,2.68,6.46,4.71,9.47,6.91.64.47,3.61,2.83,1.12.81s.39.36.99.86c3.18,2.62,6.28,5.29,9.59,7.76,2.11,1.58,4.28,3.09,6.39,4.68.71.53,3.82,2.84.95.71s.22.17.92.72c4.55,3.55,9.08,7.12,13.61,10.68,19.27,15.12,39.29,29.35,58.99,43.9,36.43,26.91,72.86,53.82,109.29,80.73,10.18,7.52,20.31,15.1,30.54,22.56,5.36,3.91,11.03,7.38,16.59,10.98,3.87,2.51,8,5.51,12.56,6.55,2.23.51,6.02-.04,8.02.86l-2.34-.42c1.24.17,2.49.34,3.73.5,7.83,1.06,14.75-.11,19.91-6.79,4.95-6.41,4.75-13.9,1.48-21.03-.46-1-1.22-2.27-1.54-3.35,1.74,5.88-.72-2.11-.81-2.32-1.93-4.56-4.9-8-8.62-11.11-4.56-3.82-9.08-7.7-13.68-11.47-10.19-8.33-21.09-15.89-31.68-23.71-18.48-13.65-36.97-27.31-55.45-40.96-37.23-27.5-74.17-55.43-111.7-82.51-9.56-6.9-19.3-13.68-29.21-20.07-6.09-3.92-13.03-6.56-19.72-9.24-2.37-.95-4.79-1.92-7.24-2.63-7.3-2.12-13.07-.16-19.58,2.77-7.43,3.34-11.25,14.34-8.88,21.81h0Z" style="fill:#000; stroke-width:0px;"/><path d="M636,1697.17c2.16-2.65,4.32-5.31,6.48-7.96,2.29-2.81,4.85-4.45,7.69-6.75,10.23-8.28-3.02-25.05-13.99-18.14-2.67,1.68-5.34,3.36-8.01,5.05,2.43-.66,4.86-1.31,7.29-1.97-11.99-.67-20.27,11.26-27.86,18.99-6.53,6.66-13.58,12.72-19.94,19.51-12.94,13.83-25.89,27.66-38.83,41.49-6.6,7.05-13.61,13.6-20.03,20.84s-12.8,14.44-19.2,21.66c-12.58,14.19-25.33,28.25-37.7,42.62-3.22,3.74-6.36,7.59-9.74,11.19-1.45,1.55-2.96,3.04-4.53,4.47-.59.54-1.21,1.06-1.81,1.59-3.89,3.46,3.12-1.87.56-.47-1.77.98-3.53,2.08-5.27,3.12-1.95,1.17-3.85,2.73-5.61,4.18,5.31-4.38,2-1.89.93-.96-1.61,1.4,1.95-1.07,2.36-.87-.19-.1-2.67.7-3.1.84-1.77.58-3.73,1.9-5.55,2.25,6.34-1.22,1.75-.99.61-.83-5.12.73-9.31,5.56-11.18,9.99-2.3,5.45-1.44,10.1.87,15.35,5.11,11.61,18.23,16.81,30.33,16.22,13.05-.64,23.57-8.01,32.86-16.67,6.93-6.46,12.97-14.04,19.1-21.25,6.48-7.61,12.96-15.23,19.44-22.84,14.19-16.68,29.51-32.9,42.43-50.59,1.35-1.85,2.79-3.68,4.03-5.6,1.38-2.12-.32.33-.56.63.83-1.05,1.68-2.08,2.52-3.12,3.35-4.16,6.71-8.32,10.06-12.49,6.29-7.8,12.58-15.61,18.87-23.41,3.77-4.68,7.59-9.33,11.32-14.05,4.13-5.22,7.49-10.92,11.55-16.21,3.41-4.45,6.83-8.89,10.24-13.34,1.58-2.05,3.47-4.07,4.82-6.28,2.84-4.66,2.94-10.25,1.92-15.4l-1.46,11.12c1.35-3,2.7-6,4.05-9-7.03-2.97-14.07-5.93-21.1-8.9-.95,3-1.34,5.18-2.91,7.96s-3.09,5.48-4.63,8.21c-4.32,7.66,6.69,17.11,12.66,9.77h0Z" style="fill:#000; stroke-width:0px;"/><path d="M633.9,1692.29c6.95,4.24,13.6,8.58,21,12.01,8.58,3.98,17.44,7.9,26.29,11.18,15.19,5.63,30.46,11.1,45.74,16.49,14.93,5.27,30.14,9.85,45.19,14.74,9.58,3.11,18.31,6,28.45,6.42,12.26.5,24.08,1.52,33.67-8.04-4.32,1.79-8.63,3.58-12.95,5.36,7.99-.33,15.91-1.08,22.36-6.13,2.8-2.19,3.53-6.82,2.65-10.03-1.69-6.15-7.2-11.27-12.07-15.1l4.71,8.08c-1.09-6.41-4.78-11.5-9.78-15.48-2.64-2.1-5.23-4.36-8.01-6.25-1.08-.71-2.2-1.35-3.35-1.94-2.15-1.26-2.26-1.25-.32.05,3.35,2.4,1.89,1.24-4.4-3.49-1.64-.95-3.36-1.74-5.16-2.37-2.7-1.14-5.37-2.11-8.14-3.06-3.75-1.28-7.51-2.54-11.28-3.76-15.37-4.99-30.68-10.33-46.17-14.93-15.17-4.5-30.39-8.91-45.62-13.21-17.27-4.88-34.69-7.19-52.51-8.63-8.52-.69-17.84,6.81-19.71,15-2.05,8.99,1.4,18.2,9.39,23.08h0Z" style="fill:#000; stroke-width:0px;"/><path d="M824.28,1723.45c-7.25,7.73-6.35,18.64-6.48,28.51-.12,8.5.58,16.99,1.08,25.48.99,16.98,1.64,33.99,3.02,50.95,2.61,32.14,4.8,64.42,10.5,96.19,1.49,8.28,3.42,16.47,5.7,24.57,1.09,3.88,2.27,7.75,3.55,11.57,1.2,3.6,2.36,7.44,4.17,10.76,2.54,4.67,6.59,7.75,10.69,10.91-2.78-2.78-5.56-5.56-8.34-8.34,3.1,5.6,6.6,13.1,11.33,17.45,2.69,2.47,5.82,4.3,9.3,5.42,6.4,1.06,7.45,1.11,3.15.16-2.61-.86-3.21-.94-1.8-.24,1.03,2.49,8.07,2.41,10.7,2.55,3.52.18,7.42-2.1,9.07-5.2,2.25-4.24,3.2-8.1,3.56-12.94l-2.29,8.46c2.2-4.15,4.51-8.17,4.29-13.12-.14-3.05-.89-5.96-1.75-8.87-1.13-3.84-2.11-7.71-3.07-11.59v12.36c1.25-6.73,1.18-12.7-1.18-19.18-1.38-3.79-2.67-7.62-3.87-11.48-2.15-6.92-3.94-13.92-5.66-20.96-3.52-14.44-6.27-29.02-8.55-43.71-1.12-7.19-2.14-14.4-3.12-21.61-.27-2.01-.6-4.02-.82-6.04.47,4.34.08.59-.2-1.47-.57-4.25-1.14-8.49-1.71-12.74-2.39-17.79-5.29-35.46-8.12-53.18-1.43-8.99-2.48-18.14-4.38-27.04-2.3-10.73-3.86-22.94-13.51-29.62-4.43-3.07-11.67-1.87-15.27,1.97h0Z" style="fill:#000; stroke-width:0px;"/><path d="M847.65,2006.53c1.16-1.16,2.33-2.33,3.49-3.49,1.03-1.03-.57-2.62-1.59-1.59-1.16,1.16-2.33,2.33-3.49,3.49-1.03,1.03.57,2.62,1.59,1.59h0Z" style="fill:#000; stroke-width:0px;"/><path d="M850.35,1998.96c.26,0,.26-.4,0-.4s-.26.4,0,.4h0Z" style="fill:#000; stroke-width:0px;"/><path d="M862.09,1978.24c3.84,5.44,8.73,10.63,14.78,13.63,5.81,2.88,12.3,4.45,18.5,6.28,9.97,2.95,20.33,4.44,30.57,6.18,22.52,3.82,45.1,6.95,67.84,9.17,41.65,4.06,83.48,6.21,125.32,6.45,10.9.06,21.73-.15,32.62-.66,4.81-.22,9.62-.39,14.44-.38,7.12.02,13.96-1.34,20.97-2.34-2.48.33-4.96.67-7.44,1,4.1-.53,8.17-.67,12.29-.94,9.96-.65,17.02-5.22,22.7-13.11l-6.99,6.99.85-.47-9.24,2.5c2.99-.19,5.95-.24,8.93-.63-.39.05,5.17-.53,2.01-.35,1.29-.07,2.51-.02,3.81.1,5.63.5,10.85-6.33,8.86-11.63-1.04-2.77-1.92-5.62-3.14-8.32-1.79-3.97-4.56-7.26-7.52-10.43,1.57,2.69,3.14,5.39,4.71,8.08.13,1.28.27,2.56.4,3.84-.25-1.86-.5-3.71-.75-5.57-.35-1.68-.85-2.66-1.6-4.42-2.37-5.6-5.8-9.89-11.2-13.06-5.45-3.21-11.58-5.55-17.43-7.86-10.76-4.26-22.43-4.34-33.88-4.51-22.24-.32-44.49.7-66.74.52-45.44-.37-90.61-3.72-135.87-7.39-12.65-1.03-25.27-2.29-37.89-3.61-14.12-1.48-30.87-2.53-43.24,5.47-7.9,5.11-12.7,16.95-6.68,25.48h0Z" style="fill:#000; stroke-width:0px;"/><path d="M1208.45,1996.49c8.73-18.59,11.35-39.74,15.24-59.77,3.67-18.92,7.35-37.83,11.02-56.75,3.99-20.56,9.08-41.29,10.96-62.18.61-6.79-.95,6.06.03-.76.38-2.64.76-5.29,1.15-7.93.67-4.63,1.34-9.25,2-13.88,1.43-9.91,2.86-19.83,4.3-29.74,1.68-11.62-1.29-21.31-11.38-27.97l-1.14-.75c3.48,6.07,6.96,12.14,10.45,18.21-1.02-10.4-1.23-29.66-13.97-33.17-12.99-3.58-20.75,13.25-25.33,22.52,4.2-3.23,8.4-6.46,12.6-9.69-.56.13-1.13.25-1.69.38-7.98,1.8-15.53,9.29-17.3,17.3-4.13,18.77-7.82,37.7-12.48,56.35-4.66,18.69-7.28,37.9-10.5,56.89-3.23,19.04-6.46,38.08-9.69,57.12-1.56,9.19-3.18,18.37-4.68,27.57-1.78,10.94-4.16,23.32-3.28,34.42.79,9.99,6.68,20.2,17.21,22.6,9.51,2.17,21.98-1.2,26.47-10.77h0Z" style="fill:#000; stroke-width:0px;"/><path d="M1213.74,1743.74c1.23-.7,2.69-1.77,4.07-2.19h-5.44c6.54,1.46,10.91-1.45,16.45-4.33,2.93-1.52,6.24-2.69,9.52-3.87,5.03-1.81,9.22-3.99,13.74-6.76,2.05-1.26,4.27-2.39,6.22-3.78,2.07-1.14,2.09-1.24.04-.32,2.21-.88,4.4-1.82,6.56-2.82,15.46-8.54,30.03-18.57,45.7-26.75,8.05-4.2,15.6-9.72,23.38-14.41,7.32-4.41,14.69-8.74,22.11-12.98,7.95-4.54,15.97-8.99,24.03-13.33,8.15-4.39,15.34-9.92,22.86-15.29,9.55-6.82,14.33-17.79,9.55-29.13-4.22-10-16.52-17.44-27.52-13.51-10.02,3.58-20.23,6.91-29.5,12.19-7.96,4.53-15.86,9.16-23.7,13.89-15.63,9.43-31.51,18.92-46.29,29.64,1.89-1.37-12.44,9.75-5.66,4.81-2.62,1.91-5.15,3.97-7.72,5.96-3.82,2.96-7.63,5.94-11.41,8.95-7.01,5.57-14.71,10.94-21.09,17.22-3.03,2.99-5.8,6.07-8.98,8.95-4.4,3.98-8.09,7.63-11.45,12.58-1.95,2.87-3.93,5.72-6.13,8.35-3.92,4.68-8.2,8.27-8.21,14.88.47-1.72.93-3.44,1.4-5.16-.77,1.37-1.94,2.49-2.97,3.66-6.34,7.19,1.62,18.53,10.45,13.55h0Z" style="fill:#000; stroke-width:0px;"/><path d="M1382.46,1618.99c-1.96-1.06-3.04-2.37-3.67-4.48-.85,2.08-1.7,4.17-2.54,6.25,1.33-.61,2.65-1.23,3.98-1.84-6.99-5.38-13.99-10.75-20.98-16.13-.67,2.86-1.65,8.93.59,11.68,1.65,2.01-.22-3.35.28.43.5,3.84.88,6.28,2.69,9.94,2.93,5.91,6.43,11.54,10.49,16.71,6.63,8.46,13.49,16.75,20.39,25,13.76,16.46,28.42,32.21,43.25,47.71,14.83,15.51,30.03,30.65,45.6,45.41,7.79,7.38,15.86,14.46,23.98,21.48,4.06,3.51,8.14,7,12.24,10.47,5.04,4.25,10.27,9.5,16.04,12.6,2.03,1.09,4.99,1.74,7.16,2.96,2.26.81,2.03.78-.68-.08l1.45,1.01c2.02,1.94,4.96,3.44,7.28,5.03,4.87,3.34,9.76,6.65,14.67,9.92,5.64,3.76,11.9,8.57,18.47,10.45l.78.27c5.01.75,5.95.85,2.81.3-2.17-.58-2.21-.4-.1.56.78.43,1.55.86,2.33,1.29,3.95,2.15,7.61,3.42,12.2,3.06,7.89-.62,12.76-6.9,11.21-14.72-.74-3.71-2.28-6.67-4.86-9.53-.79-.88-1.64-1.71-2.46-2.56-2-2.07-1.75-3.6-.46.92-1.9-6.69-7.97-11.8-12.84-16.47-7.69-7.37-15.19-15.03-23.04-22.23-2.28-2.09-.81.29.06.42-.27-.04-1.41-2.46-1.71-2.9-2.31-3.49-5.02-6.42-8.15-9.14-4.04-3.52-8.07-7.06-12.07-10.63-8-7.14-15.86-14.43-23.74-21.7-31.15-28.73-61.45-58.1-90.15-89.3-8.06-8.76-16.24-17.4-24.2-26.25-4.05-4.51-8.35-8.31-13-12.18-1.89-1.57-3.96-3.72-6.03-4.81-1.57-.66-3.14-1.32-4.7-1.98-1.68-.32-1.94-.31-.79.03,2.43.88-2.33-1.59-2.18-1.52-2.9-1.45-5.76-2.19-9.05-2.12-16.52.38-18.86,22.83-3.8,28.06,2.05.71,3.55,2.55,5.54,3.51s3.88,1.31,6,1.41c3.34.16,4.6-4.72,1.7-6.29h0Z" style="fill:#000; stroke-width:0px;"/><path d="M1599.37,1805.37c1.81-1.59-1.82.01.98-.81,5.86,3.33,11.72,6.65,17.58,9.98.2,1.44.4,2.88.6,4.32-5.21,6.84-10.42,13.68-15.63,20.52,5.59-.78,10.27-3.94,14.94-6.87,4.11-2.58,8.25-5.08,12.12-8.02,8.58-6.52,17.05-13.19,25.49-19.9,14.21-11.28,28-22.89,41.44-35.07,27.01-24.48,53.26-49.78,78.72-75.86,7.3-7.48,14.38-15.05,21.19-22.98,3.2-3.73,6.39-7.46,9.56-11.21,2.32-2.75,4.62-5.49,6.82-8.34,4.48-5.8,5.18-11.78,6.07-18.85-1.12,4.12-2.23,8.25-3.35,12.37,3.46-6.11,7.81-12.41,9.92-19.14,1.72-5.5,2.13-12.09,2.14-17.91,0-5.55-1.67-10.15-7.65-11.15-5.16-.86-12.07,1.06-17.13,2.42-6.39,1.72-11.23,5.5-16.5,9.22-1.16.82-6.25,3.96.02.9-3.02,1.47-2.56-.09-7.88,3.03-4.29,2.51-7.74,6.52-11.23,10.01-8.45,8.44-17.09,16.67-25.32,25.32-16.89,17.75-34.15,35.15-51.76,52.18s-35.03,32.46-52.44,48.82c-9.8,9.21-19.53,18.49-29.45,27.57-11.65,10.66-26.49,22.1-31.91,37.29-3.56,9.98,3.23,21.27,12.32,25.11,10.23,4.32,20.44.1,26.58-8.71,2.12-3.04,3.11-7.62,2.82-11.26-1.4,3.37-2.79,6.74-4.19,10.1,3.56-4.24,6.24-8.83,5.6-14.59-1.15-10.4-12.23-15.75-20.49-8.49h0Z" style="fill:#000; stroke-width:0px;"/><path d="M1826.63,1587.37l.15.92c-.64,2.37-1.28,4.74-1.92,7.11,7.64-10.93,2.05-22.41-2.88-32.97-3.07-6.57-6.55-12.98-9.8-19.46-6.27-12.53-12.56-25.05-19.32-37.33-6.78-12.31-13.34-25.23-21.42-36.75-.87-1.24-3.97-6.76-5.98-7.24.08.02,2.78,3.8,1.31,1.66-.45-.66-.94-1.29-1.41-1.94-3.06-4.17-6.22-8.27-9.39-12.35-5.07-6.53-9.87-12.81-17.31-16.85-.43-.23-2.63-1.12-.49-.09,2.19,1.05-1.13-.97-1.63-1.39-1.41-1.2-2.83-2.37-4.27-3.54-3.78-3.06-7.58-6.12-11.68-8.74-7.62-4.86-15.18-9.83-24.61-7.55-4.08.99-6.29,4.78-6.61,8.68-.66,7.96,4.04,13.66,7.98,20.01,1.01,1.63,11.05,16.77,10.73,17.02-.03.02-1.24-3.54-.51-1.36.23.69.48,1.37.72,2.06.94,2.74,1.81,5.63,3.21,8.17,1.76,3.18,4.22,6.09,6.25,9.11,1.76,2.63,3.49,5.29,5.18,7.97.85,1.34,1.69,2.69,2.52,4.04.39.63.75,1.48,1.24,2.04,1.9,2.15-2.08-5.29-.1-.79,6.05,13.76,15.42,26.37,22.98,39.41,7.02,12.11,14.13,24.14,21.52,36.04,4.1,6.6,8.23,13.29,12.78,19.59,2.82,3.91,5.75,8.52,9.12,11.89,6.66,6.67,14.36,8.67,23.46,7.13-3.62-.47-7.24-.95-10.86-1.42.76.46,1.54.89,2.32,1.31,4.5,2.47,10.1,2.23,14.16-1,4.37-3.48,5.3-8.06,4.57-13.4h0Z" style="fill:#000; stroke-width:0px;"/><path d="M1694.72,1415.24c-3.96,3.07-5.11,4.02-3.45,2.85,1.03-.71,2.02-1.46,2.97-2.27,4.87-3.76,6.99-8.13,9.35-13.55l-1.66,3.89c.43-.85.86-1.71,1.28-2.57,1.47-2.98,2.68-5.91,3.98-9.03,2.5-5.99,4.95-12,7.39-18.02,4.75-11.73,9.11-23.54,13.23-35.51s8-23.91,11.69-35.97c4.28-13.98,9.8-28.29,10.67-42.94l-.99,7.4c1.99-9.9,4.19-19.61,5.73-29.6.85-5.55,1.88-10.46.44-16.09-.81-2.48-1.79-4.89-2.93-7.24,1.39,7.01,1.79,8.51,1.2,4.49-.47-5.89-1.65-13.03-4.77-18.14-3.93-6.44-12.13-8.52-18.73-4.91-4.19,2.29-8.29,6.57-11.05,10.51-1.39,1.62-1.42,1.76-.08.44,2.48-2.24,1.21-1.3-3.83,2.81-4.41,4.07-6.17,8.43-8.43,13.85-3.5,8.42-6.94,16.8-9.89,25.44-1.03,2.9-.85,2.45.52-1.36-1.55,2.7-2.81,5.53-3.8,8.51-.85,2.44-1.51,4.95-2.28,7.42-1.34,4.32-2.68,8.65-4.05,12.96-2.82,8.94-5.72,17.86-8.65,26.77-5.84,17.79-11.57,35.64-16.98,53.57-2.69,8.9-6.01,17.79-7.93,26.9-2.2,10.46-1.26,20.7,6.77,28.57,3.29,3.23,7.45,5.59,11.91,6.75,8.73,2.27,15.56-.64,22.33-5.9h0Z" style="fill:#000; stroke-width:0px;"/><path d="M1715,1237.18c9.37,5.94,19.5,3.93,29.59,1.67,2-.45,3.98-.88,6-1.22.66-.11,1.97-.56,2.62-.41-2.88-.66-3.1.36-.82.19,5.52-.41,11.4-.68,16.77-2.09-6.26,1.64-.52.11,1.32-.1,2.03-.23,4.06-.43,6.1-.64,4.76-.47,9.52-.93,14.28-1.39,11.06-1.07,22.07-2.25,33.06-3.97,37.18-5.81,74.29-11.83,111.37-18.3,2.6-.45,5.29-.75,7.81-1.56,1.18-.5,2.36-1,3.54-1.49,4.07-1.81,4.7-2.03,1.88-.65-2.01.84-2.23,1.05-.69.63.97-.21,1.94-.42,2.92-.63,4.86-1.06,9.72-2.11,14.58-3.17,5.25-1.14,9.83-3.29,14.04-6.55.93-.72,1.85-1.43,2.78-2.15,1.65-1.38,1.71-1.37.17.02-1.42,1.15-1.52,1.35-.28.63.56-.28,1.12-.56,1.67-.85,4.75-2.41,9.39-4.9,14-7.58,6.52-3.79,9.94-11.33,8.95-18.68-.91-6.76-6.21-14.32-13.43-15.59-5.57-.98-11.15-1.82-16.77-2.48-2.27-.26-4.63-.37-6.87-.79-2.02-.2-1.3-.21,2.14-.03-1.12-.48-2.28-.77-3.49-.88-8.26-1.82-16.64.23-24.89,1.38-4.63.64-9.26,1.29-13.89,1.93,2.58-.35,5.15-.69,7.73-1.04-7.09-.75-14.65,1.52-21.66,2.8-4.58.83-9.16,1.66-13.74,2.49-9.16,1.66-18.32,3.32-27.47,4.98-19.26,3.49-38.43,7.6-57.63,11.43-18.37,3.67-36.53,8.28-54.57,13.36-9.61,2.7-18.77,6.24-27.39,11.32-4.49,2.64-8.6,5.69-12.67,8.94-2.67,2.13-4.62,4.14-6.61,7.05-1.06,1.56-1.07,1.62-.01.19-1.24,1.18-1.39,1.37-.43.56-8.22,5.59-8.68,17.16,0,22.67h0Z" style="fill:#000; stroke-width:0px;"/><path d="M1972.54,1175.44c5.03-6.11,9.08-11.58,11.77-19.12,2.06-5.76,4.02-11.56,5.85-17.41,3.65-11.64,6.69-23.37,9.16-35.31,5.27-25.52,8.48-51.39,10.11-77.39,1.54-24.59,1.74-49.25,1.07-73.87-.34-12.38-1.28-24.76-2.25-37.11-.46-5.88-.96-11.76-1.5-17.63-.28-3.09-.53-6.19-.87-9.27-.52-4.71-.78-7.07-2.48-11.08-1.6-3.61-1.62-3.81-.07-.6-.2-1.22-.4-2.43-.6-3.65-1.1-6.68-2.25-13.36-3.41-20.03-.8-4.56-2.27-8.53-4.4-12.71-.49-.97-1.11-4.01-.45-1.21-.42-1.78-.94-3.56-1.41-5.33-3.62-13.67-7.27-27.89-14.19-40.27-3.7-6.62-14.18-5.15-16.11,2.11-3.19,11.99-3.6,24.88-3.86,37.27-.06,3.04-.4,6.2-.2,9.23.04.57-.2,3.78.26.48-.16,1.11-.59,2.24-.83,3.35-1.71,7.71-.93,15.19-.58,22.98.12,2.78.24,5.56.35,8.34.04.88.72,4.91.21,5.56l.14-1.33c.38-3.46.14-1.78-.71,5.04-.17,6.13.95,12.44,1.48,18.55,1.06,12.36,1.97,24.73,2.67,37.11,2.72,48.25,3.72,96.09-1.56,144.23-.36,3.31-.78,6.62-1.19,9.93.51-4.14.13-.9,0-.06-.31,2.12-.61,4.23-.94,6.35-1.02,6.65-2.04,13.31-3.18,19.94-1.15,6.64-2.44,13.25-3.89,19.83-.93,4.21-2.19,8.42-2.49,12.74-.25,3.53.22,7,.41,10.53.3,5.55,3.23,10.55,8.53,12.68,4.76,1.91,11.62,1.43,15.16-2.87h0Z" style="fill:#000; stroke-width:0px;"/><path d="M1964.21,797.24l-1.49-.61c2.01,2.01,4.01,4.01,6.02,6.02l-.08-.23c-1.09-3.16-3.61-6.66-7.22-7.22-1.61-.25-3.22-.51-4.83-.8-.38-.07-4.16-.81-2.99-.24,1.68,1.68,3.37,3.37,5.05,5.05-4.75-7.31-11.13-8.18-19.13-9.05-1-.11-2.55-.31-.65-.05-1.91-.26-3.81-.56-5.72-.82-2.82-.38-5.65-.64-8.47-.96-.35-.04-3.9-.51-1.88-.22s-1.48-.24-1.82-.3c-2.28-.36-4.55-.76-6.82-1.2-4.85-.94-9.73-1.66-14.58-2.6-10.02-1.94-20.37-6.43-30.58-6.13,1.85-.05,1.34.18-.25-.25-1.12-.3-2.26-.55-3.38-.83-2.52-.64-5.03-1.34-7.53-2.08-4.68-1.39-9.37-2.71-14.06-4.07-6.71-1.95-14.12,1.81-16.69,8.19-2.85,7.08.03,13.23,5.79,17.67,7.83,6.03,16.35,10.83,25.33,14.96l-1.13-.95c1.45,1.27,2.99,2.43,4.6,3.48,1.96,1.12,4.11,1.99,6.25,2.71,2.2.74,4.47,1.33,6.71,1.93,5.06,1.36,10.17,2.53,15.32,3.5,10.94,2.07,21.84,2.92,32.96,2.68,5.93-.13,11.75-.78,17.61-1.71,7.08-1.13,14.59-2.55,18.11-9.68-1.68,1.68-3.37,3.37-5.05,5.05,1.51-1.02,5.48-2.38,7.81-3.35,4.59-1.92,7.19-4.92,7.59-9.96l.02-.23-2.52,6.09,1.1-.87c5.12-4.03,1.26-11-3.41-12.92h0Z" style="fill:#000; stroke-width:0px;"/><path d="M1855.96,787.86c.87,1.27,1.79,2.47,2.82,3.61-.71-1.22-1.42-2.43-2.13-3.65.21,1.31.41,2.62.62,3.93.86,5.48,6.97,11.47,12.4,12.4l.99.17c9.48,1.63,20.34-2.52,22.71-12.89,1.99-8.75-2.67-21.21-12.89-22.71-6.85-1-13.34-.26-20.2.56-4.22.5-8.39,1.36-12.6,1.86,2.95-.35,2.06-.28-.36-.02-1.45.15-2.9.3-4.35.42-11.65.98-23.41.84-35.06.03-1.75-.12-17.08-.38-17.47-1.61.1.31,4.68.66.84.09-5.28-.78-8.5-1.53-13.78-.2-3.47.87.83.12.84.07-.02.07-3.83-.43-4.28-.49-2.4-.27,3.16.47-.75-.14-2.63-.41-5.13-.73-7.75-.89-2.8-.17-5.6-.29-8.39-.54-5.87-.51-11.36.27-17.19.99-6.28.77-12.69,7.63-8.1,14.11,4.19,5.9,8.42,11.2,14.5,15.26,5.98,3.99,12.23,7.28,18.98,9.78,1.37.51,2.75,1.04,4.14,1.49,4.7,1.51-2.53-2.09,1.23.74,3.52,2.65,7.71,3.54,11.91,4.28,7.76,1.37,15.64,2.54,23.51,2.96,13.75.74,27.32-.59,40.91-2.66,14.13-2.15,30.65-5.43,41.56-15.23-9.66-7.46-19.33-14.91-28.99-22.37-.9,1.31-1.62,2.73-2.14,4.25l11.31-2.97-.47-.17c-3.09-2.42-7.03-3.25-10.34-.62-2.88,2.29-4.28,6.86-2.03,10.16h0Z" style="fill:#000; stroke-width:0px;"/><path d="M1737.09,786.68l.45-1.49c-1.02,1.75-2.04,3.5-3.06,5.25,10.93-11.3,5.06-26.18.37-38.9-3.68-9.99-7.26-20.07-11.33-29.91-8.68-21.01-17.07-42.63-27.27-62.96-2.31-4.6-5.08-9.02-7.63-13.48-4.95-8.68-11.56-16.66-22.76-15.16-9.27,1.25-15.4,8.71-15.95,18.06-.39,6.7,3.08,13.34,5.34,19.52,7.71,21.09,18.11,41.3,27.08,61.9,4.91,11.26,10.07,22.4,15.11,33.61,6.02,13.38,11.4,29.9,28.64,30.81-2-.54-4-1.08-6-1.62l1.32.77c6.07,3.56,13.73.19,15.7-6.39h0Z" style="fill:#000; stroke-width:0px;"/><path d="M1677.7,637.68c.48,0,.48-.75,0-.75s-.48.75,0,.75h0Z" style="fill:#000; stroke-width:0px;"/><path d="M1666.99,649.16c10.27,11.79,24.27,3.42,34.19-3.52,8.58-6,16.04-12.79,23.61-19.98,13.54-12.85,26.76-26.18,39.37-39.94,25.03-27.32,49.89-55,72.92-84.03,1.58-1.99,3.16-3.98,4.73-5.98,3.59-4.58,6.08-8.62,8.25-14.04,1.19-2.99-.82-.49-.28.52-.15-.28,1.67-2.89,1.89-3.26,1.26-2.17,2.51-4.35,3.76-6.52,6.28-10.95,7.39-21.45,2.38-33.11-2.87-6.69-12.98-10.11-19.59-7.97-7.96,2.58-11.7,8.77-12.74,16.73.2-1.52.47-2.67.85-4.11.61-2.32.57-1.08.08-.32-1.74,2.7,3.08-2.85.13-.14-2.69,2.48-5.34,5.02-8.04,7.49-.7.64-1.4,1.28-2.1,1.92-.61.56-3.75,2.68-1.25,1.21,2.35-1.39-.32-.03-.69.19-1.36.81-2.78,2.05-3.97,2.97-4.07,3.14-7.14,7.46-10.47,11.38-10.67,12.58-21.09,25.36-31.74,37.95-21.52,25.44-43.67,50.36-65.57,75.47-6.27,7.19-12.48,14.41-18.71,21.63-3.68,4.27-6.95,8.74-10.03,13.45-1.35,2.06-2.73,4.11-4.06,6.18-.46.72-1.17,1.55-1.47,2.35-.92,1.41-.54,1.13,1.15-.85,2.01-1.68,2.25-2.07.69-1.18-10,4.92-9.66,18.19-3.29,25.51h0Z" style="fill:#000; stroke-width:0px;"/><path d="M1846.42,440.69c-28.58-31.39-60-60.68-91.16-89.49s-62.57-57.87-93.85-86.8c-4.4-4.07-8.77-8.17-13.2-12.21-5.18-4.71-10.86-10.86-17.29-13.57l-2.51-1.06c-1.93-.57-2.25-.74-.97-.52,1.5,1.28-1.98-1.92-2.44-2.27-2.36-1.77-4.71-3.54-7.07-5.31-2.33-1.75-4.61-3.74-7.07-5.31-3.32-2.12-7.01-3.14-10.73-4.27-9.49-2.89-21.32,7.19-17.3,17.3,1.15,2.88,2.09,6.02,3.57,8.74,1.6,2.94,4.25,5.47,6.47,7.98,3.52,3.98,7.22,7.87,10.6,11.98,3.13,3.8.6,1.13.4.81,1.57,2.58,1.02,2.6,4.09,6,1.77,1.96,3.82,3.73,5.71,5.58,3.81,3.72,7.74,7.31,11.66,10.92,15.68,14.43,31.35,28.86,47.03,43.3,31.37,28.88,62.66,57.81,94.61,86.04,18,15.9,36.06,31.87,55.05,46.57,7.12,5.51,17.55,7.46,24.4,0,6.56-7.15,6.5-17.26,0-24.4h0Z" style="fill:#000; stroke-width:0px;"/><path d="M1492.87,316.19c1.16-3.49,2.33-6.98,3.49-10.47.08-.24-.3-.35-.39-.11-1.16,3.49-2.33,6.98-3.49,10.47-.08.24.3.35.39.11h0Z" style="fill:#000; stroke-width:0px;"/><path d="M1560.05,246.07c-1.03,1.34,1.54-.26.37-.1-2.08.29-3.72,1.48-6.02.9,4.38-10.4,8.77-20.79,13.15-31.19-6.42-3.37-12.85-3.91-19.8-1.71-4.8,1.52-9.46,3.79-14.03,5.91-3.25,1.51-6.45,3.12-9.61,4.82-1.68.9-3.34,1.83-5,2.78-.42.24-2.38,1.17-2.47,1.44.1-.3,4.59-1.58,1.37-.67-9.53,2.69-18.79,11.73-26.37,17.67-5.92,4.64-11.69,9.47-17.37,14.4-22.73,19.73-44.04,41-67.19,60.27-1.64,1.37-3.31,2.7-4.98,4.04-1.99,1.6-1.36-.25,1.3-1-1.34.38-3.75,2.85-4.62,3.51-2.37,1.83-4.26,3.89-5.9,6.42,1.22-1.89-3.16,6.12-2.93,7.51-.1-.58,4.65-6.41,2.66-5.16-.93.59-1.73,1.58-2.57,2.32-6.34,5.6-12.95,11.3-17.09,18.79-3.01,5.45-.24,11.92,5.6,13.77,7.54,2.4,17.08,1.7,24.61-.6,1.77-.54,3.53-1.11,5.28-1.71.64-.22,1.34-.4,1.96-.68,5.07-2.35-6.73.15-5.74-.84.38-.38,6.11.95,6.8,1,2.39.15,5.21-.11,7.28-.78,3.26-1.05,6.24-2.73,9.14-4.51,14.32-8.78,27.34-19.14,39.73-30.45,22.21-20.27,42.6-42.67,66.2-61.36.73-.58,2.88-2.77.52-.42-1.55,1.19-1.56,1.21-.02.04,1.53-1.18,3.06-2.37,4.6-3.55,2.05-1.78,2.19-2.46,4.62-5.49-.58.73-4.89,4.63-3.34,3.51,3.29-2.4,6.56-4.81,9.95-7.06,3.59-2.37,7.27-4.55,10.99-6.71,6.76-3.93,11.96-8.51,14.26-16.23,2.44-8.17-2.27-16.92-9.88-20.13-8.09-3.41-16.52-.16-21.31,6.98-.21.31-2.32,3.43-.45.97-.92,1.21-2.02,2.32-2.95,3.53-2.3,3-3.66,5.95-5.08,9.5-2.43,6.07,2.16,13.47,7.71,15.7,6.67,2.68,12.45-.03,16.62-5.45h0Z" style="fill:#000; stroke-width:0px;"/><path d="M1388.86,380.1c-3.24-4.29-6.26-7.82-10.65-10.97-3.11-2.23-6.27-4.4-9.39-6.61,2.25,2.25,4.5,4.5,6.75,6.75-5.22-7.91-12.96-11.92-20.81-16.72-5.98-3.66-12.03-7.14-18.12-10.59-11.9-6.74-23.51-14.05-35.46-20.69-2.51-1.4-5.23-2.54-7.97-3.44-5.59-1.82,3.6,2.07-1.8-.66-2.85-1.44-5.72-2.83-8.57-4.26-3.62-1.81-7.19-3.74-10.92-5.31-2.81-1.19-6.23-2.01-9.31-1.98-2.19-.03-2.18.19.02.66,2.24.79,2.22.7-.09-.27-12.39-6.51-26.33-12.07-40.11-14.53-5.68-1.01-12.2,4.99-8.26,10.74,4.5,6.56,9.73,11.99,15.32,17.62,2.65,2.67,5.55,4.95,8.49,7.3,1.46,1.17,2.92,2.33,4.39,3.49.73.58,1.46,1.16,2.2,1.74,1.57,1.26,1.95,1.56,1.13.87-.71-.69-.6-.26.33,1.27.84,1.14,1.69,2.26,2.57,3.37,2.39,3.09,5.57,5.12,8.73,7.33,3.14,2.2,6.29,4.38,9.44,6.56,1.57,1.08,3.22,2.09,4.74,3.25-2.95-2.27.36.54,1.38,1.37,4.06,3.28,8.4,5.67,12.95,8.16,13.38,7.32,26.77,14.88,40.56,21.41,7.76,3.67,15.96,8.06,24.13,10.67,2.35.45,4.72.8,7.1,1.04-1.82-.28-2.04-.22-.65.18,1.46.93,3.68,1.26,5.32,1.82,4.71,1.6,9.09,2.23,14.06,2.23,10,0,19.35-12.7,12.5-21.79h0Z" style="fill:#000; stroke-width:0px;"/><path d="M1223.88,298.88c.26,0,.26-.4,0-.4s-.26.4,0,.4h0Z" style="fill:#000; stroke-width:0px;"/><path d="M1247.95,282.56c-4.96-32.32-10.42-64.45-16.4-96.59-2.92-15.69-5.52-31.46-9.18-46.99-1.83-7.75-3.65-15.5-5.48-23.25-2.63-11.15-3.79-25.69-15.51-31.17,2.44,2.44,4.89,4.89,7.33,7.33,1.53,3.36-.76-2.47-.8-2.58l-1.69-4.69c-1.51-4.18-2.92-8.4-5.35-12.15-1.75-2.7-3.98-4.98-5.92-7.45-2.39-3.04-4.43-5.97-7.35-8.55-2.94-2.6-8.33-2.69-10.31,1.33-2.89,5.88-5.1,13.01-6.33,19.44-1.6,8.37-.03,16.56-.35,24.97l5.99-14.46c-2.95,3.17-5.1,6.45-6.43,10.55-1.56,4.81-.32,9.91.41,14.71.61,3.96,1.26,7.91,1.89,11.86,1.31,8.24,2.62,16.47,3.93,24.71,2.56,16.1,6.12,32,9.44,47.95,6.7,32.21,13.87,64.21,21.59,96.19,2.58,10.68,15.28,18.08,25.83,14.67,11.86-3.84,16.46-14.16,14.67-25.83h0Z" style="fill:#000; stroke-width:0px;"/><path d="M1168.7,72.87c1.55-6.36.59-12.53-2.46-18.34-3.41-6.5-9.92-10.08-16.49-12.63-4.17-1.62-8.79-1.99-13.19-2.72-6.5-1.08-12.89-2.46-19.44-3.24-21.46-2.55-42.96-4.99-64.5-6.77-42.38-3.49-84.71-5.89-127.22-6.95-6.01-.15-11.91-.21-17.91.16-2.98.18-5.97.33-8.95.56-5.58.44-9.47,1.46-14.45,3.56l-2.63,1.11c1.97-1.07,2.18-1.41.64-1.02-1.27-.31-3.39.53-4.75.74-2.85.45-5.7.9-8.55,1.35-7.81,1.25-14.41,4.67-19.08,11.08-2.46,3.37-2.36,9.48,0,12.87,6.94,9.94,18.47,11.22,29.53,13.3,1.07.2,2.8.79,3.8.72.18-.01-3.35-1.44-.8-.66,1.7.52,3.6,1.61,5.2,2.28,3.06,1.29,5.81,1.65,9.1,2.03,5.3.62,10.61,1.12,15.92,1.68,9.83,1.05,19.96.73,29.84,1.08s19.89.75,29.83,1.19c39.72,1.76,79.47,3,119.19,4.8,11.25.51,22.47,1.2,33.72,1.13,1.35,0,15.83.43,15.86.2-.08.68-4.82-1.09-1.73-.18,3.41,1-2.66-1.49-.66-.31.98.58,4.06,2.29,5.19,2.27-1.83.03-5.88-3.72-6.54-5.22,2.72,6.18,11.12,9.05,17.19,8.24,6.55-.88,12.72-5.7,14.34-12.36h0Z" style="fill:#000; stroke-width:0px;"/><path d="M840.53,40.6c-3.76,3.36-5.57,7.77-7.63,12.24-2.58,5.61-4.31,11.46-5.38,17.55,0,.05-.52,3.25-.13,1.4.62-2.96-1.51,3.69-1.92,5.23-.6,2.22-1.01,4.52-1.51,6.77l-3.26,14.51c-4.29,19.1-7.55,38.32-10.89,57.6-3.34,19.31-6.31,38.67-9.35,58.02-3.26,20.75-7.88,41.86-9.09,62.81-.56,9.71-3.62,19.92-2.78,29.6.23,2.61.59,5.32,1.26,7.86-.07-.28-.25-3.6-.04-.95.18,2.3.31,4.6.46,6.91.49,7.39.37,15.82,6.3,21.26,5.32,4.89,13.14,6.65,19.53,2.52,6.56-4.23,8.83-10.81,11.46-17.76.82-2.16,1.51-4.41,2.46-6.51-1.55,3.42,1.13-1.64,1.63-2.61,3-5.81,3.77-11.86,4.96-18.17,1.85-9.8,4.11-19.44,5.5-29.3s2.79-19.77,4.19-29.66c2.96-20.94,6.11-41.86,8.82-62.83s6.01-43.35,7.65-65.12c.4-5.26.79-10.52,1.19-15.79l.67-8.88c.07-.99.15-1.97.22-2.96.22-2.86-.56-5.49-.48-8.29-.04,1.3.14,2.54.6-.59.19-1.29.19-2.64.28-3.95.19-2.61.53-5.27.44-7.89-.21-6.41-1.38-14.87-4.72-20.38-4.53-7.46-14.17-8.25-20.44-2.63h0Z" style="fill:#000; stroke-width:0px;"/><path d="M809.92,302.68c-7.17-1.04-15.1-1.19-22.25.61-6.68,1.68-13.36,4.82-19.86,7.13-1.19.42-2.45.79-3.62,1.28l1.56.04c-2.47.05-4.85.47-7.16,1.27-3.02,1.03-5.97,2.46-8.92,3.67-7.72,3.17-15.48,6.25-23.16,9.54-5.99,2.57-11.97,5.17-17.96,7.73-3,1.28-5.99,2.56-8.99,3.84-1.8.77-3.6,1.53-5.4,2.29-.66.28-6.76,2.88-1.51.64-7.4,3.15-15.88,5.64-22.8,9.64-6.15,3.55-12.3,7.09-18.59,10.45-5.92,3.17-12.28,6.01-17.89,9.7s-8.44,8.64-10.64,15.04c-1.29,3.76.95-1.83-.27.76s-2.56,5.14-2.59,8.13c-.07,8.03,6.58,10.5,12.96,12.75,3.97,1.4,6.79,2.94,11.28,2.94,5.24,0,9.96-2.2,14.74-4.01,14.26-5.39,29.12-10.02,42.67-16.96,12.39-6.34,24.75-12.75,37.07-19.22,6.88-3.61,13.71-7.3,20.48-11.12,3.38-1.91,6.76-3.82,10.14-5.74,1.12-.64,2.27-1.26,3.38-1.92,1.02-.61,9.85-7.2,6.27-4.66,6.05-4.3,12.54-8.12,18.77-12.15,7.17-4.63,13.43-11.46,17.44-18.99,2.33-4.37.64-11.83-5.15-12.67h0Z" style="fill:#000; stroke-width:0px;"/><path d="M633.79,368.39l.65,3.63-.62-4.59c-.78-2.81-2.47-5.52-4.44-7.61-2.16-2.3-4.81-4.08-7.35-5.95-4.01-2.96-7.96-6.06-12.1-8.85-8.51-5.74-17.32-11.09-25.97-16.63-17.03-10.91-34.35-21.29-51.71-31.67s-33.83-21-51.26-30.47c-9.03-4.9-18.25-9.49-27.37-14.23s-18.26-8.08-27.16-12.62c-20.4-10.42-40.7-21.31-62.42-28.79-6.79-2.34-11.96,7.15-6.93,11.91,14.8,14.01,31.54,25.68,48.12,37.45,4.07,2.89,8.15,5.76,12.21,8.66,3.74,2.67,7.03,6.01,10.7,8.85,8.46,6.54,17.49,12.41,26.25,18.54,16.29,11.39,33.58,21.35,50.51,31.75s34.33,21.35,51.88,31.39c9.78,5.6,19.55,11.19,29.33,16.79,4.91,2.81,9.95,5.28,15.03,7.76,3.15,1.54,6.3,3.27,9.62,4.41,1.93.67,4.38,1.15,6.42,1.15l4.59-.62c1.54-.55,1.72-.63.51-.23,10.53-.17,16.01-11.06,11.49-20.03h0Z" style="fill:#000; stroke-width:0px;"/><path d="M664.79,1151.8c-.84-6.76-1.54-13.53-2.05-20.33-.11-1.46-.05-2.93-.13-4.38-.94-7.2-1.08-8.18-.44-2.92-.09-.73-.17-1.46-.25-2.19-.36-3.17-.68-6.35-.96-9.52-1.19-13.23-1.75-26.52-1.73-39.81.05-26.61,1.43-53.49,4.92-79.88-.33,2.48-.67,4.95-1,7.43,3.86-28.43,10.22-56.5,19.06-83.8,2.21-6.84,4.58-13.62,7.09-20.35,1.21-3.25,2.46-6.49,3.75-9.71.64-1.61,1.29-3.22,1.95-4.83.28-.69.57-1.37.85-2.06,1.35-3.31-2.89,6.71-.94,2.23,5.75-13.16,11.66-26.21,18.36-38.92,6.68-12.69,13.93-25.08,21.74-37.11,3.9-6.01,7.94-11.93,12.11-17.76,1.87-2.61,3.77-5.2,5.69-7.77,1.13-1.51,2.66-3.08,3.58-4.72.24-.43-4.29,5.48-2.35,3.06.77-.97,1.52-1.94,2.29-2.91,17.69-22.23,37.47-42.8,59.12-61.2,3.21-2.73,6.45-5.41,9.74-8.04,1.67-1.34,3.34-2.7,5.06-3.99.22-.16-5.16,3.92-2.56,2,1.16-.86,2.31-1.75,3.47-2.61,7.43-5.53,15.05-10.82,22.84-15.82,16.06-10.3,32.91-19.33,50.48-26.78l-7.11,3c23.38-9.75,47.78-16.22,72.88-19.59l-7.89,1.06c40.15-5.15,80.99-2.92,121.01,2.36l-7.69-1.03c39.51,5.31,78.49,14.37,115.98,28.03,4.61,1.68,9.19,3.43,13.75,5.25,2.05.82,4.08,1.66,6.12,2.49,3.47,1.42-6.99-3-2.03-.86,1.35.58,2.69,1.16,4.04,1.75,8.91,3.91,17.7,8.11,26.34,12.6,17.49,9.1,34.35,19.41,50.26,31.06,1.73,1.27,3.44,2.56,5.15,3.85,2.93,2.19-5.86-4.6-1.73-1.34.75.59,1.5,1.18,2.24,1.77,4.08,3.25,8.09,6.6,12.02,10.05,7.11,6.24,13.96,12.79,20.48,19.64,6.55,6.87,12.42,14.22,18.55,21.45-6.1-7.2-.56-.7.8,1.15s2.79,3.84,4.15,5.79c2.86,4.11,5.62,8.29,8.26,12.54,5.35,8.63,10.22,17.55,14.58,26.71,1.29,2.7,2.53,5.42,3.73,8.16.76,1.73,2.03,5.9-.34-.85.39,1.12.91,2.22,1.35,3.32,2.44,6.11,4.68,12.29,6.74,18.53,7.51,22.79,12.58,46.34,16.06,70.07.22,1.49.42,2.98.63,4.46.29,2.14.17,1.19-.38-2.84.15,1.19.31,2.39.45,3.58.41,3.28.78,6.56,1.14,9.85.74,6.92,1.38,13.86,1.91,20.8,1.03,13.41,1.57,26.85,1.7,40.3.28,28.12-1.33,56.23-4.99,84.12l.99-7.39c-4.84,35.92-13.14,71.37-25.69,105.39-1.43,3.88-2.91,7.74-4.45,11.58-.68,1.69-1.3,3.42-2.07,5.06.13-.28,2.86-6.65,1.02-2.43-.42.96-.83,1.91-1.24,2.87-3.14,7.16-6.48,14.24-10.01,21.21-6.96,13.73-14.68,27.07-23.15,39.93-4.3,6.53-8.79,12.94-13.47,19.21-1.09,1.46-2.17,2.94-3.3,4.36.2-.25,4.47-5.69,1.6-2.1-.49.61-.97,1.22-1.46,1.83-2.43,3.05-4.91,6.06-7.44,9.03-10.09,11.87-20.92,23.11-32.45,33.58-5.56,5.06-11.29,9.93-17.18,14.61-.81.65-1.63,1.28-2.44,1.93-2.43,1.92,3.05-2.45,2.79-2.15-1.27,1.41-3.45,2.6-4.98,3.72-3.14,2.3-6.31,4.54-9.53,6.72-12.98,8.82-26.6,16.69-40.74,23.51-4.2,2.02-8.45,3.9-12.71,5.79-2.93,1.3,3.55-1.53,3.22-1.35-1.17.62-2.55,1.05-3.79,1.55-2.28.91-4.56,1.8-6.86,2.67-8.41,3.16-16.95,5.98-25.59,8.47-17.57,5.07-35.51,8.71-53.62,11.17,2.62-.35,5.25-.71,7.87-1.06-38.92,5.12-78.41,4.61-117.3-.5,2.66.36,5.33.72,7.99,1.07-49.73-6.7-98.21-20.55-144.44-39.98,2.47,1.04,4.94,2.08,7.41,3.13-39.25-16.62-76.93-37.19-110.79-63.18,2.15,1.66,4.3,3.32,6.45,4.99-24.44-18.91-46.77-40.46-65.76-64.88,1.71,2.21,3.42,4.42,5.13,6.64-16.27-21.14-29.96-44.14-40.45-68.68,1.12,2.66,2.24,5.31,3.36,7.97-9.42-22.41-16.06-45.84-19.3-69.94l1.21,8.98c-1.01-7.9-1.68-15.82-1.93-23.78-.32-10.31-2.7-20.23-4.12-30.4l1.09,8.14c-.69-5.22-.74-10.93-2.32-15.88l1.02,7.63.17-1.65c.7-6.88-3.7-15.58-8.4-20.29-4.98-4.98-13.14-8.72-20.29-8.4-7.42.33-15.11,2.77-20.29,8.4-5.43,5.92-7.6,12.31-8.4,20.29l-.17,1.65c1.31-4.83,2.61-9.65,3.92-14.48-3.53,6.53-5.3,13.67-6.96,20.84-1.91,8.22-3.43,16.5-3.03,24.97.63,13.69,2.4,27.4,4.83,40.87,4.49,24.94,12.97,48.73,23.38,71.78,19.57,43.32,49.73,82.02,85.22,113.47,36,31.9,77.06,57.83,120.69,77.92,43.35,19.96,88.63,35.74,135.45,45.19,95.35,19.26,195.86,15.22,284.63-27.25,81.28-38.89,145.03-111.44,181.55-193.01,42.35-94.58,52.38-200.33,40.53-302.63-6.06-52.35-18.02-104.01-43.76-150.46-19.73-35.6-47.12-67.29-78.78-92.79-65.89-53.05-147.03-84.25-229.96-98.39-52.2-8.9-105.06-12.69-157.66-5.25-49.91,7.06-97.36,29.17-138.26,58.16-70.9,50.26-127.25,119.79-162.02,199.46-17.18,39.36-29.49,80.65-35.94,123.14-3.38,22.28-5.7,44.68-6.2,67.21-.49,22,2.16,44.06,5.48,65.78,1.49,9.71,3.31,19.37,5.45,28.96.21.96.42,1.93.65,2.88l.26,1.46c2.8,6.4,3.14,7.33,1.02,2.78-.2.1,2.04,6.5,2.22,7.06,1.53,4.71,3.15,9.4,4.83,14.06,3.42,9.48,11.65,15.76,22.01,14.37,8.87-1.19,18.63-9.79,17.4-19.7h0Z" style="fill:#000; stroke-width:0px;"/><path d="M218.14,862.29c.65,4.66.97,9.76,2.52,14.21,1.79,5.12,4.32,10.44,7,15.14,5.06,8.87,10.78,17.54,17.09,25.56,12.65,16.06,26.1,31.56,40.5,46.07,30.76,31,63.04,60.54,94.66,90.65,66.32,63.16,132.23,126.74,198.09,190.37,65.63,63.41,130.96,127.13,195.97,191.18,65.24,64.27,130.17,128.87,194.78,193.78,64.61,64.91,128.9,130.14,192.87,195.68,3.63,3.72,7.15,7.62,10.92,11.2,4.56,4.33,10.29,7.14,15.7,10.31,9.51,5.57,19.99-5.44,14.81-14.81-2.86-5.18-5.36-10.86-9.36-15.27-4.14-4.58-8.65-8.88-12.97-13.3-7.75-7.93-15.5-15.85-23.25-23.76-15.97-16.3-31.95-32.57-47.96-48.83-32.01-32.52-64.1-64.95-96.27-97.31-64.57-64.95-129.46-129.58-194.67-193.89-64.97-64.08-130.26-127.85-195.86-191.29-65.6-63.45-131.71-126.37-198.1-188.99-32.44-30.6-65.13-60.94-97.49-91.62-15.07-14.29-29.97-28.81-44.4-43.74-14.12-14.61-27.05-30.24-40.68-45.27-2.99-3.3-6.17-6.92-9.49-9.88-3.51-3.13-7.77-5.59-11.53-8.41-1.56-1.17-3.1.76-2.89,2.22h0Z" style="fill:#000; stroke-width:0px;"/><path d="M100.92,955.7c28.7,37.61,63.2,70.05,97.01,103,33.99,33.13,69.38,64.93,104.41,96.96,69.7,63.72,140.1,126.66,210.61,189.48,70.69,62.98,141.21,126.15,210.63,190.53,69.25,64.23,137.41,129.66,203.4,197.25,65.71,67.29,129.55,136.49,190.01,208.54,3.63,4.32,7.56,8.04,11.78,11.79,4.61,4.1,8.65,8.82,12.82,13.36,7.84,8.54,23.36-2.92,16.34-12.61-3.41-4.71-7.12-9.32-10.09-14.32-3.28-5.53-6.63-10.75-10.75-15.71-7.72-9.29-15.5-18.54-23.34-27.74-15.25-17.92-30.7-35.66-46.33-53.25-31.45-35.38-63.63-70.08-96.52-104.13-65.6-67.93-133.5-133.61-202.62-197.94-69.29-64.5-139.81-127.66-210.61-190.51-70.88-62.93-142.24-125.32-212.98-188.41-35.47-31.63-70.78-63.44-105.81-95.57-17.4-15.95-34.91-31.77-52.4-47.61-17.53-15.87-34.64-32.16-53.3-46.71-9.14-7.13-17.9-14.56-27.28-21.39-2.88-2.09-7.2,2.13-5,5h0Z" style="fill:#000; stroke-width:0px;"/><path d="M85.32,1118.43c1.89-1.25.74-.08-.55-.63,1.51.65,3.39.22,4.91.15,1.75-.08.23-.56,1.88.33.97.52,1.73,1.61,2.43,2.43,4.34,5.14,8.16,10.72,12.54,15.84,8.59,10.04,18.65,19.16,28.41,28.04,4.82,4.39,9.75,8.61,14.84,12.68,2.75,2.2,5.53,4.36,8.32,6.52,3.02,2.33,5.83,3.54,9.18,5.21,5.72,2.84,11.09,6.83,16.63,10.04,5.98,3.46,12.24,5.83,18.87,7.77,2.87.84,4.46-2.67,2.74-4.7-5.2-6.12-10.64-11.36-16.72-16.58-2.89-2.48-5.75-4.99-8.59-7.54-3.12-2.8-5.32-6.21-8.56-8.87-11.89-9.74-23.7-19.65-35.03-30.04-11.17-10.26-21.8-21.13-33.31-31.01-5.12-4.39-13-8.14-19.49-4.01-4.41,2.81-5.92,11.08-1.24,14.37.74.52,1.99.49,2.73,0h0Z" style="fill:#000; stroke-width:0px;"/><path d="M372.19,1401.26c3.91,3.15,8.03,6.03,11.67,9.48,4.37,4.15,9.63,6.95,14.68,10.26,8.8,5.77,17.28,12.01,25.47,18.61,17.32,13.96,33.47,29.24,49.96,44.15,36.86,33.35,73.64,66.79,110.34,100.31,10.09,9.22,20.39,17.95,30.87,26.71,5.35,4.48,10.71,8.96,16.06,13.44,5.54,4.64,10.8,9.73,17.44,12.77,5.16,2.37,11.17-2.59,8.08-8.08-5.96-10.6-16.66-18.97-25.16-27.52-8.9-8.95-17.57-17.96-26.88-26.5-18.56-17.02-37.15-34.01-55.75-50.98-34.93-31.87-69.17-64.98-106.18-94.46-9.77-7.78-19.77-15.28-30.22-22.12-5.36-3.51-11.07-7.8-17.11-10.03-5.67-2.1-12.13-3.71-18.07-4.98-4.71-1.01-9.69,5.31-5.2,8.93h0Z" style="fill:#000; stroke-width:0px;"/><path d="M838.09,1795.29c-.97-2.24-1.98-4.47-2.83-6.76-2.04,2.04-4.09,4.09-6.13,6.13,1.02.27,2.64,1.63,3.88,2.17,1.64.72,3.02,1.1,4.51,2.15,3.13,2.2,5.69,5.27,8.34,7.99,6.19,6.36,12.34,12.75,18.47,19.17,12.25,12.85,24.31,25.87,36.37,38.89,12.06,13.02,24.02,26.14,35.83,39.39,5.91,6.62,11.9,13.14,17.94,19.65,3.01,3.25,6.02,6.51,9.02,9.77,3.2,3.49,6.4,6.28,10.12,9.17,7.69,5.98,14.24,14.39,20.98,21.42,6.77,7.06,13.59,14.03,21.4,19.94,2.8,2.12,5.73-1.84,4.43-4.43-8.3-16.41-21.05-30.79-32.27-45.27-3-3.86-4.83-8.24-8.06-12.06s-6.16-7.26-9.26-10.87c-5.98-6.99-12-13.92-18.26-20.67-25.65-27.63-51.97-54.61-78.96-80.93-7.3-7.12-14.42-14.65-22.18-21.26-7.11-6.05-17.36-11.62-24.49-2.56-1.78,2.27-2.21,6.33,1.01,7.83,2.53,1.18,4.99,2.53,7.46,3.83,1.86.98,3.45-.94,2.69-2.69h0Z" style="fill:#000; stroke-width:0px;"/><path d="M316.52,1521.33l1.38-.26h-3.85c3.86.63,7.66,5.55,10.56,8.12,4.02,3.57,8.04,7.16,12.05,10.75,7.56,6.77,15.39,13.28,23.27,19.68,16.07,13.05,31.98,26.3,48.09,39.29,32.29,26.03,64.12,52.62,95.48,79.77,8.69,7.53,17.65,14.79,26.54,22.09,4.95,4.06,10.5,7.02,15.79,10.61,2.29,1.55,4.58,3.41,7,4.76,2.79,1.56,5.68,1.7,8.74,2.28,3.31.63,6.82-2.09,5.71-5.71-1.59-5.19-3.11-8.56-6.73-12.73-3.77-4.35-7.18-9.05-10.97-13.35-7.02-7.98-15.92-15.02-23.86-22.07-16.22-14.4-33.07-28.16-49.77-41.98-33.5-27.72-67.48-54.71-102.52-80.46-9.72-7.15-19.7-13.94-29.88-20.41-5.09-3.23-10.22-6.4-15.28-9.66-4.96-3.19-9.42-6.27-15.56-4.55-9,2.51-5.16,15.52,3.81,13.83h0Z" style="fill:#000; stroke-width:0px;"/><path d="M326.86,793.65c-1.07,5.24,1.99,8.99,4.57,13.46,3.25,5.65,6.77,10.9,10.64,16.15,7.84,10.65,16.18,20.76,24.7,30.88,16.87,20.05,33.72,40.14,50.94,59.89,16.78,19.24,33.63,38.43,50.55,57.55s34.34,39.61,52.44,58.48c20.2,21.06,39.77,43.21,63.83,60,4.18,2.91,9.08-2.69,6.73-6.73-13.2-22.68-31.11-42.01-48.14-61.82-16.64-19.36-34.05-38.04-51.19-56.97-34.69-38.31-69.13-76.85-103.66-115.29-9.6-10.69-18.9-21.72-29.11-31.82-5.37-5.32-10.6-10.62-16.47-15.37-4.54-3.68-9.17-9.12-15.28-8.81-.23.01-.49.17-.54.41h0Z" style="fill:#000; stroke-width:0px;"/><path d="M904.58,1438.7c1.16,2.76,2.14,5.92,3.76,8.44,1.52,2.36,3.81,4.13,5.84,6.03,4.73,4.42,9.45,8.85,14.17,13.28,8.96,8.42,17.9,16.87,26.81,25.35,17.37,16.51,34.94,32.79,52.47,49.13,35.79,33.35,70.96,67.33,106.44,101,5.02,4.77,10.48,8.69,15.71,13.15,5.18,4.42,10.24,9,15.34,13.52,10.35,9.15,21.1,17.85,32.07,26.24,4.26,3.26,10.78-3.24,7.5-7.5-7.41-9.64-15.03-19.23-23.21-28.23-3.93-4.32-7.86-8.63-11.79-12.94-4.4-4.82-8.2-10.11-12.56-14.92-16.03-17.67-34.21-33.75-51.48-50.2-35.39-33.72-70.8-67.6-107.63-99.75-10.26-8.96-20.55-17.88-30.87-26.78-5.16-4.45-10.33-8.89-15.5-13.32-2.46-2.11-4.88-4.29-7.4-6.33-3.28-2.65-7.14-3.58-11.12-4.72-4.61-1.32-10.69,3.51-8.56,8.56h0Z" style="fill:#000; stroke-width:0px;"/><path d="M373.95,703.58c1.26,3.88,1.12,7.35,3.81,10.62,3.12,3.79,6.71,7.27,10.08,10.85,6.12,6.51,12.25,13.02,18.37,19.54,12.47,13.26,25.02,26.46,37.56,39.65,25.1,26.4,51.99,50.97,78.38,76.05,14.83,14.09,30.46,27.14,46.66,39.64,5.6,4.32,10.7-4.41,6.99-9.06-11.4-14.24-23.21-28.21-36.01-41.2-12.54-12.73-25.08-25.46-37.62-38.19-25.36-25.74-51.72-50.26-78.49-74.54l-22.08-20.04c-3.92-3.56-7.8-7.18-11.78-10.69-1.6-1.41-3.28-3.12-5.28-3.94-2.32-.94-5.19-.89-7.66-1.64-1.7-.52-3.5,1.22-2.94,2.94h0Z" style="fill:#000; stroke-width:0px;"/><path d="M544.97,887c6.97,8.4,12.92,17.31,20.72,24.99,7.68,7.55,14.76,15.88,22.76,23.07,7.82,7.03,15.62,14.07,23.41,21.12,4.08,3.69,8.51,6.6,12.54,10.31,3.93,3.62,7.44,6.88,12.49,8.88,2.67,1.05,4.5-1.92,4.15-4.15-.82-5.22-3.58-9.39-6.37-13.77s-5.08-9.28-8.18-13.68c-6.53-9.26-13.55-18.47-21.13-26.91-7.16-7.98-15.83-14.9-24.02-21.81-8.85-7.48-18.76-12.31-28.89-17.77-6.43-3.46-11.9,4.41-7.5,9.72h0Z" style="fill:#000; stroke-width:0px;"/><path d="M1195.16,1716.46v.05c5.76-4.38,11.52-8.77,17.27-13.15,1.44.41,2.88.92,3.09,1.46-.42-1.07-2.36-2.26-3.17-3.03-2.34-2.2-4.7-4.38-7.13-6.48-4.43-3.82-9.02-7.45-13.63-11.04-10.47-8.15-21.15-15.74-32.29-22.95-2.45-1.58-4.85-3.31-7.41-4.7-2.91-1.58-6.08-2.18-8.92-3.84-5.28-3.1-10.52-6.26-15.72-9.48-5.17-3.2-10.34-6.4-15.53-9.58-5.14-3.15-10.17-6.86-16.04-8.53-2.44-.69-5.59,1.84-4.5,4.5,4.49,10.95,15.5,19.92,24.11,27.68,4.71,4.24,9.37,8.75,14.39,12.62,2.8,2.16,4.43,5.24,7.06,7.67,2.32,2.14,5.11,3.96,7.6,5.9,10.12,7.87,20.87,15.73,30.73,23.38,5.09,3.95,10.05,8.06,15.01,12.17,4.57,3.79,9.07,9.19,15.09,10.56,10.8,2.45,18.54-6.46,16.78-16.78v-.05c-1.13-6.6-8.88-10.69-14.98-9.77-6,.9-12.7,6.59-11.83,13.4h0Z" style="fill:#000; stroke-width:0px;"/><path d="M1290.43,1661.47c-2.28-4.58-6.64-7.48-10.51-10.61-4.64-3.76-9.28-7.52-13.92-11.29-8.77-7.11-17.53-14.21-26.3-21.32-17.79-14.42-35.58-28.85-53.37-43.27-17.8-14.43-35.52-28.94-53.51-43.13-9.13-7.21-18.27-14.41-27.4-21.62-4.17-3.29-8.35-6.59-12.52-9.88-2.09-1.65-4.17-3.31-6.26-4.94-2.99-2.33-6.46-3.28-9.53-5.4-21.12-14.58-40.55-32.09-62.94-44.74-6.09-3.44-11.92,4.45-7.33,9.5,15.03,16.55,33.27,30.47,50.16,45.08,3.75,3.25,7.75,6.21,10.65,10.22,3.59,4.98,9.53,8.62,14.29,12.46,8.78,7.09,17.56,14.18,26.34,21.28,34.91,28.19,70.36,55.71,105.63,83.45,9.93,7.81,19.86,15.62,29.79,23.43,4.97,3.9,9.93,7.81,14.9,11.71,3.52,2.77,11.09,7.28,12.65,10.3,2.75,5.33,10.22,6.9,15.2,3.99,5.47-3.2,6.67-9.81,3.99-15.2h0Z" style="fill:#000; stroke-width:0px;"/><path d="M233.65,377.82c3.06,3.3,6.13,6.59,9.18,9.9,3.55,3.84,6.16,8.31,9.52,12.28,6.18,7.29,13.11,14.26,19.9,20.98,13.46,13.34,26.88,26.72,40.25,40.15,26.97,27.09,53.9,54.23,80.74,81.44,53.69,54.41,106.72,109.51,158.84,165.43,14.46,15.51,28.83,31.1,43.15,46.73,7.38,8.05,14.79,16.05,22.33,23.96s16.19,14.62,24.64,21.64c5.7,4.73,15.82-1.39,11.04-8.52-5.39-8.04-10.38-16.61-16.66-23.97-6.26-7.34-12.62-14.59-19.13-21.71-13.01-14.22-26.06-28.4-39.17-42.54-25.99-28.03-52.09-55.97-78.41-83.7-52.63-55.45-105.8-110.42-160.42-163.92-15.38-15.06-30.81-30.06-46.31-45-7.88-7.6-16.01-14.86-24.21-22.12-3.97-3.52-8.4-6.15-12.62-9.33-4.58-3.45-8.79-7.5-13.14-11.24-6.54-5.63-15.52,3.11-9.55,9.55h0Z" style="fill:#000; stroke-width:0px;"/><path d="M1135.47,1453.61c3.47-1.2,1.88-6.43-.83-7.71-2.31-1.09-4.7-.9-6.62.85-3.18,2.9-3.33,7.26-1.51,11.01,1.79,3.69,4.79,5.08,7.77,7.55,8.05,6.7,14.97,15.12,22.71,22.22,15.63,14.33,31.55,28.36,47.32,42.54,31.55,28.36,63.1,56.72,94.64,85.08,8.67,7.8,18.24,14.49,27.33,21.81,9.14,7.36,18.3,16.86,29.42,21.04,5.2,1.95,8.79-4.49,6.67-8.68-4.51-8.89-13.22-15.71-20.19-22.64-7.05-7.01-13.75-14.34-20.71-21.41s-15.34-13.77-22.96-20.56c-7.42-6.62-14.85-13.23-22.27-19.85-30.19-26.91-60.38-53.82-90.57-80.73-8.68-7.74-17.43-15.34-26.4-22.74-4.35-3.59-8.7-8.01-13.57-10.87-1.89-1.11-3.86-1.84-5.99-2.23-1.06-.19-2.59-.02-3.67-.25l1.11,1.12c-.81-2.9-1.9-1.82-3.28,3.23-.07.79.87,1.47,1.6,1.22h0Z" style="fill:#000; stroke-width:0px;"/><path d="M317,300.95c4.56,8.63,10.21,17.36,17.16,24.31,7.05,7.04,14.06,14.09,21.26,20.98,14.62,13.99,29.04,28.21,43.75,42.12,28.96,27.39,57.84,54.85,86.48,82.58,57.97,56.12,115.26,112.99,172.55,169.77,32.19,31.91,64.78,63.48,98.66,93.63,5.49,4.89,12.49-2.4,7.95-7.95-51.07-62.58-108.13-120.03-165.57-176.76-57.41-56.7-116.13-112.11-175.41-166.85-16.78-15.5-33.93-30.6-51.06-45.71-8.46-7.46-17.04-14.76-25.71-21.98s-18-12.45-28.16-16.62c-1.46-.6-2.52,1.31-1.91,2.48h0Z" style="fill:#000; stroke-width:0px;"/><path d="M1288.7,1380.58c.87,9.16,5.76,14.22,12.14,20.33s12.67,12.13,18.99,18.21c12.18,11.71,24.28,23.49,36.63,35.02,25.18,23.52,50.22,47.17,75.18,70.93,49.45,47.08,98.41,94.63,147.68,141.89,13.88,13.31,27.92,26.36,42.48,38.89,14.7,12.65,27.86,27.45,44.28,37.93,5.18,3.31,11.76-3.28,8.47-8.47-9.19-14.46-21.86-26.59-33.43-39.13-5.75-6.24-10.97-12.89-16.88-18.98-5.89-6.06-11.78-12.12-17.69-18.17-24.05-24.66-49.08-48.4-73.89-72.29-49.18-47.37-98.91-94.13-149.29-140.22-14.17-12.96-28.5-25.71-42.99-38.31-7.37-6.41-14.74-12.81-22.13-19.2s-14.07-13.45-24.62-13.36c-2.47.02-5.17,2.25-4.92,4.92h0Z" style="fill:#000; stroke-width:0px;"/><path d="M501.93,325.77c1.98,2.04,3.87,4.23,6.18,5.9s4.56,2.75,6.6,4.68c4.45,4.22,8.5,8.97,12.53,13.58,7.26,8.31,15.5,15.65,23.51,23.22,16.51,15.59,33.11,31.05,49.79,46.45,33.37,30.81,66.44,61.95,99.19,93.43,9.36,8.99,18.69,18.01,27.99,27.06s20,16.66,31.31,23.22c5.25,3.05,11.78-3.13,8.47-8.47-3.09-4.97-6.57-9.48-10.11-14.14s-6.78-9.36-11.22-13.56c-8.24-7.82-16.5-15.62-24.78-23.39-16.8-15.78-33.68-31.47-50.63-47.07-33.92-31.21-67.92-62.4-103.11-92.18-9.91-8.39-19.61-17.14-30.3-24.53-5-3.46-9.94-6.97-14.85-10.57-2.5-1.83-3.85-3.68-5.86-5.97-2.25-2.57-5.16-4.45-7.9-6.49-5.25-3.9-11.13,4.39-6.82,8.83h0Z" style="fill:#000; stroke-width:0px;"/><path d="M698.85,508.1c2.5,6.6,4.88,12.92,10.08,17.9l16.44,15.76c10.72,10.28,21.45,20.56,32.17,30.84,10.72,10.28,21.45,20.56,32.17,30.84,5.25,5.04,10.54,9.99,15.99,14.82,6.06,5.37,12.23,11.18,20.93,10.89,3.41-.11,6.82-2.94,6.61-6.61-.48-8.19-5.63-13.77-11.31-19.11s-11.19-10.27-16.93-15.27c-11.23-9.77-22.47-19.54-33.7-29.32l-33.7-29.32c-5.49-4.78-10.98-9.55-16.47-14.33-5.99-5.21-12.3-7.44-19.86-9.52-1.34-.37-2.97.98-2.42,2.42h0Z" style="fill:#000; stroke-width:0px;"/><path d="M1349.6,1312.85c-.56-.35-2.19-3.17-2.25-2.21-.06.88,2.35,2.71,2.93,3.19,1.89,1.56,3.93,2,6.12,2.96-1.54-.67,1.47,1.12.4.27,1.49,1.18,2.89,2.54,4.25,3.86,6.49,6.33,12.68,12.98,18.99,19.48,12.65,13.01,25.45,25.83,38.34,38.61,26,25.76,51.84,51.68,77.52,77.76,50.92,51.7,100.56,104.59,150.98,156.77,14.17,14.66,28.68,29.01,42.94,43.58,7.21,7.37,14.14,15.24,21.84,22.1,7.63,6.8,16.28,13.26,24.87,18.78,6.09,3.92,12.47-3.63,9.43-9.43-9.1-17.33-21.36-31.92-34.19-46.54-12.62-14.38-25.28-28.73-37.99-43.03-25.37-28.55-52.25-55.85-78.76-83.34-52.83-54.79-106.36-108.91-160.56-162.35-15.24-15.02-30.83-29.62-46.54-44.15-7.97-7.38-15.56-15.2-27-16.18-6.18-.53-12.94,2.46-14.71,8.91-1.05,3.81-.18,8.76,3.39,10.96h0Z" style="fill:#000; stroke-width:0px;"/><path d="M687.06,370.49c4.72,9.93,12.05,17.8,19.18,26.06,7.16,8.3,14.64,16.35,21.98,24.49,14.46,16.05,28.92,32.11,43.38,48.16s28.41,31.67,42.75,47.39c14.58,15.98,29.19,31.89,44.33,47.22,8.4,8.5,16.77,17.03,25.24,25.46s18.85,15.98,28.93,22.43c5.09,3.25,10.46-3.03,7.89-7.89-4.9-9.26-10.59-18.97-17.18-27.14s-14.25-16.75-21.4-25.08-13.57-16.4-20.84-24.22l-22.39-24.08c-29.17-31.37-58.68-62.44-88.05-93.62-8.2-8.7-16.38-17.42-24.59-26.11s-16.98-18.25-27.79-24.5c-7.67-4.43-14.88,4.18-11.44,11.44h0Z" style="fill:#000; stroke-width:0px;"/><path d="M1412.71,1193.6c1.2,3.12,1.44,6.61,3,9.57,1.4,2.67,3.53,4.92,4.94,7.6,2.04,3.88,3.46,7.2,6.6,10.41,2.64,2.7,5.51,5.22,8.24,7.83,10.51,10.02,20.98,20.09,31.38,30.22,20.59,20.04,41.21,40.06,61.61,60.3,40.79,40.49,80.6,81.95,120.06,123.73,5.42,5.74,10.82,11.49,16.21,17.26,3.02,3.24,5.93,6.56,9.38,9.36,3.04,2.47,5.82,4.65,8.61,7.45,11.52,11.61,22.5,24.03,35.15,34.41,6.23,5.12,16.86-1.38,11.93-9.2-7.81-12.38-17.58-23.42-26.85-34.73-2.4-2.92-5.02-5.76-7.25-8.81-1.91-2.63-3.23-5.47-5.29-8.09-4.69-5.94-9.99-11.44-15.06-17.07-19.47-21.59-39.19-42.91-59.3-63.9-39.74-41.48-80.1-82.52-121.96-121.87-11.97-11.25-24.01-22.43-36.11-33.53-6.56-6.02-12.9-13.36-21.2-16.77-3.11-1.28-5.88-2.73-8.86-4.31-3.84-2.04-7.64-2.18-11.75-3.35-1.91-.54-4.25,1.41-3.46,3.46h0Z" style="fill:#000; stroke-width:0px;"/><path d="M811.33,316.76c1.51,1.94,1.46,2.17,1.8,4.29.28,1.74.35,3.03.98,4.71,1.21,3.23,3.32,6.39,5.1,9.34,4.21,6.98,9.94,13.06,15.4,19.06,10.31,11.33,20.83,22.43,31.41,33.5,21.38,22.37,42.85,44.62,64.59,66.65,21.49,21.79,42.98,43.57,64.47,65.36,21.47,21.77,43.97,42.63,66.03,63.79,12.4,11.9,24.35,24.81,37.46,35.92,3.11,2.63,6.42,4.71,9.44,7.49l10.29,9.46c6.41,5.89,12.78,11.68,19.59,17.1,6.01,4.79,13.01-2.34,8.35-8.35-4.73-6.1-9.71-11.85-14.85-17.6-5.17-5.78-11.17-11.39-15.6-17.74-8.69-12.48-20.65-23.29-31.03-34.41s-21.04-23.15-31.88-34.45c-10.52-10.96-21.98-21.55-31.64-33.27-9.62-11.68-21.48-22.03-32.11-32.81-10.74-10.89-21.49-21.79-32.23-32.68-21.49-21.79-43.09-43.45-64.93-64.9-12.34-12.12-24.61-24.31-37.24-36.14-6.47-6.05-12.82-12.31-20.06-17.46-3.11-2.22-6.57-4.13-9.96-5.87-1.74-.89-3.01-1.59-4.99-1.79-2.76-.28-3.28-.13-5.62-1.99-2-1.6-4.34.78-2.78,2.78h0Z" style="fill:#000; stroke-width:0px;"/><path d="M1458.73,1081.32c.65,2,1.3,4,1.94,6,.78,2.42,1.1,4.25,3.51,5.46.98.49,2.33.31,2.89-.76.61-1.16,1.1-2.08.81-3.42-.21-1.01-.65-2.02-.97-3-.65-2-1.3-4-1.94-6-1.28-3.94-7.53-2.26-6.24,1.72h0Z" style="fill:#000; stroke-width:0px;"/><path d="M1443.54,1094.01c3.7,3.1,7.13,6.19,10.28,9.84,3.5,4.05,7.96,7.26,11.93,10.85,7.57,6.84,14.82,14.03,21.92,21.36,15.16,15.67,29.93,31.74,44.84,47.65,15.5,16.54,31,33.08,46.51,49.61,7.64,8.15,14.93,17.17,23.5,24.31,8.38,6.98,15.77,15.66,23.46,23.42,2.42,2.44,4.73,5,7.55,7,2.48,1.75,5.02,3,7.27,5.05,4.69,4.26,9.38,8.53,14.07,12.79,9.52,8.65,19.05,16.86,29.81,23.95,3.49,2.3,7.55-2.18,5.58-5.58-5.66-9.78-12.18-18.65-19.27-27.42-3.58-4.43-7.16-8.86-10.75-13.28-1.67-2.06-3.53-4.08-5.06-6.25-1.54-2.19-2.43-4.74-3.93-6.98-3.33-4.99-8.06-9.33-12.06-13.79-3.79-4.22-7.58-8.44-11.37-12.66-3.82-4.25-7.11-8.83-11.05-12.98-3.9-4.11-7.8-8.21-11.71-12.32-31.01-32.64-61.79-65.53-93.09-97.9-7.93-8.2-16-16.28-24.46-23.93-4.59-4.16-9.26-8.66-14.39-12.15-4.83-3.28-10.37-5.96-15.44-8.93-4.98-2.92-11.62-1.59-15.06,3.01-3.22,4.31-3.61,11.54.91,15.33h0Z" style="fill:#000; stroke-width:0px;"/><path d="M844.76,196.86c13,18.76,28.52,35.32,44.05,51.99s30.92,33.18,46.55,49.6c31.26,32.84,62.52,65.68,93.78,98.53,62.51,65.67,125.88,130.53,188.84,195.77,62.73,65,125.45,130.01,188.18,195.01,62.96,65.24,125.92,130.49,188.88,195.73,31.25,32.38,62.5,64.76,93.74,97.15,15.71,16.28,31.16,33.03,47.84,48.31,16.74,15.34,32.54,31.61,50.05,46.1,8.8,7.28,18.12,13.88,27,21.08,4.04,3.28,11.72-1.16,7.95-6.13-13.69-18.11-26.44-36.56-41.59-53.55-15.11-16.96-29.98-34.06-45.65-50.5-31.28-32.81-62.95-65.25-94.48-97.83-63.05-65.15-126.11-130.3-189.16-195.45-63.05-65.15-126.11-130.3-189.16-195.45-63.05-65.15-126.11-130.3-189.16-195.45-31.52-32.57-63.37-64.84-95.11-97.19-31.69-32.3-62.87-65.47-96.09-96.21-8.42-7.79-16.88-15.03-26.08-21.9-6.07-4.53-14.58,4.34-10.39,10.39h0Z" style="fill:#000; stroke-width:0px;"/><path d="M882.7,74.49c29.8,41.09,65.49,78.09,101.18,114.14,35.39,35.74,71.08,71.18,106.96,106.41,72.28,70.98,145.34,141.16,218.29,211.44,72.92,70.25,146.03,140.3,218.04,211.48,71.66,70.83,142.34,142.67,211.1,216.32,34.46,36.92,68.3,74.41,101.96,112.05,16.94,18.94,33.72,38.03,50.33,57.26,16.37,18.94,32.81,37.86,50.69,55.39,8.81,8.64,17.51,17.34,26.07,26.22,5.12,5.3,14.6-1.66,10.38-8.01-14.2-21.4-27.64-43.21-43.64-63.35-15.85-19.95-32.07-39.55-48.6-58.94-32.56-38.21-65.94-75.65-99.96-112.56-68.51-74.32-139.09-146.69-210.77-217.95-71.79-71.38-144.69-141.64-217.78-211.68-72.91-69.86-146.36-139.17-218.99-209.32-36.42-35.18-72.68-70.53-108.66-106.16-35.94-35.6-71.52-71.71-108.92-105.79-9.23-8.41-18.88-16.18-28.64-23.95-4.63-3.68-13.25,1.2-9.06,6.99h0Z" style="fill:#000; stroke-width:0px;"/><path d="M1368.2,367.31c2.86,3.09,4.04,6.66,5.47,10.51,1.25,3.37,2.99,5.73,5.24,8.52,4.42,5.48,8.93,10.87,13.5,16.24,9.13,10.72,18.89,20.68,28.71,30.78,19.54,20.11,39.43,39.89,58.97,60.01s38.79,40.51,58.12,60.83c9.51,10,18.52,21.57,29.41,30.05,10.89,8.48,20.21,19.72,29.86,29.58,22.3,22.8,45.67,44.26,68.9,66.09,3.66,3.44,10.48-1.16,7.29-5.62-16.52-23.08-32.79-46.27-51.13-67.96-9.28-10.97-18.61-21.91-27.99-32.79-4.21-4.89-7.54-10.38-11.81-15.21-5.07-5.72-10.42-11.22-15.63-16.8-38.24-40.88-77.32-81.46-118.03-119.9-11.58-10.93-22.92-22.29-35.39-32.21-6.21-4.94-12.37-9.95-18.75-14.66-3.04-2.24-6.09-5.16-9.68-6.45-4.46-1.6-8.9-2.23-12.67-5.37-3.03-2.52-7.12,1.41-4.38,4.38h0Z" style="fill:#000; stroke-width:0px;"/><path d="M1754.26,822.51c6.56,6.99,14.1,12.05,21.93,17.47,7.36,5.08,14.64,10.29,21.83,15.61,13.93,10.3,27.65,20.63,41.04,31.6,13.82,11.33,27.45,22.96,40.92,34.69,1.71,1.49,3.41,3.19,5.34,4.41,1.46.83,2.97,1.52,4.55,2.09-1.12-.96-.87-.79.76.52,3.83,2.88,7.54,5.93,11.27,8.94,3.36,2.71,6.67,5.3,10.36,7.56s6.98,5,11.34,5.13c2.23.07,4.04-1.92,4.08-4.08.07-4.33-2.76-7.99-4.87-11.6-2.49-4.27-5.5-8-8.63-11.82-2.64-3.22-5.55-6.31-8.02-9.66-1.2-1.62-1.82-3.29-2.92-5.01-1.58-2.45-3.78-4.4-5.83-6.44-12.69-12.64-25.98-24.43-39.85-35.75-14.29-11.66-28.87-23.07-44.04-33.58-15.21-10.53-30.86-22.78-48.66-28.3-10.77-3.34-17.79,10.58-10.61,18.22h0Z" style="fill:#000; stroke-width:0px;"/><path d="M1454.58,330.58c1.62,2.73,3.51,3.94,6.13,5.62-.85-1.11-1.71-2.22-2.56-3.33.76,4.03,1.23,7.26,3.94,10.45,1.59,1.87,3.41,3.63,5.14,5.37,3.49,3.51,7.05,7,10.8,10.23,7.53,6.51,15.08,12.99,22.53,19.59,14.92,13.2,29.78,26.49,44.45,39.95,14.69,13.48,29.37,26.99,43.8,40.75,3.6,3.43,7.08,7.05,10.78,10.37,3.77,3.37,7.95,6,11.74,9.4,7.62,6.84,14.8,13.84,23.43,19.4,7.56,4.87,16.52-4.69,12.12-12.12-4.15-7.01-9.25-12.86-14.62-18.96-2.47-2.81-4.95-5.62-7.45-8.42-2.72-3.05-4.74-6.57-7.64-9.55-10.86-11.15-22.1-21.96-33.36-32.71-22.78-21.74-46.78-42.21-71.32-61.91-7.14-5.73-14.22-11.64-21.61-17.03-3.48-2.53-7.13-4.92-10.77-7.2-1.81-1.13-3.65-2.37-5.55-3.34-3.54-1.79-7.19-1.5-11.06-1.32l3.94,1.63c-2.3-2.21-3.89-3.66-6.95-4.59-4.4-1.34-8.23,3.84-5.93,7.71h0Z" style="fill:#000; stroke-width:0px;"/><path d="M1560.09,430.31c1.95,2.02,4.66,4.11,5.68,6.79.72,1.87.96,3.42,1.93,5.25,2.05,3.86,4.09,7.98,6.9,11.33,5.67,6.76,12.1,13.31,18.4,19.48,13.41,13.15,27.64,25.59,41.61,38.14,13.79,12.39,27.83,24.38,42.18,36.12,3.88,3.17,7.67,6.81,11.86,9.56,3.71,2.45,7.43,4.63,11.05,7.29,7.65,5.62,15.1,11.53,23.48,16.01,7,3.74,13.02-4.8,8.18-10.6-6.12-7.34-13.39-13.54-20.36-20.06-3.3-3.09-6.11-6.43-9.22-9.65s-6.78-5.9-10.09-8.8c-13.68-11.98-27.38-23.92-41.15-35.8-13.78-11.89-27.34-24.02-40.99-36.05-6.72-5.92-13.9-11.37-20.89-16.99-3.62-2.91-7.49-4.78-11.66-6.78-2-.96-3.82-1.65-5.89-2.3-3.5-1.1-5.75-3.18-8.44-5.53-1.76-1.54-4.24.87-2.59,2.59h0Z" style="fill:#000; stroke-width:0px;"/><path d="M1511.48,264.55c2.59,4.96,6.37,9.36,9.49,14.02,3.39,5.07,7.64,9.23,11.85,13.61,8.56,8.92,17.62,16.92,26.97,25,18.11,15.64,36.54,30.9,54.93,46.2,18.67,15.53,37.62,30.74,56.44,46.1,9.29,7.58,18.63,15.09,27.96,22.6,4.41,3.55,8.82,7.1,13.23,10.64,5.02,4.03,10.59,7.06,15.64,11.05,21.38,16.87,42.45,34.24,64.62,50.07,6.05,4.32,13-5.12,7.84-10.16-17.32-16.9-35.76-32.63-53.86-48.67-8.98-7.95-17.11-16.55-26.15-24.41-9.02-7.84-18-15.71-27.08-23.49-36.57-31.34-72.89-63.04-110.32-93.35-10.6-8.58-20.95-17.58-32.32-25.14-5.66-3.77-11.27-8.24-17.47-11.03-3-1.35-6.25-2.36-9.17-3.8-3.08-1.53-5.47-3.13-8.81-4.18-2.95-.92-5.11,2.46-3.81,4.96h0Z" style="fill:#000; stroke-width:0px;"/><path d="M1748.48,1518.1c-9.13,8.2-18.78,15.96-27.27,24.83-8.49,8.87-16.88,17.86-25.52,26.58-17.25,17.42-33.79,35.81-50.08,54.13-32.25,36.28-64.85,72.28-96.73,108.88-9.18,10.55-17.38,22.04-26.2,32.95-4.39,5.43-7.42,11.45-11.2,17.3-1.77,2.73-3.67,5.42-5.32,8.22-1.96,3.33-2.32,6.62-3.6,10.23-1.06,2.99,2.53,5.01,4.96,3.81,2.91-1.44,5.84-2.09,8.52-3.96,2.16-1.5,4.13-3.43,6.15-5.12,4.85-4.04,10.41-7.47,14.99-11.76,4.35-4.07,8.36-8.57,12.51-12.84,4.43-4.55,9.12-8.71,13.65-13.11,8.76-8.5,16.49-18.39,24.58-27.53,8.16-9.21,16.32-18.42,24.48-27.63,32.22-36.37,64.38-72.75,95.77-109.84,9.04-10.69,17.74-21.7,26.64-32.51,8.95-10.88,16.65-22.62,24.73-34.12,4.79-6.82-5.38-13.61-11.04-8.52h0Z" style="fill:#000; stroke-width:0px;"/><path d="M1688.15,1444.6c11.79,10.38,21.73-12.18,8.53-16.07-6.26-1.84-11.62,4.29-16.13,7.65-5.81,4.34-11.5,8.67-16.7,13.73-19.69,19.19-39.24,38.36-57.98,58.48-37.55,40.29-75.48,80.97-109.36,124.43-9.72,12.46-19.36,24.98-28.91,37.57-4.89,6.45-9.61,12.72-12.66,20.22-2.9,7.13-8.17,13.11-10.34,20.68-1.8,6.32,5.36,11.61,10.95,8.42,5.27-3.01,9.33-7.42,13.72-11.57,1.94-1.83,3.46-2.93,5.65-4.23,3.05-1.81,5.47-4.98,7.88-7.52,8.42-8.89,16.09-18.58,24.12-27.83,15.71-18.12,31.16-36.42,46.67-54.72,31.26-36.9,63.2-73.1,95.33-109.25,8.81-9.92,17.19-20.27,26.02-30.21,4.88-5.49,9.81-10.85,14.18-16.76,1.83-2.48,3.59-5,5.35-7.53,1.66-2.38,3.38-5.8,5.52-7.73-1.96.81-3.93,1.63-5.89,2.44h.38c-1.95-.82-3.9-1.63-5.86-2.44-.31-2.31-.61-4.62-.92-6.93,1.57-1.2,3.13-2.41,4.7-3.61l-.37.09,6.02.79-.53-.26c-7.41-3.65-16.36,5.99-9.37,12.15h0Z" style="fill:#000; stroke-width:0px;"/><path d="M1672.33,1295.05c-39.95,39.92-77.63,81.81-115.44,123.74-37.81,41.93-75.88,83.63-113.16,126.02-10.53,11.98-21.07,23.95-31.6,35.93-5.63,6.4-10.97,12.74-15.85,19.75-4.6,6.61-9.63,12.79-12.22,20.47-2.77,8.21,6.78,13.47,13.43,10.32,6.47-3.06,11.55-8.43,16.88-13.14,5.56-4.91,10.61-9.87,15.58-15.38l28.02-31.07c18.91-20.97,37.65-42.09,56.3-63.29,36.87-41.92,73.75-83.84,110.56-125.81,21.11-24.07,41.37-48.73,61.24-73.83,3.25-4.1,4.01-9.72,0-13.72-3.72-3.72-10-3.72-13.72,0h0Z" style="fill:#000; stroke-width:0px;"/><path d="M1970.93,963.8c-.66-5.86-11.41,4.56-12.17,5.26-1.95,1.8-3.88,3.63-5.82,5.44-4.85,4.54-9.73,9.01-14.35,13.79-8.3,8.6-16.6,17.17-25.16,25.49-8.98,8.72-16.98,18.79-25.38,28.08s-16.03,17.73-24.05,26.6c-16.48,18.23-32.88,36.53-49.25,54.85-8.19,9.16-16.38,18.32-24.57,27.49-8.5,9.51-17.36,18.72-24.68,29.17-7.74,11.05-17.11,21.18-25.68,31.61-4.36,5.3-8.82,10.53-12.85,16.09-4.24,5.84-8.78,11.34-11.28,18.15-2.27,6.17,5.32,10.51,10.33,7.94,6.17-3.17,10.98-8.53,16.05-13.2,5.36-4.94,10.26-10.38,15.29-15.66,9.57-10.06,18.82-20.65,29.1-29.99,10.5-9.54,19.38-21.1,28.72-31.77,9.19-10.5,18.39-21.01,27.58-31.51,18.39-21.01,36.67-42.12,54.94-63.23,9.14-10.56,18.28-21.12,27.41-31.68,9.15-10.57,17.53-21.86,26.34-32.74,5.1-6.3,9.86-12.78,14.63-19.32,3.98-5.47,10.42-11.69,10.95-18.77,1.07-14.12-19.67-10.88-15.79-.77,1.81,4.72,10.34,4.66,9.67-1.31h0Z" style="fill:#000; stroke-width:0px;"/><path d="M1925.88,829.37c-14.69,13.75-27.78,29.57-40.78,44.95-13.13,15.54-25.64,31.57-38.39,47.42-25.54,31.76-50.9,63.67-76.52,95.37-51.09,63.22-103.14,125.68-155.81,187.59-52.7,61.95-106.36,123.07-160.98,183.34-54.84,60.52-110.48,120.29-166.22,179.99-27.88,29.85-56.15,59.32-84.32,88.9-14.09,14.79-28.01,29.73-42.11,44.51-14.17,14.86-28.31,29.43-41.1,45.52-2.98,3.75-6.01,7.46-8.94,11.25-3.22,4.18-5.02,9.1-7.16,13.89-1.58,3.54,1.18,9.6,5.88,7.64,4.21-1.76,9-3.19,12.88-5.59,4.57-2.82,8.74-6.59,13-9.86,8.23-6.3,16.41-12.59,23.96-19.7,14.88-13.99,29.7-28.04,44.47-42.15,29.53-28.21,58.36-57.12,87.06-86.17,57.61-58.32,113.82-117.99,168.56-179.01,54.55-60.81,108.14-122.47,160.74-184.97,52.65-62.54,104.06-126.03,154.32-190.5,25.5-32.71,51.14-65.4,75.69-98.84,12.05-16.41,24.03-32.87,35.95-49.38,11.93-16.53,22.72-33.61,33.78-50.71,5.58-8.63,10.74-17.1,15.28-26.32,2.92-5.93-4.22-11.89-9.28-7.16h0Z" style="fill:#000; stroke-width:0px;"/><path d="M1129.77,1729.34c-8.28,6.31-16.37,12.46-23.67,19.91-7.12,7.28-14.19,14.61-21.19,22-13.79,14.55-27.07,29.62-40.23,44.75-26.68,30.69-51.96,62.61-76.43,95.08-6.66,8.83-12.94,18.06-19.03,27.3-6.5,9.87-9.72,21.53-11.2,33.25-.79,6.26,7.03,9.05,11.64,6.68,4.02-2.07,7.42-5.06,11.32-7.34,5-2.92,8.72-5.98,12.37-10.49,2.05-2.53,4.02-5.11,6-7.69.76-.98,1.51-1.97,2.26-2.95.03-.04,1.9-2.46.78-1.01,3.01-3.9,6.05-7.77,9.08-11.64,12.58-16.09,24.39-32.44,35.95-47.18,24.41-31.13,49.61-61.66,75.55-91.52,7.1-8.17,14.12-16.41,21.28-24.53,7.98-9.05,14.98-18.36,21.86-28.26,6.58-9.47-6.85-23.61-16.35-16.35h0Z" style="fill:#000; stroke-width:0px;"/><path d="M1162.66,1816.84c-18.7,8.92-35.93,22.99-50.24,37.99-14.62,15.32-28.11,31.63-40.66,48.68-3.04,4.13-1.94,9.69,0,13.91l.27.59v-12.35c-8.01,12.63-16.17,25.5-20.88,39.76-2.17,6.6,6.45,10.64,11.05,6.43,10.51-9.61,19.3-20.98,29.04-31.37-3.97,1.05-7.94,2.1-11.9,3.15l.66.12c4.6.87,10.15.35,13.41-3.54,12.8-15.25,26.37-29.86,40.78-43.61,14.33-13.67,28.94-27.63,41.44-42.95,7.7-9.43-1.68-22.19-12.97-16.81h0Z" style="fill:#000; stroke-width:0px;"/><path d="M1797.76,809.45c-11.38,13.64-23.7,26.33-35.2,39.89-11.7,13.8-23.46,27.54-35.29,41.22-23.48,27.17-46.52,54.72-70.04,81.86-46.86,54.07-94.36,107.68-142.58,160.55-13.51,14.81-27.26,29.41-40.75,44.25-6.88,7.57-13.32,15.5-19.67,23.52-3.19,4.03-5.41,8.54-7.85,13.05-2.52,4.67-5.37,9.03-8.26,13.5-3.16,4.86,3.35,11.91,8.27,8.27,6.93-5.12,14.26-9.42,21.32-14.32,7.66-5.32,14.84-12.76,21.25-19.5,12.28-12.92,24.16-26.23,36.09-39.46,24.09-26.72,47.93-53.67,71.52-80.83,23.61-27.19,46.53-54.97,69.3-82.87,22.91-28.06,46.06-56.06,67.92-84.95,12.24-16.17,24.44-32.38,36.54-48.66,5.83-7.85,12.13-15.56,17.44-23.76,5.7-8.81,11.3-17.46,17.47-25.96,3.16-4.36-4.03-9.96-7.51-5.79h0Z" style="fill:#000; stroke-width:0px;"/><path d="M1509.06,1141.21c-16.16,12.16-31.94,24.29-45.85,39.04-13.96,14.81-28.01,29.6-41.52,44.83-13.52,15.25-26.4,31.14-39.37,46.86-3.04,3.69-6.08,7.38-9.1,11.09-1.61,1.97-3.23,3.95-4.84,5.93-.6.74-1.22,1.48-1.81,2.23-2.05,2.58-2.44,4.42-4.19,7.07-2.28,3.45-5.55,6.84-8.11,10.22-3.26,4.3-6.51,8.61-9.75,12.93-3.5,4.66-5.56,9.83-8.84,14.57-3.07,4.42-6.12,8.86-9.16,13.29-6.62,9.65-13.53,19.18-18.39,29.89-1.8,3.96,2.56,7.41,5.96,4.6,7.85-6.47,14.45-14.16,21.17-21.75,3.15-3.56,6.31-7.11,9.48-10.65,1.69-1.89,3.38-3.78,5.08-5.67,1.99-2.22,4.31-3.59,6.53-5.56,3.5-3.1,6.36-7.22,9.39-10.77,3.51-4.11,7.02-8.22,10.54-12.31,2.94-3.42,6.3-6.24,9.2-9.63,3.52-4.12,6.88-8.38,10.33-12.55,25.81-31.22,51.88-62.26,77.86-93.34,7.44-8.9,15.4-17.73,21.43-27.63,2.77-4.54,6.29-8.6,9.17-13.06,3.21-4.97,6.06-10.18,9.21-15.18,1.63-2.6-1.78-6.42-4.43-4.43h0Z" style="fill:#000; stroke-width:0px;"/><path d="M1461.65,1190.03c-11.76,10.77-22.02,22.97-32.14,35.32-10.14,12.37-20.55,24.54-30.42,37.13-19.81,25.27-39.87,50.34-60.18,75.2-40.47,49.54-81.37,98.81-123.1,147.29-41.97,48.75-84.92,96.67-128.81,143.7-43.69,46.81-88.28,92.8-133.84,137.79-22.89,22.6-46.03,44.96-69.16,67.31-11.55,11.16-23.27,22.24-34.31,33.91-5.41,5.73-10.2,12.15-15.25,18.21-5.26,6.31-10.72,12.43-16.01,18.72-5.05,5.99-9.58,12.44-14.3,18.69-3.67,4.85,3.34,11,8.08,8.08,13.49-8.3,26.22-17.37,39.09-26.56,7.12-5.08,14.54-9.94,21.2-15.62,6.01-5.13,11.88-10.43,17.79-15.67,24.06-21.29,46.82-44.23,69.62-66.84,45.68-45.31,90.53-91.47,134.41-138.53,43.88-47.06,86.83-95.01,128.79-143.79,42.41-49.3,83.89-99.34,123.59-150.85,39.12-50.74,78.56-101.66,112.33-156.18,4.19-6.76,7.72-13.62,11.02-20.84,2.46-5.39-3.71-10.77-8.39-6.48h0Z" style="fill:#000; stroke-width:0px;"/><path d="M1702.3,745.46c1.29-1.16,2.01-1.18,3.33-.26-.46-3.61-.93-7.21-1.39-10.82-19.07,15.75-35.41,34.85-51.89,53.26-16.37,18.28-32.48,36.77-48.73,55.15-32.73,37.05-66.07,73.54-98.7,110.67-8.97,10.2-17.97,20.38-27,30.53-1.08,1.21-2.17,2.4-3.21,3.64-2.08,2.48-2.81,4.9-4.44,7.54-1.42,2.3-3.76,4.78-5.52,7.09-4.25,5.6-8.36,11.09-12.02,17.09-4.19,6.86,4.52,16.6,11.54,11.54,5.11-3.68,9.89-7.53,14.59-11.73,2.17-1.94,4.34-3.88,6.51-5.82,2.74-2.46,5.93-3.92,8.61-6.46,8.86-8.4,16.9-17.89,25.24-26.8,17-18.18,33.84-36.46,50.16-55.25,32.43-37.34,64.97-74.74,95.88-113.36,17.6-21.99,36.26-43.99,49.8-68.76,2.67-4.88-.78-9.88-5.95-10.37-5.86-.55-11.41,2.16-14.31,7.3-2.72,4.83,3.5,9.39,7.51,5.79h0Z" style="fill:#000; stroke-width:0px;"/><path d="M1126.34,1445.66c-11.53,2.57-21.53,10.62-30.46,17.99s-17.19,15.32-25.5,23.15c-16.66,15.7-32.78,32.14-48.74,48.55-15.99,16.43-31.46,33.4-46.96,50.29-15.5,16.9-31.05,33.85-45.67,51.52-4.07,4.92-8.13,9.86-12.18,14.8-4.34,5.29-9.89,10.63-13.34,16.53,1.92-3.29-2.72,6.12-2.17,5.29-.69,1.05-1.95,2.53-2.82,3.75-1.82,2.56-3.64,5.12-5.46,7.69-3.94,5.56-7.58,11.08-9.26,17.78-1.96,7.78,5.86,12.3,12.39,9.53,5.47-2.32,10.04-6.2,14.33-10.26,1.85-1.75,3.7-3.49,5.55-5.24,2.15-2.03,4.41-5.08,6.95-6.54,9.38-5.4,17.09-15.8,24.75-23.8,15.86-16.55,31.33-33.45,46.9-50.28,30.93-33.43,62.23-66.56,93.63-99.55,8.8-9.24,17.22-18.82,25.79-28.26,8.63-9.49,18.35-21.04,21.44-33.77,1.38-5.68-3.57-10.42-9.17-9.17h0Z" style="fill:#000; stroke-width:0px;"/><path d="M1659.29,628.92c-2.44.91-4,.32-6.47.96s-5.01,2.55-7.09,4.02c-5.6,3.95-9.9,8.83-14.52,13.84-8.76,9.48-17.65,18.85-26.28,28.44-16.84,18.72-32.59,38.58-48.77,57.88-32.89,39.21-64.78,79.31-97.13,118.96-9.26,11.35-18.31,22.86-27.32,34.42-4.79,6.14-8.2,13.33-12.32,20-3.85,6.22-6.89,12.66-10.38,19.06-4.41,8.1,5.66,15.28,12.37,9.54,4.83-4.13,9.87-7.78,14.48-12.18l6.46-6.17c2.47-2.36,5.08-4.14,7.61-6.42,4.62-4.14,8.36-9.57,12.35-14.31,4.28-5.09,8.54-10.18,12.71-15.35,15.85-19.7,31.7-39.39,47.56-59.09,31.94-39.69,63.66-79.52,95.02-119.68,8.85-11.33,17.03-23.12,25.34-34.85,4.14-5.84,8.99-11.58,12.59-17.77,1.64-2.81,2.92-6.06,4.04-9.11.5-1.35,1-2.9,1.13-4.35.21-2.4-.72-4.3-.33-6.81.09-.57-.37-1.29-1.04-1.04h0Z" style="fill:#000; stroke-width:0px;"/><path d="M946.24,1456.01c-3.21,3.22-6.17,6.75-10.07,9.13-4.87,2.96-9.03,6.64-13.31,10.37-7.4,6.44-14.32,13.31-20.87,20.62-13.29,14.83-26.51,29.71-39.68,44.64-26.35,29.89-51.77,60.61-77.19,91.29-4.26,5.15-8.26,10.48-12.25,15.84-1.55,2.08-3.1,4.16-4.65,6.24-.76,1.02-1.62,2.05-2.32,3.12-1.29,1.98-1.93,4.19-3.02,6.25-2.2,4.15-5.51,8.73-7.13,13.81-1.57,4.89-3.64,10.14-3.52,15.33.09,3.61,3.24,5.62,6.59,5.02,9.4-1.69,17.71-8.87,24.76-14.73,3.85-3.2,7.53-5.97,10.98-9.71,3.53-3.83,7.1-7.62,10.59-11.49,13.31-14.77,25.68-30.49,38.55-45.65,25.6-30.14,51.11-60.34,76.75-90.44,7.61-8.94,15.55-17.9,22.08-27.68,3.01-4.5,6.42-8.92,8.91-13.73,1.06-2.05,1.68-4.39,2.81-6.39,1.53-2.71,4.18-5.3,6.1-7.73,3.34-4.23,4.13-9.99,0-14.12-3.82-3.82-10.3-3.83-14.12,0h0Z" style="fill:#000; stroke-width:0px;"/><path d="M841.1,1766.83c2.43-1.69,5.09-2.94,7.27-4.98,2.16-2.01,3.65-4.63,5.26-7.09,2.9-4.42,5.77-8.85,8.65-13.27,5.62-8.61,11.7-16.86,17.71-25.18,5.81-8.05,12.71-14.81,17.68-23.89,2.25-4.1,5.52-7.8,8.47-11.43,3.86-4.77,6.97-9.01,9.37-14.72,2.71-6.45-5.38-14.33-11.76-11.76-5.83,2.35-9.92,5.33-14.61,9.48-3.48,3.08-6.84,6.67-10.33,9.56-2.53,2.1-5.22,3.68-7.44,6.19-1.74,1.98-3.46,3.97-5.16,5.98-3.4,4.02-6.72,8.11-9.95,12.26-6.75,8.65-12.9,17.7-18.72,27-2.8,4.48-5.48,9-7.91,13.7-1.45,2.81-3.38,5.81-4.21,8.88-.97,3.57-.54,7.69-.62,9.91-.28,7.8,9.57,14.04,16.29,9.35h0Z" style="fill:#000; stroke-width:0px;"/><path d="M1718.94,359.59c-7.77-.8-14.4,5.55-20.1,10.28-7.04,5.83-12.88,13.97-18.99,20.78-11.97,13.33-23.51,27-35.09,40.67-23.41,27.64-45.9,56.08-68.74,84.19-45.96,56.55-91.42,113.46-136.68,170.57-12.62,15.92-25.25,31.83-37.69,47.89-6.45,8.33-12.59,16.87-17.97,25.95-2.68,4.53-4.29,9.67-6.76,14.35-2.43,4.61-4.64,9.07-6.08,14.09-1.35,4.71,3.94,8.45,8.06,6.19,7.46-4.1,13.32-10.34,20.31-15.09,3.9-2.65,7.03-6.22,10.31-9.56,3.48-3.54,7.05-7,10.22-10.83,11.44-13.83,22.74-27.78,34.01-41.75,22.76-28.22,45.51-56.44,68.27-84.66,45.93-56.96,91.24-114.56,136-172.45,12.52-16.2,24.97-32.55,36.82-49.25,5.74-8.09,11.47-16.17,17.21-24.26,3.09-4.36,5.08-9.29,7.13-14.23,1.78-4.3,2.68-7.35,1.13-11.85-.22-.64-.7-.97-1.36-1.03h0Z" style="fill:#000; stroke-width:0px;"/><path d="M817.22,1432.86c-12.22.33-18.42,10.52-25.5,19.01-6.49,7.77-12.98,15.54-19.5,23.29-13.03,15.51-26.04,31.04-39.07,46.54-26.08,31.03-52.36,61.88-78.86,92.55-7.29,8.44-14.28,17.09-21.23,25.8-4.23,5.3-7.09,11.22-10.72,16.93-3.16,4.97-6.17,9.76-8.63,15.12-2.27,4.96-2.17,10.59,1.89,14.66,3.63,3.63,10.24,4.86,14.66,1.89,8.51-5.72,16.36-13.68,23.51-19.21,8.08-6.24,14.91-15.36,21.37-23.27,13.06-16,25.97-32.12,38.87-48.25,25.81-32.26,51.5-64.62,76.66-97.4,6.95-9.06,13.89-18.13,20.81-27.22,3.56-4.67,7.11-9.35,10.66-14.03,4.43-5.84,6.23-11.76,4.74-19.05-.85-4.17-5.5-7.47-9.66-7.36h0Z" style="fill:#000; stroke-width:0px;"/><path d="M1608.85,268.72c-5.44,6.28-13.23,10.36-19.34,16.06s-11.92,11.63-17.66,17.73c-11.47,12.19-22.32,24.84-33.13,37.6-21.62,25.54-42.88,51.36-63.95,77.36-42.74,52.75-83.63,107.13-123.7,161.92-11.23,15.35-22.48,30.69-33.42,46.25-5.39,7.67-10.16,15.56-14.89,23.65-2.61,4.46-5.04,8.78-6.64,13.73-1.44,4.45-2.52,9.02-4.34,13.33-3.91,9.24,6.15,18.45,14.36,11.08,6.21-5.57,13.71-9.56,19.2-15.89,6-6.92,12.23-13.67,17.73-21,10.06-13.43,19.92-27.01,29.87-40.53,19.69-26.76,39.69-53.29,59.43-80.01,39.79-53.86,80.34-107.14,120.44-160.76,11.15-14.91,22.43-29.72,33.26-44.87,5.38-7.52,10.79-15.11,15.59-23.02,2.32-3.82,4.72-7.58,6.69-11.59,2.33-4.74,4.03-10.1,7.27-14.27,3.67-4.73-2.65-11.51-6.76-6.76h0Z" style="fill:#000; stroke-width:0px;"/><path d="M728.96,1349.72c-8.76,2.28-15.55,8.66-22.14,14.64-7.11,6.45-13.22,14.7-19.06,22.32-5.54,7.22-11.05,14.45-16.6,21.66-2.77,3.61-5.55,7.21-8.33,10.81-1.19,1.54-2.38,3.09-3.57,4.63,1.62-2.1-.35.45-.56.73-.79,1.02-1.58,2.04-2.36,3.06-22.83,29.52-44.97,59.56-67.14,89.57-43.23,58.53-86.23,117.24-129.98,175.38-10.88,14.46-21.81,28.89-32.78,43.29-5.45,7.17-10.44,14.72-15.61,22.09-5.47,7.8-10.09,16.95-11.02,26.62-.95,9.93,5.88,15.7,15.47,12.67,9.41-2.97,17.56-10.23,23.84-17.46,11.87-13.67,23.25-27.61,34.46-41.83,45.76-58.01,91.32-116.27,134.93-175.92,21.38-29.24,42.58-58.57,63.05-88.46,10.22-14.92,20.24-29.96,30.15-45.08,10.12-15.43,21.9-30.97,29.03-48.05,3.25-7.78,6.84-16.04,6.04-24.7-.37-3.99-3.66-7.05-7.83-5.97h0Z" style="fill:#000; stroke-width:0px;"/><path d="M1405.3,359.56c-8.91,1.13-18,3.27-24.9,9.34-7.56,6.65-13.2,14.6-18.86,22.84-12.21,17.75-24.05,35.73-35.91,53.72-23.69,35.94-46.55,72.03-67.42,108.87-2.97,5.24-4.48,11.09-7.32,16.41-2.8,5.26-5.6,10.52-8.4,15.78-5.71,10.73-11.52,21.43-14.5,33.3-1.35,5.37,4.8,8.21,8.7,5.06,8.35-6.75,14.84-15.06,21.29-23.56,5.88-7.75,11.33-16.48,18.3-23.27,7.72-7.52,13.31-17.11,19.39-25.96,5.98-8.7,12.22-17.07,18.1-26.2,22.41-34.76,45.21-69.34,66.34-104.9,5.46-9.18,11.43-18.22,16.21-27.77,2.39-4.77,5.43-9.21,7.34-14.2,1.43-3.75,2.8-7.37,5.29-10.59,2.34-3.02,1.38-9.52-3.68-8.88h0Z" style="fill:#000; stroke-width:0px;"/><path d="M618.75,1300.13c-5.64.9-9.24,2.95-13.13,7.22-3.23,3.56-6.45,7.12-9.66,10.7-2.78,3.1-5.59,6.18-8.31,9.34-3.53,4.1-6.62,7.83-9.2,11.17-11.25,14.55-22.55,29.06-33.89,43.54-11.94,15.25-23.8,30.55-35.59,45.91-5.51,7.19-11.04,14.37-16.57,21.54-.21.27-2.64,3.42-1.5,1.94,1-1.29-.95,1.23-.9,1.17-1.38,1.79-2.77,3.58-4.16,5.37-2.97,3.84-5.94,7.67-8.92,11.5-45.23,58.22-91.13,115.92-137.7,173.08-6.33,7.77-12.74,15.48-19.03,23.29-2.24,2.78-4.39,5.65-6.58,8.48-.22.28-2.64,3.42-1.47,1.91.81-1.05-1.28,1.66-1.49,1.92-3.18,4.11-6.36,8.21-9.54,12.31-6.88,8.87-13.24,17.97-19.43,27.33-3.2,4.84-5.42,9.64-6.86,15.25-1.26,4.9-3.69,9.27-4.96,14.22-1.57,6.07,4.72,10.05,9.92,7.62,4.31-2.01,7.72-4.35,11.3-7.52-1.51.88-3.02,1.76-4.53,2.64,9.7-3.2,16.71-9.02,23.87-16.09,6.45-6.37,12.66-12.79,18.62-19.63,11.9-13.65,23.51-27.47,34.91-41.54,23.01-28.41,45.85-56.94,68.53-85.61,45.5-57.53,91.15-115.15,134.43-174.38,12-16.42,23.95-32.88,35.84-49.38,6.05-8.39,11.61-16.98,16.98-25.81,2.51-4.12,5-8.25,7.46-12.4,1.77-2.99,3.56-5.74,4.08-9.23.46-3.06-.18-6.04-.6-9.08-.77-5.57-7.35-7.51-11.94-6.78h0Z" style="fill:#000; stroke-width:0px;"/><path d="M1243.02,337.23c-4.69,7.7-10.49,14.18-16.2,21.45-6.79,8.64-13.7,17.21-20.3,26-12.57,16.73-25.07,33.52-37.6,50.28-12.34,16.49-24.67,32.99-37.01,49.48-6.15,8.22-11.97,16.71-17.91,25.09-5.96,8.39-12.15,16.54-17.02,25.61-5.45,10.16-12.09,19.73-18.26,29.47-3.19,5.03-6.34,10.04-9.22,15.26-2.9,5.25-6.05,10.29-7.15,16.27-1.11,6.06,4.64,10.88,10.33,7.94,9.03-4.67,16.14-14.04,22.66-21.66,6.64-7.76,13.29-15.5,19.92-23.27,3.21-3.76,6.94-6.99,10.25-10.64,4.01-4.43,7.46-9.54,11.11-14.28,6.49-8.44,12.99-16.88,19.48-25.31,25.28-32.85,49.11-66.91,73.58-100.37,6.85-9.36,13.47-18.88,20.09-28.4s13.04-18.33,17.6-28.68c3.07-6.96,2.03-15.13-5.06-19.28-6.69-3.92-15.31-1.46-19.28,5.06h0Z" style="fill:#000; stroke-width:0px;"/><path d="M573.58,1199.21c-20.18,15.2-36.47,34.57-53.83,52.82-16.93,17.8-33.72,35.74-50.56,53.63-16.78,17.81-33.41,35.77-49.42,54.29-16.54,19.13-31.37,39.92-45.35,61-3.6,5.43-7.28,10.81-10.16,16.67-.98,1.99-2.03,3.98-2.54,6.15-.62,3.71-.71,4.58-.26,2.61.39-1.35.21-1.15-.54.61-1.82,2.99-3.19,6.37-4.71,9.52-6.06,12.59-12.07,25.43-16.08,38.83-2.07,6.93,7.26,9.99,11.05,4.66,6.98-9.81,13.4-19.98,20.47-29.73,2.84-3.92,5.96-8.82,9.13-11.84,2.51-2.4,4.71-4.08,6.92-6.77,2.49-3.04,4.79-6.2,7.12-9.36,13.21-17.95,29.21-35.48,44.5-53.52,31.34-37,65.31-71.65,98.26-107.2,9.38-10.12,18.38-20.59,27.3-31.11,9.44-11.13,18.12-22.23,24.51-35.42,2.26-4.67,2.02-10.18-1.81-14.01-3.33-3.33-9.97-4.85-14.01-1.81h0Z" style="fill:#000; stroke-width:0px;"/><path d="M1177.25,256.56c-6.67,2.82-12.71,6.14-18.52,10.47-6.27,4.68-11.93,10.64-17.48,16.16-10.05,10-19.43,20.78-28.97,31.27-19.15,21.05-37.58,42.64-55.66,64.61-36.98,44.95-73.96,90.64-105.77,139.46-8.74,13.41-17.76,26.77-25.92,40.55-2.28,3.84-3.14,8.13-5.21,11.96-1.91,3.53-3.9,7.01-5.84,10.53-4.06,7.36-8.11,14.7-10.56,22.78-2.24,7.39,6.84,11.24,11.99,6.98,5.67-4.7,10.24-10.33,14.89-16.01,1.93-2.36,3.87-4.72,5.81-7.08,1.15-1.4,2.24-2.94,3.5-4.24,1.49-1.54,3.88-3.02,5.6-4.73,5.14-5.13,9.22-11.8,13.64-17.57s7.85-10.19,12.32-15.92c9.25-11.85,18.34-23.79,27.41-35.77,4.11-5.44,8.25-10.86,12.4-16.26s8.44-10.96,13.51-17.73c17.4-23.21,32.43-42.63,50.67-65.44,18.17-22.73,36.76-45.14,55.21-67.65,10.22-12.46,20.76-24.66,30.97-37.13,5.07-6.19,10.05-12.62,14.75-19.1,4.97-6.85,8.15-14.83,10.75-22.83,1.94-5.98-4.77-9.31-9.5-7.31h0Z" style="fill:#000; stroke-width:0px;"/><path d="M588.32,957.92c-10.8,10.24-18.13,23.37-26.3,35.68-7.94,11.98-15.97,23.91-24.08,35.77-16.21,23.72-32.01,47.7-48.47,71.25-32.53,46.56-65.56,92.69-100.28,137.66-4.59,5.95-9.22,11.87-13.86,17.79-2.8,3.57-6.22,7.14-8.39,11.1-.74,1.34-1.08,3.07-1.77,4.33-1.16,2.12-2.91,4.09-4.31,6.06-9.37,13.13-18.67,26.1-27.23,39.78-4.89,7.82,5.93,15.4,12.37,9.54,10.65-9.69,20.44-19.86,30.17-30.47,2.5-2.72,4.87-5.71,7.55-8.26,2.23-2.11,4.93-3.72,7.08-6.08,5.01-5.51,9.44-11.67,14.1-17.48,18.34-22.91,36.35-46.09,54.04-69.5,34.67-45.86,67.79-92.76,99.4-140.78,8.91-13.54,17.3-27.46,25.74-41.3,8.62-14.12,18.45-28.04,23.27-44,3.38-11.21-11.02-18.68-19.04-11.08h0Z" style="fill:#000; stroke-width:0px;"/><path d="M1156.46,91.95c-9.08,6.12-18.89,11.93-27.17,19.11-8.12,7.03-15.88,14.54-23.6,22-15.22,14.7-29.99,29.88-44.17,45.59-28.66,31.74-55.63,64.97-81.88,98.72-56.98,73.24-112.09,147.94-167.5,222.36-56.87,76.38-113.73,152.75-170.6,229.13-56.86,76.37-113.73,152.72-170.33,229.28-56.46,76.38-114.87,151.76-166.68,231.42-6.5,10-11.68,20.8-17.3,31.32-4.37,8.18,6.18,16.86,13.03,10.05,8.41-8.36,17.23-16.4,24.89-25.46,7.68-9.09,15.58-18.04,23.03-27.32,14.72-18.37,28.86-37.24,43.27-55.85,29.57-38.19,58.1-77.21,87.02-115.89,56.8-75.96,113.43-152.04,169.97-228.2s113.06-152.28,169.59-228.42c55.45-74.69,110.53-149.66,165.75-224.52,50.09-67.9,102.29-134.99,163.19-193.66,7.69-7.41,14.19-16.27,21.41-24.18,7.19-7.87-2.23-21.99-11.93-15.46h0Z" style="fill:#000; stroke-width:0px;"/><path d="M961.17,65.42c-8.67,16.31-20.99,30.69-31.41,45.9-10.48,15.29-20.96,30.58-31.47,45.86-10.5,15.27-20.87,30.63-31.25,45.98-10.36,15.32-19.63,31.32-29.3,47.1-1.36,2.23-2.96,4.42-4.14,6.75-1.57,3.11-1.98,6.23-3.09,9.39-1.52,4.31-4.21,8.56-6.23,12.67-2.27,4.63-4.24,9.32-6.1,14.12s-3.99,9.11-3.16,14.47c.43,2.81,3.81,4.05,6.23,3.54,4.36-.93,7.2-4.05,10.38-6.95,3.37-3.08,6.77-6.09,9.85-9.45,2.86-3.12,5.7-6.25,8.55-9.37,3.86-4.23,8.57-7.17,12.07-11.77,5.63-7.4,11.13-14.9,16.69-22.36,2.58-3.46,5.07-7,7.73-10.39,1.31-1.66.41-.51.13-.16,1.47-1.84,2.8-3.21,4.28-5.29,1.34-1.89,2.58-3.85,3.86-5.77,20.6-30.78,40.82-61.78,60.95-92.87,5.57-8.61,11.08-17.22,16.33-26.02,2.54-4.26,5.22-8.42,7.92-12.58,2.89-4.46,5.17-8.47,8.09-12.04,6.45-7.9,6.99-18.83-1.73-25.57-7.76-5.99-20.31-4.34-25.18,4.81h0Z" style="fill:#000; stroke-width:0px;"/><path d="M789.76,331.82c-6.14,6.34-13.04,12.41-17.99,19.73s-9.69,14.27-14.55,21.39c-9.92,14.53-20.81,28.4-30.69,42.96-19.54,28.8-39.6,57.27-58.99,86.18-38.75,57.76-78.02,115.18-117.48,172.45-39.28,57-79.09,113.64-119.42,169.9s-81.33,112.79-122.58,168.75c-20.61,27.96-41.25,55.87-61.57,84.04-20.25,28.07-38.99,57.02-56.7,86.75-4.4,7.38-8.59,14.72-12.41,22.42-4.36,8.82,6.01,16.86,13.47,10.4,25.99-22.51,48.67-49.14,71.07-75.14,11.39-13.22,21.82-27.38,32.61-41.1,11.35-14.44,22.36-29.12,33.36-43.83,41.66-55.68,82.81-111.72,123.12-168.37,40.3-56.64,80.06-113.65,119.3-171.03,39.42-57.64,78.08-115.76,116.05-174.36,18.89-29.16,37.15-58.7,55.34-88.3,18.19-29.61,35.03-59.97,52.78-89.84,4.41-7.42,6.81-16.45,9.84-24.53s-8.8-14.44-14.57-8.48h0Z" style="fill:#000; stroke-width:0px;"/><path d="M630.65,379.09c-23.87,24.49-42.68,53.78-61.73,82.09s-38.31,56.63-57.66,84.8c-38.34,55.81-77.05,111.37-115.6,167.03s-77.94,111.42-117.7,166.57c-39.74,55.14-80,109.93-120.56,164.47-20.17,27.12-40.41,54.18-60.5,81.37-10.03,13.57-20.29,26.99-30.05,40.75-4.94,6.96-10.33,13.78-14.82,21.03-4.5,7.25-8.67,14.73-13.02,22.08-4.2,7.1-8.26,14.2-12.03,21.54-5.11,9.95,6.88,19.04,15.24,11.76,12.62-10.99,24.67-22.9,36.26-34.97,11.82-12.31,22.24-26.33,32.85-39.68,21.69-27.26,43.2-54.65,64.3-82.38,41.17-54.13,81.72-108.72,121.66-163.76,39.93-55.03,79.34-110.44,118.23-166.21,38.89-55.77,76.86-112.06,113.83-169.13,18.56-28.64,37-57.36,55.29-86.17s36.9-56.84,51.98-87.06c4.01-8.03,7.51-16.04,10.72-24.41,3.67-9.59-10.1-16.47-16.69-9.71h0Z" style="fill:#000; stroke-width:0px;"/><path d="M512.61,325.2c-14.96,15.14-25.73,35.03-37.31,52.78s-23.01,35.17-34.06,53.04c-11.04,17.86-22.04,35.75-32.99,53.67-5.48,8.96-10.97,17.91-16.39,26.9s-9.81,18.55-14.68,27.9c-5.32,10.22-10.72,20.36-15.48,30.85s-10.22,23.01-11.21,35.18c-.43,5.23,6.32,8.89,10.58,6.07,8.67-5.74,16.19-14.6,22.38-22.84s12.38-17.03,18.32-25.78c2.95-4.35,5.91-8.71,8.87-13.05.55-.82,1.11-1.63,1.67-2.45,1.79-2.67-1.14,1.41.73-1.12,2.3-3.11,4.7-6.04,6.75-9.33,5.53-8.92,10.82-18,16.2-27.01,21.52-36.06,43.25-71.98,64.44-108.24,5.79-9.91,11.6-19.81,17.42-29.71,6.42-10.92,12.92-21.86,17.13-33.86,4.55-12.92-13.36-22.12-22.36-13.02h0Z" style="fill:#000; stroke-width:0px;"/><path d="M384.01,271.19c8.76,5.65,15.86-10,6.42-13.8-5.07-2.04-10.24.79-13.78,4.27-1.89,1.86-3.49,3.99-5.34,5.88-2.58,2.64-5.22,4.39-7.46,7.53-3.12,4.38-6.01,8.93-8.82,13.51-3.15,5.13-6.55,9.87-9.41,15.26-5.61,10.59-11.03,21.28-16.52,31.94-5.91,11.49-12.21,22.67-17.89,34.29s-11.34,23.21-17.01,34.81c-11.06,22.63-21.9,45.35-32.65,68.12-3.11,6.59-6.23,13.19-9.34,19.78-.71,1.5-1.43,2.99-2.12,4.5-.8,1.66-1.53,3.34-2.18,5.06-.39,1.83-.61,3.68-.66,5.54-.69,2.43,1.29-2.1-.97,2.15-.89,1.66-1.48,3.75-2.18,5.5-5.22,13.19-11.04,27.03-13.39,41.05-.73,4.37.49,8.76,4.52,11.12,3.58,2.09,9.1,1.73,11.93-1.54,7.49-8.67,13.14-18.67,19.02-28.49,2.71-4.53,5.16-9.23,7.7-13.86,1.19-2.16,1.79-3.03,3.18-4.5,2.67-2.82,4.06-6.38,5.67-9.84,9.41-20.13,19.02-40.17,28.18-60.4,9.04-19.97,18.02-39.95,27.04-59.93,8.99-19.93,16.97-40.22,25.57-60.34,2.24-5.25,4.5-10.49,6.84-15.7s4-10.66,6.5-15.92c2.33-4.92,6.14-10.11,7.57-15.35-2.43,8.83.4-3.32.27-2.87.46-1.53,1.7-3.36,2.45-4.77,1.02-1.92,2.23-5.5,3.91-6.89l-4.37,1.81-1.11-.37-2.82-3.67,3.26-4.61,4.67.61-.57-.33c-6.75-3.97-12.62,6.24-6.1,10.44h0Z" style="fill:#000; stroke-width:0px;"/></g></svg>