<?xml version="1.0" encoding="UTF-8"?>
<svg xmlns="http://www.w3.org/2000/svg" viewBox="0 0 626 626">
  <g id="Layer_2" data-name="Layer 2">
    <path d="M94.98,323.83c-4.04,34.64,2.13,69.57,3.13,104.43,1.27,44.1-10.43,87.49-4.69,131.24,1.88,1.88,2.85,3.88,6.48,5.7" style="fill: none; stroke: #000; stroke-miterlimit: 10; stroke-width: 8px;"/>
    <path d="M515.59,323.86c3.43,83.43,3.56,167,.38,250.44.21-4.42.43-8.83.64-13.25" style="fill: none; stroke: #000; stroke-miterlimit: 10; stroke-width: 8px;"/>
    <path d="M496.93,57.57l-1.04,1.04c.67,20.39,4.91,44.71,3.04,65.03-1.45,15.71-3.65,31.37-4,47.15-.36,16.51,1.32,33.01,3.68,49.35-.22-1.7-.43-3.39-.65-5.09" style="fill: none; stroke: #000; stroke-miterlimit: 10; stroke-width: 8px;"/>
    <path d="M386.04,57.09c-.53.35-.5-1.03.12-.88s.75.96.76,1.59c.22,20.32.43,40.63.65,60.95-.16-1.4-.33-2.8-.49-4.2" style="fill: none; stroke: #000; stroke-miterlimit: 10; stroke-width: 8px;"/>
    <path d="M238.76,387.53c-2.68,4.24.69,11.27,1.6,15.76-1.02,56.52-.89,99.17-1.91,155.69" style="fill: none; stroke: #000; stroke-miterlimit: 10; stroke-width: 8px;"/>
    <path d="M367.88,386.87c.82,10.78,1.64,21.55,2.47,32.33,3.71,48.57,7.27,94.39,2.09,142.83-.21-.31-4.2,5.76,2.56,5.64" style="fill: none; stroke: #000; stroke-miterlimit: 10; stroke-width: 8px;"/>
    <path d="M240.42,549.59c.5.35,1.3,3.4.69,3.4s-2.48,4.79-2.65,5.38c-1.87,6.45,1.52,12.26,1.2,15.16" style="fill: none; stroke: #000; stroke-miterlimit: 10; stroke-width: 8px;"/>
    <path d="M96.03,326.15c-31.76,2.68-63.84,1.51-95.31-3.47" style="fill: none; stroke: #000; stroke-miterlimit: 10; stroke-width: 8px;"/>
    <path d="M519.68,325.66c-1.02-.49.29-1.9,1.4-2.13,17.63-3.7,35.83-3.42,53.84-3.12,15.19.25,30.37.5,45.56.75,1.31.02,3.03.41,3.12,1.72" style="fill: none; stroke: #000; stroke-miterlimit: 10; stroke-width: 8px;"/>
    <path d="M98.22,564.6c44.58,5.09,89.43,7.92,134.31,8.48,3.99.05,8.26.46,10.27-.77" style="fill: none; stroke: #000; stroke-miterlimit: 10; stroke-width: 8px;"/>
    <path d="M372.69,567.46c47.83,4.35,95.96,5.5,143.95,3.46" style="fill: none; stroke: #000; stroke-miterlimit: 10; stroke-width: 8px;"/>
    <path d="M240.56,395.15c6.43-1.34,13.01-1.82,19.56-2.3,20.89-1.53,41.78-3.07,62.67-4.6,16.37-1.2,32.89-2.4,49.14-.15.57,2.06,1.14,4.11,1.72,6.17" style="fill: none; stroke: #000; stroke-miterlimit: 10; stroke-width: 8px;"/>
    <path d="M498.46,219.61c41.67,33.38,83.34,66.75,125.02,100.13" style="fill: none; stroke: #000; stroke-miterlimit: 10; stroke-width: 8px;"/>
    <path d="M388.06,56.53l.25-2.96c11.79-1.46,23.6-2.92,35.48-3.35,23.23-.85,46.6,2.27,68.79,9.17" style="fill: none; stroke: #000; stroke-miterlimit: 10; stroke-width: 8px;"/>
    <path d="M305.04,48.99C218.02,142.78,101.97,207.69,23.14,308.45c-4.79,6.13-9.8,12.66-17.04,15.51" style="fill: none; stroke: #000; stroke-miterlimit: 10; stroke-width: 8px;"/>
    <path d="M306.05,49.21c12.87,9.06,25.13,18.99,36.65,29.71,16.03,14.91,30.9,31.51,49.76,42.62" style="fill: none; stroke: #000; stroke-miterlimit: 10; stroke-width: 8px;"/>
    <path d="M495.93,60.04c-5.71.53-11.57-.77-16.51-3.67" style="fill: none; stroke: #000; stroke-miterlimit: 10; stroke-width: 8px;"/>
  </g>
  <g id="Layer_3" data-name="Layer 3">
    <path d="M474.86,54.74c2.51,5.19,7.25,12.76,21.55,24.59" style="fill: none; stroke: #000; stroke-miterlimit: 10; stroke-width: 4px;"/>
    <path d="M449,56.15c-.26.5-.95-.45-.48-.76s1.09.04,1.54.38c12.9,9.68,25.25,20.07,37.24,30.86,6.17,5.55,6.43,2,11.92,12.06" style="fill: none; stroke: #000; stroke-miterlimit: 10; stroke-width: 4px;"/>
    <path d="M415.62,52.64c22.63,15.08,43.88,32.22,63.41,51.14,7.98,7.73,15.84,16.01,20.19,26.23" style="fill: none; stroke: #000; stroke-miterlimit: 10; stroke-width: 4px;"/>
    <path d="M401.62,65.86l-1.04-1.04c37.9,22.81,69.21,53.12,96.33,88.07" style="fill: none; stroke: #000; stroke-miterlimit: 10; stroke-width: 4px;"/>
    <path d="M390.9,90.68c38.07,23.73,72.85,52.74,103.03,85.93" style="fill: none; stroke: #000; stroke-miterlimit: 10; stroke-width: 4px;"/>
    <path d="M393.58,116.34c34.91,29.9,68.81,60.98,101.61,93.19" style="fill: none; stroke: #000; stroke-miterlimit: 10; stroke-width: 4px;"/>
    <path d="M288.03,66.63c48.65,35.07,95.99,71.85,141.92,110.23,23.28,19.46,46.19,39.32,68.73,59.59,12.39,11.15,26.43,20.44,38.46,32,15.38,14.78,28.49,30.82,44.29,45.24-1.29-2.13-2.58-4.26-3.88-6.39" style="fill: none; stroke: #000; stroke-miterlimit: 10; stroke-width: 4px;"/>
    <path d="M274.83,76.4c98.77,72.48,190.04,155.18,271.88,246.34" style="fill: none; stroke: #000; stroke-miterlimit: 10; stroke-width: 3px;"/>
    <path d="M256.96,99.73c-1.39.28-1.69-2.26-.43-2.9s2.77.05,4.01.75c21.11,11.82,39.54,27.84,57.56,43.98,67.96,60.87,132.64,125.3,197.27,189.69" style="fill: none; stroke: #000; stroke-miterlimit: 10; stroke-width: 8px;"/>
    <path d="M228.57,118.4c107.03,79.74,202.97,170.39,289.06,272.37" style="fill: none; stroke: #000; stroke-miterlimit: 10; stroke-width: 8px;"/>
    <path d="M207.2,140.72c16.53,8.56,31.24,20.21,45.57,32.09,94.65,78.47,177.88,170.46,264.87,278.17" style="fill: none; stroke: #000; stroke-miterlimit: 10; stroke-width: 5px;"/>
    <path d="M185.69,156.28c124.82,96.32,235.98,210.32,329.12,337.53" style="fill: none; stroke: #000; stroke-miterlimit: 10; stroke-width: 8px;"/>
    <path d="M162.19,172.6c35.89,30.73,69.72,63.78,103.51,96.8,59.27,57.92,119.57,115.21,171.73,179.61,27.13,33.5,56.51,71.38,77.39,105.31" style="fill: none; stroke: #000; stroke-miterlimit: 10; stroke-width: 8px;"/>
    <path d="M141.78,191.9c68.23,60.61,138.99,128.76,201.79,194.92" style="fill: none; stroke: #000; stroke-miterlimit: 10; stroke-width: 4px;"/>
    <path d="M370.92,415.61c48.6,44.89,101.98,111.44,131.2,155.83" style="fill: none; stroke: #000; stroke-miterlimit: 10; stroke-width: 4px;"/>
    <path d="M119.18,209.69c.55-2.67,4.64-1.39,6.65.45,62.44,57.38,118.8,115.28,174.07,179.6" style="fill: none; stroke: #000; stroke-miterlimit: 10; stroke-width: 8px;"/>
    <path d="M374.28,448.29c39.09,34.78,73.65,75.21,102.4,119.8.57.88,1.45,1.87,2.39,1.5s-.3-2.28-.63-1.27" style="fill: none; stroke: #000; stroke-miterlimit: 10; stroke-width: 7px;"/>
    <path d="M102.08,228.54c57.68,50.72,111.28,106.09,160.1,165.39" style="fill: none; stroke: #000; stroke-miterlimit: 10; stroke-width: 5px;"/>
    <path d="M378.7,493.52l-2.62-4.02c26.04,22.44,57.11,55.89,79.15,82.29" style="fill: none; stroke: #000; stroke-miterlimit: 10; stroke-width: 7px;"/>
    <path d="M76.5,244.85c30.92,23.44,59.99,49.32,86.87,77.3,27.31,28.43,50.49,60.22,77.62,88.73" style="fill: none; stroke: #000; stroke-miterlimit: 10; stroke-width: 8px;"/>
    <path d="M374.58,524.63c9.34,8.21,18.27,16.88,26.76,25.96,4.22,4.51,8.51,9.26,14.2,11.65-.5-2.12-1-4.24-1.5-6.37,6.22,5.89,8.88,10.12,15.09,16.01" style="fill: none; stroke: #000; stroke-miterlimit: 10; stroke-width: 4px;"/>
    <path d="M61.86,264.59c58.67,51.51,113.1,107.84,162.57,168.24,7.62,9.3,9.19,13.11,16.64,22.55" style="fill: none; stroke: #000; stroke-miterlimit: 10; stroke-width: 8px;"/>
    <path d="M42.72,283.99c18,14.29,35.27,29.48,51.74,45.51" style="fill: none; stroke: #000; stroke-miterlimit: 10; stroke-width: 4px;"/>
    <path d="M93.26,336.9c51.01,47.84,99.33,98.55,144.65,151.81" style="fill: none; stroke: #000; stroke-miterlimit: 10; stroke-width: 3px;"/>
    <path d="M95.89,370.15c-.64,1.44-2.54-1.31-1.15-2.03s2.96.52,4.04,1.66c48.71,51.1,95.15,104.39,139.13,159.65" style="fill: none; stroke: #000; stroke-miterlimit: 10; stroke-width: 8px;"/>
    <path d="M100.45,426.06c-1.07-.42-.42-2.25.73-2.4s2.17.66,3.02,1.43c49.22,44.06,94.07,92.81,133.71,145.35" style="fill: none; stroke: #000; stroke-miterlimit: 10; stroke-width: 8px;"/>
    <path d="M97.27,463.93c37,29.61,84.31,67.69,104.41,107.95" style="fill: none; stroke: #000; stroke-miterlimit: 10; stroke-width: 4px;"/>
    <path d="M96.27,500.71c21.14,21.79,40.96,45.1,59.29,69.73" style="fill: none; stroke: #000; stroke-miterlimit: 10; stroke-width: 4px;"/>
    <path d="M95.88,532.8c7.63,11.38,16.48,21.98,26.36,31.57,1.27,1.23,3.6,2.37,4.55.88" style="fill: none; stroke: #000; stroke-miterlimit: 10; stroke-width: 4px;"/>
    <path d="M27.8,306c9.84,7.9,20.22,15.1,31.05,21.52" style="fill: none; stroke: #000; stroke-miterlimit: 10; stroke-width: 4px;"/>
    <path d="M413.67,50.83c-5.35,3.5-16.21,20.59-26.09,32.22" style="fill: none; stroke: #000; stroke-miterlimit: 10; stroke-width: 4px;"/>
    <path d="M440.3,50.83c-11.38,8.54-31.37,28.05-41.87,37.65-5.54,5.06-8.3,5.97-11.81,12.6" style="fill: none; stroke: #000; stroke-miterlimit: 10; stroke-width: 4px;"/>
    <path d="M486.05,68.42l1.04-1.04" style="fill: none; stroke: #000; stroke-miterlimit: 10; stroke-width: 4px;"/>
    <path d="M496.77,93.24c-14.34-5.34-221.83,179.19-399.49,393.1" style="fill: none; stroke: #000; stroke-miterlimit: 10; stroke-width: 8px;"/>
    <path d="M319.09,60.81c-61.73,51.23-107.3,88.59-142.27,116.59-13.71,10.97-38.77,30.9-68.55,59.05-21.01,19.86-17.28,18.22-36.43,35.91-15.01,13.88-25.82,22.76-34.88,36.95-1.48,2.31-10.07,15.99-10.11,15.96,0,0,.05-.09.09-.17" style="fill: none; stroke: #000; stroke-miterlimit: 10; stroke-width: 4px;"/>
    <path d="M332.9,70c-100.47,73.41-198.56,160.4-281.82,252.73" style="fill: none; stroke: #000; stroke-miterlimit: 10; stroke-width: 4px;"/>
    <path d="M353.62,91.32c1.39.28-6.4,2.99-7.66,2.35s-2.77.05-4.01.75c-21.11,11.82-39.54,27.84-57.56,43.98-67.96,60.87-132.64,125.3-197.27,189.69" style="fill: none; stroke: #000; stroke-miterlimit: 10; stroke-width: 5px;"/>
    <path d="M378.99,112.29c-102.8,75.09-201.84,164.74-284.53,260.78" style="fill: none; stroke: #000; stroke-miterlimit: 10; stroke-width: 3px;"/>
    <path d="M471.38,53.43c-16.33,8.49-106.95,104.18-121.11,115.96-93.6,77.95-176.31,149.56-252.7,244.55" style="fill: none; stroke: #000; stroke-miterlimit: 10; stroke-width: 8px;"/>
    <path d="M490.37,64.82c-121.18,92-302.38,264.65-392.81,386.16" style="fill: none; stroke: #000; stroke-miterlimit: 10; stroke-width: 5px;"/>
    <path d="M499.41,113.26c-35.07,28.87-127.22,116.11-160.24,147.13-57.91,54.41-115.94,108.94-167.79,168.74-26.92,31.05-52.14,63.47-75.5,97.09" style="fill: none; stroke: #000; stroke-miterlimit: 10; stroke-width: 4px;"/>
    <path d="M493.94,162.93c-79.75,68.83-166.7,152.91-240.11,228.05" style="fill: none; stroke: #000; stroke-miterlimit: 10; stroke-width: 8px;"/>
    <path d="M240.79,399.7c-52.6,49.02-99.29,104.53-138.71,164.9" style="fill: none; stroke: #000; stroke-miterlimit: 10; stroke-width: 3px;"/>
    <path d="M496.41,195.42c-.58-2.83-4.98-1.47-7.12.48-66.9,60.86-130.18,125.62-189.39,193.84" style="fill: none; stroke: #000; stroke-miterlimit: 10; stroke-width: 8px;"/>
    <path d="M239.98,429.75c-43.46,39.19-81.89,84.74-113.87,134.99-.63.99-1.62,2.11-2.66,1.69s.34-2.57.7-1.44" style="fill: none; stroke: #000; stroke-miterlimit: 10; stroke-width: 5px;"/>
    <path d="M503.23,223.43c-57.68,50.72-110.83,104.1-159.65,163.4" style="fill: none; stroke: #000; stroke-miterlimit: 10; stroke-width: 8px;"/>
    <path d="M223.48,490.88l2.93-4.53c-29.16,25.31-56.26,53.03-80.93,82.8" style="fill: none; stroke: #000; stroke-miterlimit: 10; stroke-width: 4px;"/>
    <path d="M525.99,241.7c-30.92,23.44-59.99,49.32-86.87,77.3-27.31,28.43-43.27,52.46-70.4,80.97" style="fill: none; stroke: #000; stroke-miterlimit: 10; stroke-width: 8px;"/>
    <path d="M239.12,505.83c-11.66,11.31-22.83,23.24-33.44,35.75-5.27,6.21-10.63,12.74-17.74,16.04.62-2.92,1.25-5.84,1.87-8.77-7.77,8.11-11.09,13.94-18.86,22.04" style="fill: none; stroke: #000; stroke-miterlimit: 10; stroke-width: 4px;"/>
    <path d="M543.65,257.77c-58.67,51.51-122.57,117.79-172.03,178.18" style="fill: none; stroke: #000; stroke-miterlimit: 10; stroke-width: 4px;"/>
    <path d="M566.49,274.1c-18,14.29-42,36.22-58.47,52.24" style="fill: none; stroke: #000; stroke-miterlimit: 10; stroke-width: 4px;"/>
    <path d="M515.38,331.26c-51.01,47.84-95.78,92.88-141.1,146.14" style="fill: none; stroke: #000; stroke-miterlimit: 10; stroke-width: 5px;"/>
    <path d="M516.47,347.13c-48.71,51.1-97.9,111.33-141.88,166.6" style="fill: none; stroke: #000; stroke-miterlimit: 10; stroke-width: 7px;"/>
    <path d="M517.64,390.77c-49.22,44.06-104.88,112.74-144.53,165.28" style="fill: none; stroke: #000; stroke-miterlimit: 10; stroke-width: 7px;"/>
    <path d="M516.47,450.98c-38.33,30.43-94.83,76.37-115.66,117.75" style="fill: none; stroke: #000; stroke-miterlimit: 10; stroke-width: 4px;"/>
    <path d="M518.27,488.28c-21.8,22.19-58.26,56.32-77.16,81.4" style="fill: none; stroke: #000; stroke-miterlimit: 10; stroke-width: 4px;"/>
    <path d="M516.64,518.58c-7.44,11.44-25.38,31.79-36.06,42.48-1.36,1.36-17.09,12.44-18.1,10.81" style="fill: none; stroke: #000; stroke-miterlimit: 10; stroke-width: 3px;"/>
    <path d="M588.56,291.77c-9.84,7.9-34.1,26.17-44.92,32.59" style="fill: none; stroke: #000; stroke-miterlimit: 10; stroke-width: 4px;"/>
  </g>
</svg>